<svg preserveAspectRatio="none" width="100%" height="100%" overflow="visible" style="display: block;" viewBox="0 0 20 20" fill="none" xmlns="http://www.w3.org/2000/svg">
<g id="Icon">
<path id="Vector" d="M5 1.66699L2.5 5.00033V16.667C2.5 17.109 2.67559 17.5329 2.98816 17.8455C3.30072 18.1581 3.72464 18.3337 4.16667 18.3337H15.8333C16.2754 18.3337 16.6993 18.1581 17.0118 17.8455C17.3244 17.5329 17.5 17.109 17.5 16.667V5.00033L15 1.66699H5Z" stroke="var(--stroke-0, #111111)" stroke-width="1.25" stroke-linecap="round" stroke-linejoin="round"/>
<path id="Vector_2" d="M2.5 5H17.5" stroke="var(--stroke-0, #111111)" stroke-width="1.25" stroke-linecap="round" stroke-linejoin="round"/>
<path id="Vector_3" d="M13.3333 8.33301C13.3333 9.21706 12.9821 10.0649 12.357 10.69C11.7319 11.3152 10.884 11.6663 9.99996 11.6663C9.1159 11.6663 8.26806 11.3152 7.64294 10.69C7.01782 10.0649 6.66663 9.21706 6.66663 8.33301" stroke="var(--stroke-0, #111111)" stroke-width="1.25" stroke-linecap="round" stroke-linejoin="round"/>
</g>
</svg>
