<svg preserveAspectRatio="none" width="100%" height="100%" overflow="visible" style="display: block;" viewBox="0 0 20 20" fill="none" xmlns="http://www.w3.org/2000/svg">
<g id="Icon">
<path id="Vector" d="M12.8975 10.7412L14.16 17.8462C14.1742 17.9299 14.1624 18.0159 14.1264 18.0927C14.0903 18.1695 14.0317 18.2335 13.9583 18.276C13.8849 18.3186 13.8003 18.3378 13.7157 18.331C13.6311 18.3241 13.5507 18.2917 13.485 18.2379L10.5017 15.9987C10.3577 15.8911 10.1827 15.833 10.003 15.833C9.82318 15.833 9.64822 15.8911 9.5042 15.9987L6.51587 18.237C6.4503 18.2907 6.36992 18.3232 6.28545 18.33C6.20098 18.3368 6.11643 18.3177 6.04309 18.2753C5.96975 18.2328 5.9111 18.169 5.87497 18.0923C5.83884 18.0157 5.82694 17.9298 5.84087 17.8462L7.10254 10.7412" stroke="var(--stroke-0, #111111)" stroke-width="1.25" stroke-linecap="round" stroke-linejoin="round"/>
<path id="Vector_2" d="M10 11.667C12.7614 11.667 15 9.42842 15 6.66699C15 3.90557 12.7614 1.66699 10 1.66699C7.23858 1.66699 5 3.90557 5 6.66699C5 9.42842 7.23858 11.667 10 11.667Z" stroke="var(--stroke-0, #111111)" stroke-width="1.25" stroke-linecap="round" stroke-linejoin="round"/>
</g>
</svg>
