<svg preserveAspectRatio="none" width="100%" height="100%" overflow="visible" style="display: block;" viewBox="0 0 20 20" fill="none" xmlns="http://www.w3.org/2000/svg">
<g id="Icon">
<path id="Vector" d="M3.33337 11.6662C3.17567 11.6668 3.02106 11.6226 2.8875 11.5387C2.75393 11.4549 2.6469 11.3349 2.57883 11.1926C2.51076 11.0504 2.48445 10.8917 2.50295 10.7351C2.52146 10.5785 2.58402 10.4304 2.68337 10.3079L10.9334 1.8079C10.9953 1.73647 11.0796 1.6882 11.1725 1.67101C11.2655 1.65382 11.3615 1.66874 11.4448 1.71332C11.5281 1.7579 11.5939 1.82948 11.6311 1.91632C11.6684 2.00317 11.6751 2.10011 11.65 2.19123L10.05 7.2079C10.0029 7.33417 9.98701 7.47 10.0039 7.60374C10.0207 7.73748 10.0698 7.86513 10.1468 7.97575C10.2238 8.08638 10.3265 8.17666 10.4461 8.23887C10.5657 8.30107 10.6986 8.33334 10.8334 8.3329H16.6667C16.8244 8.33236 16.979 8.37658 17.1126 8.46042C17.2461 8.54425 17.3532 8.66427 17.4212 8.80652C17.4893 8.94877 17.5156 9.10741 17.4971 9.26402C17.4786 9.42062 17.4161 9.56877 17.3167 9.69123L9.0667 18.1912C9.00482 18.2627 8.92048 18.3109 8.82755 18.3281C8.73461 18.3453 8.6386 18.3304 8.55526 18.2858C8.47192 18.2412 8.40621 18.1697 8.36892 18.0828C8.33163 17.996 8.32497 17.899 8.35003 17.8079L9.95003 12.7912C9.99721 12.665 10.0131 12.5291 9.99621 12.3954C9.97936 12.2617 9.93032 12.134 9.85329 12.0234C9.77627 11.9128 9.67356 11.8225 9.55397 11.7603C9.43439 11.6981 9.3015 11.6658 9.1667 11.6662H3.33337Z" stroke="var(--stroke-0, #111111)" stroke-width="1.25" stroke-linecap="round" stroke-linejoin="round"/>
</g>
</svg>
