<svg preserveAspectRatio="none" width="100%" height="100%" overflow="visible" style="display: block;" viewBox="0 0 104 42" fill="none" xmlns="http://www.w3.org/2000/svg">
<g id="BUUZ_logo 1" clip-path="url(#clip0_0_292)">
<path id="Vector" d="M15.2446 18.7517C14.2158 18.7517 13.4209 17.9385 13.4209 16.8861C13.4209 15.8337 14.2158 15.0205 15.2446 15.0205C17.2086 15.0205 18.7986 13.5376 18.7986 11.8155C18.7986 10.0934 17.2086 8.61048 15.2446 8.61048H1.82374C0.794964 8.61048 0 7.79727 0 6.74487C0 5.69248 0.794964 4.87927 1.82374 4.87927H15.2446C19.1727 4.87927 22.3525 7.98861 22.3525 11.8633C22.3525 15.738 19.2194 18.8474 15.2446 18.8474" fill="var(--fill-0, #231F20)"/>
<path id="Vector_2" d="M1.96403 29.3713C0.935252 29.3713 0.140288 28.5581 0.140288 27.5057V6.6492C0.140288 5.59681 0.935252 4.7836 1.96403 4.7836C2.99281 4.7836 3.78777 5.59681 3.78777 6.6492V27.5057C3.78777 28.5581 2.99281 29.3713 1.96403 29.3713Z" fill="var(--fill-0, #231F20)"/>
<path id="Vector_3" d="M15.5252 29.3713H1.96403C0.935252 29.3713 0.140288 28.5581 0.140288 27.5057C0.140288 26.4533 0.935252 25.6401 1.96403 25.6401H15.4784C17.5827 25.6401 19.1727 24.0137 19.1727 22.1481C19.1727 20.2825 17.4424 18.656 15.4784 18.656C13.5144 18.656 13.6547 17.8428 13.6547 16.7904C13.6547 15.738 14.4496 14.9248 15.4784 14.9248C19.5468 14.9248 22.7266 18.1298 22.7266 22.0524C22.7266 25.9749 19.4532 29.18 15.4784 29.18" fill="var(--fill-0, #231F20)"/>
<path id="Vector_4" d="M34.6978 29.6583C29.1799 29.6583 24.6906 24.9704 24.6906 19.0387V15.8337C24.6906 14.7813 25.4856 13.9681 26.5144 13.9681C27.5432 13.9681 28.3381 14.7813 28.3381 15.8337V19.0387C28.3381 22.9613 31.2374 26.0228 34.6511 26.0228C38.0647 26.0228 40.964 22.9134 40.964 19.0387V15.8337C40.964 14.7813 41.759 13.9681 42.7878 13.9681C43.8165 13.9681 44.6115 14.7813 44.6115 15.8337V19.0387C44.6115 24.9704 40.1223 29.6583 34.6043 29.6583" fill="var(--fill-0, #231F20)"/>
<path id="Vector_5" d="M55.8345 20.6173C50.3165 20.6173 45.8273 15.9294 45.8273 9.99772V6.79271C45.8273 5.74032 46.6223 4.92711 47.6511 4.92711C48.6799 4.92711 49.4748 5.74032 49.4748 6.79271V9.99772C49.4748 13.9203 52.3741 16.9818 55.7878 16.9818C59.2014 16.9818 62.1007 13.8724 62.1007 9.99772V6.79271C62.1007 5.74032 62.8957 4.92711 63.9245 4.92711C64.9532 4.92711 65.7482 5.74032 65.7482 6.79271V9.99772C65.7482 15.9294 61.259 20.6173 55.741 20.6173" fill="var(--fill-0, #231F20)"/>
<path id="Vector_6" d="M89.1295 29.3713H70.4712C69.8165 29.3713 69.1619 28.9886 68.741 28.3189C68.4604 27.6492 68.6007 26.836 69.0216 26.3098L84.9209 8.56264H70.9856C69.9568 8.56264 69.1619 7.74943 69.1619 6.69704C69.1619 5.64465 69.9568 4.83144 70.9856 4.83144H88.9892C89.6439 4.83144 90.2986 5.21412 90.7194 5.88383C91 6.55353 90.8597 7.36674 90.4388 7.89294L74.5396 25.6401H89.1295C90.1583 25.6401 90.9532 26.4533 90.9532 27.5057C90.9532 28.5581 90.1583 29.3713 89.1295 29.3713Z" fill="var(--fill-0, #231F20)"/>
<path id="Vector_7" d="M15.2446 18.7517C14.2158 18.7517 13.4209 17.9385 13.4209 16.8861C13.4209 15.8337 14.2158 15.0205 15.2446 15.0205C17.2086 15.0205 18.7986 13.5376 18.7986 11.8155C18.7986 10.0934 17.2086 8.61048 15.2446 8.61048H1.82374C0.794964 8.61048 0 7.79727 0 6.74487C0 5.69248 0.794964 4.87927 1.82374 4.87927H15.2446C19.1727 4.87927 22.3525 7.98861 22.3525 11.8633C22.3525 15.738 19.2194 18.8474 15.2446 18.8474" fill="var(--fill-0, #231F20)"/>
<path id="Vector_8" d="M34.6978 29.6583C29.1799 29.6583 24.6906 24.9704 24.6906 19.0387V15.8337C24.6906 14.7813 25.4856 13.9681 26.5144 13.9681C27.5432 13.9681 28.3381 14.7813 28.3381 15.8337V19.0387C28.3381 22.9613 31.2374 26.0228 34.6511 26.0228C38.0647 26.0228 36.4748 26.836 36.4748 27.8884C36.4748 28.9408 35.6799 29.754 34.6511 29.754" fill="var(--fill-0, #231F20)"/>
<path id="Vector_9" d="M83.0504 29.3713H70.4245C69.3957 29.3713 68.6007 28.5581 68.6007 27.5057C68.6007 26.4533 69.3957 25.6401 70.4245 25.6401H83.0504C84.0791 25.6401 84.8741 26.4533 84.8741 27.5057C84.8741 28.5581 84.0791 29.3713 83.0504 29.3713Z" fill="var(--fill-0, #231F20)"/>
<path id="Vector_10" d="M70.4245 29.3713C70.0504 29.3713 69.4892 29.2278 69.2554 28.8451C68.4604 28.1754 68.4604 26.9795 69.2554 26.3098L79.1223 15.3075C79.777 14.4943 80.946 14.4943 81.6007 15.3075C82.3957 15.9772 82.3957 17.1731 81.6007 17.8428L71.7338 28.8451C71.3597 29.2278 70.9389 29.3713 70.4245 29.3713Z" fill="var(--fill-0, #231F20)"/>
<path id="Vector_11" d="M55.8345 20.6173C52.2806 20.6173 49.0072 18.6082 47.1835 15.2597C46.6691 14.303 47.0432 13.2506 47.8381 12.7244C48.7734 12.1982 49.8022 12.5809 50.3165 13.3941C51.4856 15.5467 53.5899 16.8861 55.8345 16.8861C58.0791 16.8861 60.1835 15.5467 61.3525 13.3941C61.8669 12.4374 62.9424 12.1982 63.8309 12.7244C64.7662 13.2506 65 14.3508 64.4856 15.2597C62.7554 18.6082 59.3417 20.6173 55.8345 20.6173Z" fill="var(--fill-0, #231F20)"/>
<path id="Vector_12" d="M15.5252 18.7517H9.63309C8.60432 18.7517 7.80935 17.9385 7.80935 16.8861C7.80935 15.8337 8.60432 15.0205 9.63309 15.0205H15.5252C16.554 15.0205 17.3489 15.8337 17.3489 16.8861C17.3489 17.9385 16.554 18.7517 15.5252 18.7517Z" fill="var(--fill-0, #231F20)"/>
<g id="Group">
<path id="Vector_13" d="M2.2446 40.9476H2.75899C3.03957 40.9476 3.13309 40.6606 3.13309 40.4214C3.13309 40.1822 3.13309 40.1344 2.99281 40.0387C2.99281 40.0387 2.71223 39.8952 2.33813 39.7517H1.82374C1.44964 39.4647 1.02878 39.4647 0.888489 39.369C0.607914 39.082 0.514389 38.8428 0.514389 38.4123C0.514389 37.9818 0.654676 37.5991 0.888489 37.4556C1.16906 37.1686 1.54317 37.0729 2.19784 37.0729C2.85252 37.0729 3.13309 37.0729 3.36691 37.4556C3.60072 37.8383 3.8813 38.1253 3.8813 38.508H2.94604C2.94604 38.221 2.94604 38.1253 2.57194 37.9818H2.05755C1.77698 37.9818 1.68345 37.9818 1.54317 38.1253C1.40288 38.1253 1.26259 38.4123 1.26259 38.508C1.26259 38.6036 1.26259 38.795 1.54317 38.8907C1.54317 38.8907 1.82374 38.8907 2.05755 39.0342H2.85252C3.22662 39.3212 3.36691 39.4169 3.64748 39.5604C3.92806 39.8474 4.02158 40.0866 4.02158 40.5171C4.02158 40.9476 3.8813 41.3303 3.50719 41.5695C3.22662 41.8565 2.71223 41.9522 2.19784 41.9522C1.68345 41.9522 1.16906 41.9522 0.888489 41.5695C0.607914 41.2825 0.374101 40.8998 0.374101 40.5171H1.30935C1.30935 40.8041 1.30935 40.8998 1.44964 40.8998C1.58993 41.0433 1.82374 41.1868 2.2446 41.1868V40.8998V40.9476Z" fill="var(--fill-0, #231F20)"/>
<path id="Vector_14" d="M8.79137 41.7608C8.13669 41.7608 7.76259 41.6173 7.34173 41.2346C6.96763 40.8519 6.68705 40.1822 6.68705 39.369C6.68705 38.5558 6.96763 37.8861 7.34173 37.5034C7.71583 37.1207 8.13669 36.9772 8.79137 36.9772C9.44604 36.9772 9.82014 37.1207 10.241 37.5034C10.6151 37.8861 10.8957 38.5558 10.8957 39.369C10.8957 40.1822 10.6151 40.8519 10.241 41.2346C9.86691 41.6173 9.44604 41.7608 8.79137 41.7608ZM9.58633 40.5171C9.86691 40.2301 9.86691 39.8474 9.86691 39.3212C9.86691 38.795 9.86691 38.3645 9.58633 38.1253C9.30576 37.8861 9.07194 37.7426 8.65108 37.7426C8.23022 37.7426 7.9964 37.8861 7.71583 38.1253C7.43525 38.3645 7.43525 38.795 7.43525 39.3212C7.43525 39.8474 7.43525 40.2779 7.71583 40.5171C7.9964 40.7563 8.23022 40.8998 8.65108 40.8998C9.07194 40.8998 9.30576 40.7563 9.58633 40.5171Z" fill="var(--fill-0, #231F20)"/>
<path id="Vector_15" d="M16.8345 41.3303C16.4604 41.6173 16.0396 41.713 15.5252 41.713C15.0108 41.713 14.3561 41.426 14.0755 41.0433C13.7014 40.6606 13.5612 40.0866 13.5612 39.2733C13.5612 38.4601 13.8417 37.9339 14.2158 37.4077C14.5899 37.0251 15.0108 36.8815 15.5252 36.8815C16.0396 36.8815 16.8345 37.1686 17.1151 37.6948C17.2554 37.9818 17.3957 38.221 17.3957 38.508H16.4604C16.4604 38.221 16.3201 38.1253 16.1799 37.9818C16.0396 37.8383 15.8058 37.6948 15.3849 37.6948C14.964 37.6948 14.7302 37.8383 14.5899 38.0774C14.4496 38.3166 14.3094 38.7471 14.3094 39.2733C14.3094 39.7995 14.3094 40.2301 14.5899 40.3257C14.8705 40.6128 15.1043 40.7084 15.3849 40.7084C15.6655 40.7084 15.8993 40.7084 16.1799 40.4214C16.1799 40.4214 16.3201 40.1344 16.4604 39.8952H17.3957C17.3957 40.4214 17.1151 40.8519 16.741 41.0911H16.8813V41.2346L16.8345 41.3303Z" fill="var(--fill-0, #231F20)"/>
<path id="Vector_16" d="M20.2482 37.0251H21.1835V41.6173H20.2482V37.0251Z" fill="var(--fill-0, #231F20)"/>
<path id="Vector_17" d="M26.795 40.6606H25.205L24.9245 41.6173H23.9892L25.5791 37.0251H26.6079L28.1978 41.6173H27.1691L26.8885 40.6606H26.7482H26.795ZM26.5612 39.8474L26.0468 38.0774L25.5324 39.8474H26.7014H26.5612Z" fill="var(--fill-0, #231F20)"/>
<path id="Vector_18" d="M30.7698 37.0251H31.705V40.8041H33.9496V41.6173H30.8165V37.0251H30.7698Z" fill="var(--fill-0, #231F20)"/>
<path id="Vector_19" d="M40.3561 37.0251H41.2914V40.8041H43.536V41.6173H40.4029V37.0251H40.3561Z" fill="var(--fill-0, #231F20)"/>
<path id="Vector_20" d="M48.8669 39.8474V37.0251H49.8022V39.8474C49.8022 40.3736 49.8022 40.6606 49.5216 40.8998C49.241 41.426 48.7266 41.5695 47.9317 41.5695C47.1367 41.5695 46.6223 41.2825 46.3417 40.8998C46.2014 40.6128 46.0611 40.2301 46.0611 39.8474V37.0251H46.9964V40.5171C46.9964 40.8041 47.3705 40.8998 47.7914 40.8998C48.2122 40.8998 48.446 40.8998 48.5863 40.5171V39.8474H48.8669Z" fill="var(--fill-0, #231F20)"/>
<path id="Vector_21" d="M54.8058 41.6173H52.8417V37.0251H54.946C55.4604 37.0251 55.8813 37.1686 56.1151 37.5513C56.2554 37.6948 56.3957 37.9339 56.3957 38.221C56.3957 38.508 56.3957 38.7472 56.1151 38.8907C56.1151 38.8907 55.9748 39.0342 55.741 39.1777C56.0216 39.1777 56.1151 39.4647 56.2554 39.5604C56.2554 39.7039 56.3957 39.943 56.3957 40.2301C56.3957 40.5171 56.3957 40.7563 56.1151 40.8998C56.1151 41.0433 55.9748 41.1868 55.8345 41.2825C55.6942 41.2825 55.554 41.426 55.3201 41.5695C55.0863 41.713 54.946 41.5695 54.6655 41.5695H54.8058V41.6173ZM55.3201 38.795C55.3201 38.795 55.4604 38.508 55.4604 38.4123C55.4604 38.3166 55.4604 38.0296 55.1799 38.0296H53.7302V38.9863H55.3201V38.8428V38.795ZM54.8058 39.6082H53.777V40.8041H55.2266C55.3669 40.8041 55.5072 40.5171 55.5072 40.2779C55.5072 40.0387 55.5072 39.8952 55.2266 39.7517H54.8525V39.6082H54.8058Z" fill="var(--fill-0, #231F20)"/>
<path id="Vector_22" d="M61.259 39.8474H60.3237V41.6173H59.3885V37.0251H62.1475C62.2878 37.0251 62.4281 37.1686 62.5216 37.3121C62.5216 37.3121 62.6619 37.5991 62.8022 37.6948V38.221C62.8022 38.508 62.8022 38.6036 62.6619 38.8907C62.6619 39.1777 62.3813 39.2733 62.1475 39.2733C62.4281 39.2733 62.5216 39.5604 62.5216 39.656V40.9954C62.5216 40.9954 62.5216 41.2825 62.6619 41.2825H61.6331V40.2301C61.6331 39.943 61.6331 39.7039 61.4928 39.7039C61.3525 39.7039 61.2122 39.5604 60.9784 39.5604L61.259 39.8474ZM61.9137 39.0342C62.0539 39.0342 62.1942 38.7471 62.1942 38.508C62.1942 38.2688 62.1942 38.1253 61.9137 37.9818H60.464V39.1777H62.054L61.9137 39.0342Z" fill="var(--fill-0, #231F20)"/>
<path id="Vector_23" d="M65.982 37.0251H66.9173V41.6173H65.982V37.0251Z" fill="var(--fill-0, #231F20)"/>
<path id="Vector_24" d="M72.9496 41.3303C72.5755 41.6173 72.1547 41.713 71.6403 41.713C71.1259 41.713 70.4712 41.426 70.1906 41.0433C69.8165 40.6606 69.6763 40.0866 69.6763 39.2733C69.6763 38.4601 69.9568 37.9339 70.3309 37.4077C70.705 37.0251 71.1259 36.8815 71.6403 36.8815C72.1547 36.8815 72.9496 37.1686 73.2302 37.6948C73.3705 37.9818 73.5108 38.221 73.5108 38.508H72.5755C72.5755 38.221 72.4352 38.1253 72.295 37.9818C72.1547 37.8383 71.9209 37.6948 71.5 37.6948C71.0791 37.6948 70.8453 37.8383 70.705 38.0774C70.5647 38.3166 70.4245 38.7471 70.4245 39.2733C70.4245 39.7995 70.4245 40.2301 70.705 40.3257C70.9856 40.6128 71.2194 40.7084 71.5 40.7084C71.7806 40.7084 72.0144 40.7084 72.295 40.4214C72.295 40.4214 72.4352 40.1344 72.5755 39.8952H73.5108C73.5108 40.4214 73.2302 40.8519 72.8561 41.0911H72.9964V41.2346L72.9496 41.3303Z" fill="var(--fill-0, #231F20)"/>
<path id="Vector_25" d="M78.982 40.6606H77.3921L77.1115 41.6173H76.1763L77.7662 37.0251H78.795L80.3849 41.6173H79.3561L79.0755 40.6606H78.9353H78.982ZM78.7014 39.8474L78.187 38.0774L77.6727 39.8474H78.8417H78.7014Z" fill="var(--fill-0, #231F20)"/>
<path id="Vector_26" d="M86.6043 41.6173H85.6691L83.8453 38.4123V41.6173H82.9101V37.0251H83.8453L85.5755 40.1344V37.0251H86.5108V41.6173H86.6511H86.6043Z" fill="var(--fill-0, #231F20)"/>
<path id="Vector_27" d="M92.777 37.0251V37.8383H91.4676V41.6173H90.5324V37.8383H89.223V37.0251H92.777Z" fill="var(--fill-0, #231F20)"/>
</g>
<g id="Group_2">
<path id="Vector_28" d="M97.5 3.15718H99.2302C99.7446 3.15718 100.165 3.30068 100.259 3.53986C100.54 3.82688 100.54 4.06606 100.54 4.35308C100.54 5.02278 100.165 5.40547 99.6043 5.54897L100.633 7.03189H99.8381L98.9029 5.69248H98.1079V7.03189H97.4532V3.15718H97.5ZM99.2302 5.02278C99.7446 5.02278 100.025 4.73576 100.025 4.35308C100.025 3.97039 99.7446 3.68337 99.2302 3.68337H98.2014V5.02278H99.2302Z" fill="var(--fill-0, #231F20)"/>
<path id="Vector_29" d="M98.9496 9.85421C101.481 9.85421 103.532 7.75536 103.532 5.16629C103.532 2.57722 101.481 0.47836 98.9496 0.47836C96.4187 0.47836 94.3669 2.57722 94.3669 5.16629C94.3669 7.75536 96.4187 9.85421 98.9496 9.85421Z" stroke="var(--stroke-0, black)" stroke-width="2" stroke-miterlimit="10"/>
</g>
</g>
<defs>
<clipPath id="clip0_0_292">
<rect width="104" height="42" fill="white"/>
</clipPath>
</defs>
</svg>
