<svg preserveAspectRatio="none" width="100%" height="100%" overflow="visible" style="display: block;" viewBox="0 0 578 590" fill="none" xmlns="http://www.w3.org/2000/svg">
<g id="Mask group">
<mask id="mask0_0_291" style="mask-type:alpha" maskUnits="userSpaceOnUse" x="100" y="96" width="378" height="390">
<path id="Rectangle 5" opacity="0.85" d="M100 116C100 104.954 108.954 96 120 96H458C469.046 96 478 104.954 478 116V466C478 477.046 469.046 486 458 486H120C108.954 486 100 477.046 100 466V116Z" fill="var(--fill-0, white)" fill-opacity="0.5"/>
</mask>
<g mask="url(#mask0_0_291)">
<g id="Group 1">
<path id="Vector" d="M734.06 245.55C734.034 245.55 734.011 245.542 733.992 245.524C693.238 207.208 492.243 120.458 444.927 117.267C397.601 114.075 331.102 173.676 307.237 212.53C283.776 251.383 259.911 305.151 285.718 325.348C285.718 325.348 371.39 374.823 402.293 411.585C432.792 447.797 488.37 526 529.831 549.994C571.291 573.438 637.79 571.843 675.772 539.373C713.755 506.903 771.233 447.797 782.195 412.686C792.324 377.659 775.238 284.3 734.755 245.825C734.567 245.646 734.32 245.55 734.06 245.55ZM760.635 387.151C759.058 427.05 690.981 489.348 628.81 517.029C567.004 544.711 513.408 501.62 493.831 476.58C471.907 448.348 426.159 397.827 403.831 374.933C381.138 352.039 338.505 329.146 316.581 313.736C294.657 298.822 303.678 272.736 313.062 258.373C322.446 244.009 356.505 196.075 385.062 178.024C412.851 159.918 450.388 140.766 487.561 156.176C524.734 171.09 672.981 236.029 703.925 256.226C734.779 275.897 762.892 347.025 761.049 387.508C761.044 387.618 760.953 387.701 760.842 387.701C760.728 387.701 760.635 387.608 760.635 387.494V387.151Z" stroke="var(--stroke-0, #4E4E50)" stroke-width="0.97" stroke-miterlimit="10"/>
<path id="Vector_2" d="M684.427 413.842C709.061 377.63 702.428 336.63 676.216 311.094C650.005 285.009 575.659 249.897 543.987 235.534C512.275 221.665 468.063 208.402 448.122 212.64C423.488 217.428 392.18 260.024 387.892 269.049C384.009 278.075 382.836 293.539 403.951 302.564C425.47 311.645 462.643 335.584 482.989 354.736C502.567 374.438 526.027 425.509 558.104 445.211C590.18 464.858 659.834 450.494 684.468 413.787L684.427 413.842ZM684.427 413.842H684.832M560.814 213.135C591.655 225.877 662.257 263.009 696.757 290.674C696.893 290.782 696.967 290.943 696.967 291.117C696.967 291.291 697.046 291.456 697.181 291.565C731.435 319.309 742.322 375.552 728.275 408.504C714.198 441.468 648.063 492.594 621.084 497.382C594.104 502.17 566.315 494.19 534.239 468.655C502.162 443.064 475.142 395.736 450.508 367.504C426.279 339.272 385.991 323.862 362.49 305.756C338.989 287.65 353.874 264.206 363.259 248.797C373.816 231.241 409.452 193.984 438.373 186.004C467.295 178.024 530.315 200.367 560.814 213.135Z" stroke="var(--stroke-0, #4E4E50)" stroke-width="0.97" stroke-miterlimit="10"/>
<path id="Vector_3" d="M572.707 284.679C572.707 284.51 572.62 284.361 572.469 284.286C550.812 273.591 499.866 247.671 480.361 240.762C460.783 233.828 447.88 242.358 433.035 254.575C418.19 266.793 415.803 287.595 446.342 298.767C469.439 307.297 490.958 326.449 505.803 349.838C520.284 372.732 549.61 424.904 576.63 428.095C611.053 432.333 659.956 390.838 658.783 360.515C657.614 330.3 594.681 295.824 572.941 285.069C572.79 284.995 572.707 284.847 572.707 284.679ZM599.124 386.105C599.186 386.105 599.207 386.186 599.157 386.222C580.427 399.288 559.004 376.485 548.477 361.615C537.92 346.701 510.94 314.232 498.401 303.06C488.248 294.034 469.439 288.146 466.325 282.312C462.037 274.332 468.671 265.307 484.729 268.994C500.787 272.186 544.594 304.105 560.612 309.994C576.671 315.828 605.592 332.338 617.323 344.06C628.994 356.216 610.071 378.451 599.083 385.992C599.032 386.027 599.062 386.105 599.124 386.105Z" stroke="var(--stroke-0, #4E4E50)" stroke-width="0.97" stroke-miterlimit="10"/>
<path id="Vector_4" d="M734.06 245.55C734.034 245.55 734.011 245.542 733.992 245.524C693.238 207.208 492.243 120.458 444.927 117.267C397.601 114.075 331.102 173.676 307.237 212.53C283.776 251.383 259.911 305.151 285.718 325.348C285.718 325.348 371.39 374.823 402.293 411.585C432.792 447.797 488.37 526 529.831 549.994C571.291 573.438 637.79 571.843 675.772 539.373C713.755 506.903 771.233 447.797 782.195 412.686C792.324 377.659 775.238 284.3 734.755 245.825C734.567 245.646 734.32 245.55 734.06 245.55ZM760.635 387.151C759.058 427.05 690.981 489.348 628.81 517.029C567.004 544.711 513.408 501.62 493.831 476.58C471.907 448.348 426.159 397.827 403.831 374.933C381.138 352.039 338.505 329.146 316.581 313.736C294.657 298.822 303.678 272.736 313.062 258.373C322.446 244.009 356.505 196.075 385.062 178.024C412.851 159.918 450.388 140.766 487.561 156.176C524.734 171.09 672.981 236.029 703.925 256.226C734.779 275.897 762.892 347.025 761.049 387.508C761.044 387.618 760.953 387.701 760.842 387.701C760.728 387.701 760.635 387.608 760.635 387.494V387.151Z" fill="var(--fill-0, white)"/>
<path id="Vector_5" d="M572.707 284.679C572.707 284.51 572.62 284.361 572.469 284.286C550.812 273.591 499.866 247.671 480.361 240.762C460.783 233.828 447.88 242.358 433.035 254.575C418.19 266.793 415.803 287.595 446.342 298.767C469.439 307.297 490.958 326.449 505.803 349.838C520.284 372.732 549.61 424.904 576.63 428.095C611.053 432.333 659.956 390.838 658.783 360.515C657.614 330.3 594.681 295.824 572.941 285.069C572.79 284.995 572.707 284.847 572.707 284.679ZM599.124 386.105C599.186 386.105 599.207 386.186 599.157 386.222C580.427 399.288 559.004 376.485 548.477 361.615C537.92 346.701 510.94 314.232 498.401 303.06C488.248 294.034 469.439 288.146 466.325 282.312C462.037 274.332 468.671 265.307 484.729 268.994C500.787 272.186 544.594 304.105 560.612 309.994C576.671 315.828 605.592 332.338 617.323 344.06C628.994 356.216 610.071 378.451 599.083 385.992C599.032 386.027 599.062 386.105 599.124 386.105Z" fill="var(--fill-0, #F3F3F3)"/>
<path id="Vector_6" d="M-1424.32 245.55C-1424.35 245.55 -1424.37 245.542 -1424.39 245.524C-1465.15 207.208 -1666.14 120.458 -1713.46 117.267C-1760.78 114.075 -1827.28 173.676 -1851.15 212.53C-1874.61 251.383 -1898.47 305.151 -1872.67 325.348C-1872.67 325.348 -1786.99 374.823 -1756.09 411.585C-1725.59 447.797 -1670.01 526 -1628.55 549.994C-1587.09 573.438 -1520.59 571.843 -1482.61 539.373C-1444.67 506.903 -1387.15 447.797 -1376.19 412.686C-1366.06 377.659 -1383.15 284.3 -1423.63 245.825C-1423.82 245.646 -1424.06 245.55 -1424.32 245.55ZM-1397.79 387.151C-1399.37 427.05 -1467.44 489.348 -1529.61 517.029C-1591.42 544.711 -1645.02 501.62 -1664.59 476.58C-1686.52 448.348 -1732.27 397.827 -1754.59 374.933C-1777.29 352.039 -1819.92 329.146 -1841.84 313.736C-1863.77 298.822 -1854.75 272.736 -1845.36 258.373C-1835.98 244.009 -1801.92 196.075 -1773.36 178.024C-1745.57 159.918 -1708.04 140.766 -1670.86 156.176C-1633.69 171.09 -1485.44 236.029 -1454.5 256.226C-1423.65 275.897 -1395.53 347.025 -1397.38 387.508C-1397.38 387.618 -1397.47 387.701 -1397.58 387.701C-1397.7 387.701 -1397.79 387.608 -1397.79 387.494V387.151Z" stroke="var(--stroke-0, #4E4E50)" stroke-width="0.97" stroke-miterlimit="10"/>
<path id="Vector_7" d="M-1474 413.842C-1449.36 377.63 -1456 336.63 -1482.21 311.094C-1508.42 285.009 -1582.76 249.897 -1614.44 235.534C-1646.15 221.665 -1690.36 208.402 -1710.3 212.64C-1734.94 217.428 -1766.24 260.024 -1770.53 269.049C-1774.41 278.075 -1775.59 293.539 -1754.47 302.564C-1732.95 311.645 -1695.78 335.584 -1675.43 354.736C-1655.86 374.438 -1632.4 425.564 -1600.32 445.211C-1568.24 464.858 -1498.59 450.494 -1473.96 413.787L-1474 413.842ZM-1474 413.842H-1473.59M-1597.57 213.135C-1566.73 225.877 -1496.13 263.009 -1461.63 290.674C-1461.49 290.782 -1461.42 290.943 -1461.42 291.117C-1461.42 291.291 -1461.34 291.456 -1461.2 291.565C-1426.95 319.309 -1416.06 375.552 -1430.11 408.504C-1444.19 441.468 -1510.32 492.594 -1537.3 497.382C-1564.28 502.17 -1592.07 494.19 -1624.14 468.655C-1656.22 443.064 -1683.24 395.736 -1707.88 367.504C-1732.1 339.272 -1772.39 323.862 -1795.89 305.756C-1819.39 287.65 -1804.51 264.206 -1795.12 248.797C-1784.57 231.241 -1748.93 193.984 -1720.01 186.004C-1691.09 178.024 -1628.07 200.367 -1597.57 213.135Z" stroke="var(--stroke-0, #4E4E50)" stroke-width="0.97" stroke-miterlimit="10"/>
<path id="Vector_8" d="M-1585.68 284.679C-1585.68 284.51 -1585.76 284.361 -1585.91 284.286C-1607.57 273.591 -1658.52 247.671 -1678.02 240.762C-1697.6 233.828 -1710.5 242.358 -1725.35 254.575C-1740.19 266.793 -1742.58 287.595 -1712.04 298.767C-1688.94 307.297 -1667.43 326.449 -1652.58 349.838C-1638.1 372.732 -1608.77 424.904 -1581.75 428.095C-1547.33 432.333 -1498.43 390.838 -1499.6 360.515C-1500.77 330.3 -1563.7 295.824 -1585.44 285.069C-1585.59 284.995 -1585.68 284.847 -1585.68 284.679ZM-1559.3 386.105C-1559.24 386.105 -1559.22 386.187 -1559.27 386.222C-1578 399.288 -1599.42 376.485 -1609.95 361.615C-1620.5 346.701 -1647.48 314.232 -1660.02 303.06C-1670.18 294.034 -1688.98 288.146 -1692.1 282.312C-1696.39 274.332 -1689.75 265.307 -1673.69 268.994C-1657.64 272.186 -1613.83 304.105 -1597.81 309.994C-1581.75 315.828 -1552.83 332.338 -1541.1 344.06C-1529.43 356.216 -1548.35 378.451 -1559.34 385.992C-1559.39 386.027 -1559.36 386.105 -1559.3 386.105Z" stroke="var(--stroke-0, #4E4E50)" stroke-width="0.97" stroke-miterlimit="10"/>
<path id="Vector_9" d="M-1424.32 245.55C-1424.35 245.55 -1424.37 245.542 -1424.39 245.524C-1465.15 207.208 -1666.14 120.458 -1713.46 117.267C-1760.78 114.075 -1827.28 173.676 -1851.15 212.53C-1874.61 251.383 -1898.47 305.151 -1872.67 325.348C-1872.67 325.348 -1786.99 374.823 -1756.09 411.585C-1725.59 447.797 -1670.01 526 -1628.55 549.994C-1587.09 573.438 -1520.59 571.843 -1482.61 539.373C-1444.67 506.903 -1387.15 447.797 -1376.19 412.686C-1366.06 377.659 -1383.15 284.3 -1423.63 245.825C-1423.82 245.646 -1424.06 245.55 -1424.32 245.55ZM-1397.79 387.151C-1399.37 427.05 -1467.44 489.348 -1529.61 517.029C-1591.42 544.711 -1645.02 501.62 -1664.59 476.58C-1686.52 448.348 -1732.27 397.827 -1754.59 374.933C-1777.29 352.039 -1819.92 329.146 -1841.84 313.736C-1863.77 298.822 -1854.75 272.736 -1845.36 258.373C-1835.98 244.009 -1801.92 196.075 -1773.36 178.024C-1745.57 159.918 -1708.04 140.766 -1670.86 156.176C-1633.69 171.09 -1485.44 236.029 -1454.5 256.226C-1423.65 275.897 -1395.53 347.025 -1397.38 387.508C-1397.38 387.618 -1397.47 387.701 -1397.58 387.701C-1397.7 387.701 -1397.79 387.608 -1397.79 387.494V387.151Z" fill="var(--fill-0, white)"/>
<path id="Vector_10" d="M-1585.68 284.679C-1585.68 284.51 -1585.76 284.361 -1585.91 284.286C-1607.57 273.591 -1658.52 247.671 -1678.02 240.762C-1697.6 233.828 -1710.5 242.358 -1725.35 254.575C-1740.19 266.793 -1742.58 287.595 -1712.04 298.767C-1688.94 307.297 -1667.43 326.449 -1652.58 349.838C-1638.1 372.732 -1608.77 424.904 -1581.75 428.095C-1547.33 432.333 -1498.43 390.838 -1499.6 360.515C-1500.77 330.3 -1563.7 295.824 -1585.44 285.069C-1585.59 284.995 -1585.68 284.847 -1585.68 284.679ZM-1559.3 386.105C-1559.24 386.105 -1559.22 386.187 -1559.27 386.222C-1578 399.288 -1599.42 376.485 -1609.95 361.615C-1620.5 346.701 -1647.48 314.232 -1660.02 303.06C-1670.18 294.034 -1688.98 288.146 -1692.1 282.312C-1696.39 274.332 -1689.75 265.307 -1673.69 268.994C-1657.64 272.186 -1613.83 304.105 -1597.81 309.994C-1581.75 315.828 -1552.83 332.338 -1541.1 344.06C-1529.43 356.216 -1548.35 378.451 -1559.34 385.992C-1559.39 386.027 -1559.36 386.105 -1559.3 386.105Z" fill="var(--fill-0, white)"/>
<g id="Group">
<path id="Vector_11" d="M-701.33 242.908C-701.356 242.908 -701.379 242.9 -701.398 242.883C-742.153 204.566 -943.148 117.817 -990.463 114.626C-1037.79 111.434 -1104.29 171.035 -1128.15 209.888C-1151.61 248.742 -1175.48 302.509 -1149.67 322.707C-1149.67 322.707 -1064 372.182 -1033.1 408.944C-1002.6 445.156 -947.02 523.358 -905.56 547.353C-864.099 570.797 -797.6 569.201 -759.618 536.731C-721.676 504.262 -664.157 445.156 -653.195 410.045C-643.067 375.017 -660.152 281.658 -700.635 243.183C-700.823 243.004 -701.071 242.908 -701.33 242.908ZM-674.391 384.509C-675.969 424.408 -744.045 486.706 -806.216 514.388C-868.023 542.069 -921.618 498.978 -941.196 473.938C-963.119 445.706 -1008.87 395.186 -1031.2 372.292C-1053.89 349.398 -1096.52 326.504 -1118.45 311.095C-1140.37 296.18 -1131.35 270.095 -1121.96 255.731C-1112.58 241.367 -1078.52 193.433 -1049.96 175.382C-1022.18 157.277 -984.638 138.125 -947.465 153.534C-910.292 168.448 -762.045 233.388 -731.101 253.585C-700.247 273.255 -672.134 344.383 -673.977 384.866C-673.982 384.977 -674.073 385.059 -674.184 385.059C-674.298 385.059 -674.391 384.967 -674.391 384.852V384.509Z" stroke="var(--stroke-0, #4E4E50)" stroke-width="0.97" stroke-miterlimit="10"/>
<path id="Vector_12" d="M-755.775 410.65C-731.142 374.438 -737.775 333.438 -763.987 307.903C-790.198 281.817 -864.544 246.706 -896.216 232.342C-927.928 218.474 -972.14 205.211 -992.081 209.448C-1016.71 214.236 -1048.02 256.832 -1052.31 265.857C-1056.19 274.883 -1057.37 290.347 -1036.25 299.373C-1014.73 308.453 -977.56 332.393 -957.214 351.544C-937.636 371.246 -914.175 422.317 -882.099 442.019C-850.023 461.666 -780.369 447.302 -755.735 410.595L-755.775 410.65ZM-755.775 410.65H-755.371M-879.753 209.944C-848.912 222.686 -778.31 259.818 -743.81 287.482C-743.674 287.591 -743.6 287.752 -743.6 287.926C-743.6 288.1 -743.521 288.264 -743.386 288.374C-709.132 316.117 -698.245 372.361 -712.292 405.312C-726.369 438.277 -792.504 489.403 -819.483 494.191C-846.463 498.979 -874.252 490.999 -906.328 465.463C-938.405 439.873 -965.425 392.544 -990.059 364.312C-1014.29 336.08 -1054.62 320.671 -1078.08 302.565C-1101.58 284.459 -1086.69 261.015 -1077.31 245.605C-1066.75 228.05 -1031.16 190.792 -1002.19 182.812C-973.272 174.832 -910.252 197.176 -879.753 209.944Z" stroke="var(--stroke-0, #4E4E50)" stroke-width="0.97" stroke-miterlimit="10"/>
<path id="Vector_13" d="M-852.041 284.954C-852.032 284.954 -852.028 284.943 -852.036 284.939C-874.747 274.308 -929.07 248.244 -949.811 241.313C-970.562 234.378 -984.234 242.909 -999.888 255.126C-1015.54 267.344 -1017.89 288.146 -985.811 299.318C-961.178 307.848 -938.485 327 -922.831 350.389C-907.177 373.283 -876.274 425.454 -848.121 428.646C-811.757 432.884 -760.103 391.389 -761.276 361.065C-762.442 330.925 -828.946 296.544 -852.033 285.7C-852.259 285.594 -852.311 285.317 -852.164 285.116L-852.047 284.957C-852.046 284.955 -852.043 284.954 -852.041 284.954ZM-823.447 386.601C-823.435 386.601 -823.431 386.617 -823.441 386.624C-843.374 399.892 -866.047 377.016 -877.002 362.111C-888.328 347.197 -916.521 314.727 -929.829 303.555C-940.386 294.53 -960.328 288.641 -963.847 282.808C-968.539 274.828 -961.097 265.803 -944.674 269.49C-927.847 272.682 -881.29 304.601 -864.099 310.49C-846.908 316.378 -816.368 332.833 -803.869 344.555C-791.49 356.656 -811.29 378.742 -822.713 386.383C-822.932 386.529 -823.183 386.601 -823.447 386.601Z" stroke="var(--stroke-0, #4E4E50)" stroke-width="0.97" stroke-miterlimit="10"/>
<path id="Vector_14" d="M-1264.35 280.772C-1284.29 275.984 -1317.54 235.534 -1335.94 209.999C-1354.31 184.408 -1357.83 157.277 -1355.88 142.913C-1353.94 128.55 -1334.77 105.105 -1324.21 98.7215C-1307.79 89.1457 -1286.27 94.484 -1269.04 105.105C-1251.85 115.177 -1213.91 152.434 -1207.64 185.454C-1200.97 218.39 -1244.33 285.386 -1264.29 280.729C-1264.32 280.723 -1264.35 280.744 -1264.35 280.772ZM-1264.35 280.772H-1263.94M-1285.46 124.257C-1302.54 114.745 -1330.07 130.431 -1330.44 147.848C-1330.44 148.074 -1330.51 148.295 -1330.65 148.477C-1330.78 148.653 -1330.85 148.866 -1330.85 149.084C-1331.19 166.466 -1326.86 179.221 -1310.9 202.515C-1294.89 225.959 -1267.5 258.979 -1254.96 248.302C-1242.42 237.626 -1226 196.131 -1233.44 178.025C-1240.85 159.919 -1268.23 133.833 -1285.46 124.257Z" stroke="var(--stroke-0, #4E4E50)" stroke-width="0.97" stroke-miterlimit="10"/>
<path id="Vector_15" d="M-1254.54 213.631C-1254.55 213.631 -1254.55 213.621 -1254.55 213.614C-1246.75 199.255 -1250.64 183.798 -1258.85 172.135C-1267.06 160.468 -1284.65 147.095 -1292.5 145.499C-1300.35 143.903 -1308.56 152.434 -1308.15 161.459C-1307.75 170.485 -1303.46 179.565 -1289.75 197.671C-1276.13 215.658 -1262.54 227.345 -1255.07 213.36C-1255 213.236 -1254.82 213.214 -1254.74 213.328L-1254.53 213.613C-1254.52 213.62 -1254.53 213.631 -1254.54 213.631Z" stroke="var(--stroke-0, #4E4E50)" stroke-width="0.97" stroke-miterlimit="10"/>
<path id="Vector_16" d="M-1460.77 552.141C-1420.99 520.623 -1378.92 463.132 -1344.34 418.139C-1343.46 416.996 -1342.71 415.773 -1342.09 414.474C-1332.81 395.116 -1315.95 363.709 -1325.02 331.788C-1339.1 284.459 -1384.08 208.348 -1438.85 178.52C-1496.73 147.096 -1592.96 111.434 -1639.92 91.7322C-1693.52 69.3887 -1749.86 76.8182 -1791.32 109.288C-1829.26 139.116 -1858.99 176.924 -1891.07 238.121C-1905.15 264.152 -1923.15 292.934 -1923.15 316.874C-1922.82 325.13 -1917.6 332.022 -1911.06 338.004C-1909.76 339.196 -1908.27 340.145 -1906.68 340.918C-1874.31 356.658 -1828.59 385.439 -1786.99 422.813C-1743.19 462.217 -1688.42 535.136 -1643.8 573.989C-1599.24 612.835 -1513.95 593.644 -1460.76 552.166C-1460.75 552.158 -1460.76 552.141 -1460.77 552.141ZM-1460.77 552.141H-1460.36M-744.045 558.525C-704.263 527.006 -662.194 469.516 -627.612 424.523C-626.734 423.38 -625.99 422.157 -625.367 420.858C-616.085 401.5 -599.224 370.093 -608.296 338.172C-622.373 290.843 -667.353 214.732 -722.121 184.904C-780.005 153.48 -876.234 117.818 -923.196 98.1161C-976.791 75.7726 -1033.14 83.2021 -1074.6 115.672C-1112.54 145.5 -1142.27 183.308 -1174.35 244.505C-1188.42 270.536 -1206.42 299.318 -1206.42 323.258C-1206.09 331.514 -1200.88 338.406 -1194.34 344.388C-1193.04 345.58 -1191.55 346.529 -1189.96 347.302C-1157.59 363.042 -1111.87 391.823 -1070.27 429.197C-1026.46 468.601 -971.695 541.52 -927.079 580.373C-882.512 619.219 -797.229 600.028 -744.036 558.55C-744.026 558.542 -744.032 558.525 -744.045 558.525ZM-744.045 558.525H-743.641M-25.3793 565.459C14.4026 533.941 56.4721 476.45 91.0538 431.457C91.9319 430.315 92.6761 429.091 93.2991 427.792C102.581 408.434 119.441 377.027 110.369 345.106C96.2928 297.777 51.3129 221.666 -3.45571 191.838C-61.3389 160.414 -157.568 124.752 -204.53 105.05C-258.126 82.7068 -314.472 90.1362 -355.932 122.606C-393.874 152.434 -423.604 190.242 -455.681 251.439C-469.757 277.47 -488.162 306.252 -487.757 330.192C-487.426 338.448 -482.213 345.34 -475.674 351.322C-474.371 352.514 -472.88 353.463 -471.291 354.236C-438.923 369.976 -393.203 398.757 -351.604 436.131C-307.797 475.535 -253.029 548.454 -208.413 587.307C-163.847 626.153 -78.5638 606.962 -25.3706 565.484C-25.3602 565.476 -25.3661 565.459 -25.3793 565.459ZM-25.3793 565.459H-24.9749M691.345 571.843C731.127 540.324 773.196 482.834 807.778 437.841C808.656 436.698 809.4 435.475 810.023 434.176C819.305 414.818 836.165 383.411 827.093 351.49C813.017 304.161 768.037 228.05 713.268 198.222C655.385 166.798 559.156 131.136 512.194 111.434C458.599 89.0906 402.253 96.5201 360.792 128.99C322.85 158.818 293.12 196.626 261.043 257.823C246.967 283.854 228.563 312.636 228.967 336.576C229.298 344.832 234.512 351.724 241.05 357.705C242.354 358.898 243.845 359.847 245.433 360.62C277.801 376.36 323.521 405.141 365.12 442.515C408.927 481.919 463.695 554.838 508.311 593.691C552.878 632.537 638.161 613.346 691.354 571.868C691.364 571.86 691.358 571.843 691.345 571.843ZM691.345 571.843H691.749M874.46 342.464C875.987 347.099 877.23 351.114 878.106 354.749C879.231 359.416 884.758 362.477 889.154 360.546C907.499 352.489 922.895 352.388 932.937 357.272C932.972 357.289 933.002 357.242 932.973 357.216C932.951 357.196 932.965 357.158 932.996 357.158H933.314C932.609 357.158 932.303 358.188 932.876 358.599C951.653 372.036 982.269 432.998 937.601 413.567C891.044 393.37 828.833 447.083 794.815 501.4C761.161 555.168 673.143 648.835 595.278 664.794C517.412 680.754 460.298 601.946 404.356 539.153C341.541 468.919 274.608 430.17 232.216 411.189C230.904 410.602 229.544 410.201 228.164 409.8C226.096 409.2 223.902 408.317 221.282 407.128C174.724 386.931 112.513 440.644 78.4949 494.961C44.8409 548.729 -43.1772 642.396 -121.042 658.355C-198.908 674.315 -256.022 595.507 -311.964 532.714C-376.098 461.268 -444.017 422.488 -486.023 404.088C-487.109 403.612 -488.219 403.26 -489.362 402.945C-491.547 402.343 -494.284 401.435 -497.02 400.194C-543.577 379.997 -605.789 433.709 -639.807 488.027C-673.461 541.795 -761.479 635.462 -839.344 651.421C-917.209 667.381 -974.324 588.573 -1030.27 525.78C-1093.08 455.546 -1160.01 416.797 -1202.41 397.816C-1203.72 397.229 -1205.08 396.828 -1206.46 396.427C-1208.53 395.827 -1210.72 394.943 -1213.34 393.755C-1259.9 373.558 -1322.11 427.271 -1356.13 481.588C-1389.78 535.356 -1477.8 629.023 -1555.66 644.982C-1633.53 660.942 -1690.64 582.134 -1746.59 519.341C-1832.62 422.978 -1926.54 385.72 -1953.52 377.741C-1956.16 376.969 -1958.35 375.953 -1960.21 374.687C-1964.01 372.113 -1967.68 369.149 -1972.09 367.895C-1983.45 364.663 -1993.59 361.084 -2000.45 357.543C-2026.66 343.73 -2023.91 323.478 -2036.04 288.366C-2047.77 253.2 -2003.97 312.306 -1980.1 312.306C-1956.23 312.306 -1936.29 274.553 -1918.29 239.937C-1900.29 205.376 -1857.25 108.462 -1797.79 78.139C-1704.68 30.7553 -1627.58 55.7955 -1555.22 89.8611C-1526.4 103.303 -1492.8 116.228 -1462.25 129.588C-1460.33 130.428 -1458.29 130.987 -1456.2 131.129C-1441.39 132.135 -1425.48 129.584 -1416.72 118.643C-1398.72 96.7952 -1381.12 66.472 -1367.41 53.1539C-1343.91 30.8104 -1316.53 30.26 -1289.55 34.0022C-1262.53 37.6895 -1224.58 60.5834 -1199.55 93.6034C-1190.16 105.876 -1177.66 134.053 -1166.7 147.371C-1156.5 159.76 -1145.29 143.575 -1138.11 136.561C-1137.11 135.587 -1136.13 134.602 -1135.26 133.514C-1118.79 112.925 -1100.79 94.4301 -1080.22 84.0826C-987.106 36.6989 -910.009 61.739 -837.645 95.8047C-772.683 126.678 -684.261 152.764 -659.627 192.168C-644.742 216.658 -618.935 262.941 -597.416 286.385C-588.031 297.062 -580.184 303.996 -574.724 309.829C-564.53 318.36 -568.454 325.789 -544.589 325.789C-520.723 325.789 -500.782 287.981 -482.782 253.42C-464.782 218.859 -421.744 121.946 -362.283 91.6222C-269.168 44.2385 -192.071 69.2786 -119.707 103.344C-90.8912 116.786 -57.287 129.711 -26.74 143.071C-24.8186 143.912 -22.781 144.47 -20.6887 144.612C-5.87882 145.618 10.0328 143.067 18.7915 132.127C36.7916 110.278 54.387 79.9551 68.0994 66.6371C91.196 44.2935 118.985 43.7431 145.964 47.4854C172.985 51.1726 210.926 74.0666 235.965 107.087C245.349 119.359 257.848 147.536 268.81 160.854C279.007 173.243 290.219 157.058 297.4 150.044C298.396 149.07 299.38 148.085 300.25 146.997C316.723 126.409 334.721 107.913 355.291 97.5658C448.405 50.1821 525.502 75.2223 597.866 109.288C662.828 140.162 751.251 166.247 775.885 205.651C790.77 230.141 816.577 276.424 838.096 299.868C859.575 323.808 869.768 329.146 874.46 342.464ZM128.41 75.7726C96.3429 69.8858 83.4378 88.5291 60.3543 127.359C60.3452 127.374 60.3559 127.394 60.3737 127.394C60.5511 127.394 60.6585 127.591 60.5674 127.743C44.0466 155.348 55.3551 187.635 64.2972 208.843C79.1421 234.379 102.239 273.232 121.007 293.98C131.969 306.197 140.181 313.682 146.046 319.515C155.066 327 148.796 332.833 172.661 332.833C196.527 332.833 216.468 295.08 234.468 260.464C237.987 254.081 242.275 245.55 246.967 235.975C267.677 179.565 222.697 131.631 206.275 114.076C189.812 96.0248 160.082 81.1108 128.41 75.7726ZM-1306.98 61.9592C-1339.05 56.0724 -1351.95 74.7157 -1375.04 113.545C-1375.04 113.561 -1375.03 113.58 -1375.02 113.58C-1374.84 113.58 -1374.73 113.778 -1374.82 113.93C-1391.34 141.535 -1380.03 173.821 -1371.09 195.03C-1356.25 220.565 -1333.15 259.419 -1314.38 280.166C-1303.42 292.384 -1295.21 299.868 -1289.34 305.702C-1280.32 313.186 -1286.59 319.02 -1262.73 319.02C-1238.86 319.02 -1218.92 281.267 -1200.92 246.651C-1197.4 240.267 -1193.12 231.737 -1188.42 222.161C-1167.71 165.752 -1212.69 117.818 -1229.12 100.262C-1245.58 82.2114 -1275.31 67.2974 -1306.98 61.9592Z" stroke="var(--stroke-0, #4E4E50)" stroke-width="0.97" stroke-miterlimit="10"/>
<path id="Vector_17" d="M170.68 294.089C150.738 289.301 117.489 248.852 99.0841 223.316C80.7201 197.726 77.201 170.594 79.1426 156.231C81.0842 141.867 100.257 118.423 110.814 112.039C127.237 102.463 148.756 107.801 165.988 118.423C183.179 128.494 221.12 165.752 227.39 198.772C234.058 231.708 190.698 298.704 170.732 294.047C170.705 294.04 170.68 294.061 170.68 294.089ZM170.68 294.089H171.084M149.525 137.519C132.447 128.007 104.912 143.693 104.548 161.11C104.544 161.336 104.472 161.557 104.339 161.74C104.21 161.915 104.137 162.128 104.133 162.346C103.791 179.729 108.126 192.483 124.082 215.777C140.1 239.221 167.484 272.241 180.024 261.564C192.563 250.888 208.985 209.393 201.543 191.287C194.14 173.181 166.716 147.095 149.525 137.519Z" stroke="var(--stroke-0, #4E4E50)" stroke-width="0.97" stroke-miterlimit="10"/>
<path id="Vector_18" d="M180.85 226.949C180.842 226.949 180.837 226.94 180.841 226.932C188.636 212.573 184.752 197.116 176.544 185.454C168.333 173.787 150.737 160.413 142.89 158.818C135.043 157.222 126.832 165.752 127.236 174.777C127.236 183.803 131.929 192.883 145.641 210.989C159.263 228.976 172.846 240.663 180.321 226.679C180.387 226.554 180.566 226.532 180.65 226.646L180.859 226.931C180.865 226.939 180.86 226.949 180.85 226.949Z" stroke="var(--stroke-0, #4E4E50)" stroke-width="0.97" stroke-miterlimit="10"/>
<path id="Vector_19" d="M-555.833 77.9731C-538.642 88.0442 -500.701 125.302 -494.431 158.322C-487.757 191.287 -531.2 258.372 -551.141 253.585C-571.083 248.797 -604.332 208.347 -622.737 182.812C-641.101 157.221 -644.62 130.09 -642.678 115.726C-640.737 101.362 -621.564 77.9181 -611.006 71.5342C-594.599 61.9671 -573.104 67.2871 -555.88 77.8893C-555.851 77.9072 -555.833 77.939 -555.833 77.9731ZM-555.833 77.9731H-555.429M-597.294 175.327C-581.39 198.604 -554.242 231.267 -541.622 221.335C-541.585 221.306 -541.526 221.351 -541.554 221.389C-541.582 221.427 -541.542 221.48 -541.507 221.448C-529.001 210.439 -512.844 169.373 -520.238 151.388C-527.64 133.282 -555.065 107.196 -572.256 97.6201C-589.447 88.0443 -617.236 104.004 -617.236 121.56C-617.64 139.115 -613.312 151.883 -597.294 175.327Z" stroke="var(--stroke-0, #4E4E50)" stroke-width="0.97" stroke-miterlimit="10"/>
<path id="Vector_20" d="M-578.928 118.918C-578.93 118.918 -578.931 118.918 -578.932 118.918C-586.738 117.324 -594.989 125.853 -594.584 134.878C-594.584 143.903 -589.892 152.984 -576.18 171.09C-562.467 189.196 -548.795 200.918 -541.353 186.499C-533.546 172.136 -537.429 156.671 -545.64 145.004C-553.725 133.517 -570.907 120.376 -578.924 118.45C-579.057 118.418 -579.146 118.57 -579.065 118.68L-578.913 118.887C-578.903 118.9 -578.912 118.918 -578.928 118.918Z" stroke="var(--stroke-0, #4E4E50)" stroke-width="0.97" stroke-miterlimit="10"/>
<path id="Vector_21" d="M17.3362 249.843C17.3102 249.843 17.2874 249.835 17.2684 249.817C-23.4862 211.501 -224.481 124.751 -271.797 121.56C-319.123 118.368 -385.621 177.969 -409.487 216.823C-432.947 255.676 -456.813 309.444 -431.006 329.641C-431.006 329.641 -345.334 379.116 -314.43 415.878C-283.932 452.09 -228.354 530.293 -186.893 554.287C-145.433 577.731 -78.9335 576.135 -40.9515 543.666C-3.00985 511.196 54.5093 452.09 65.4711 416.979C75.5997 381.951 58.5145 288.593 18.0312 250.118C17.8429 249.939 17.5959 249.843 17.3362 249.843ZM43.9115 391.443C42.3339 431.343 -25.7426 493.64 -87.9135 521.322C-149.72 549.004 -203.316 505.913 -222.893 480.873C-244.817 452.641 -290.565 402.12 -312.893 379.226C-335.585 356.332 -378.219 333.438 -400.143 318.029C-422.066 303.115 -413.046 277.029 -403.662 262.665C-394.278 248.302 -360.219 200.368 -331.662 182.317C-303.873 164.211 -266.336 145.059 -229.163 160.468C-191.99 175.383 -43.7426 240.322 -12.7988 260.519C18.0555 280.19 46.168 351.318 44.3249 391.801C44.3199 391.911 44.229 391.994 44.1185 391.994C44.0042 391.994 43.9115 391.901 43.9115 391.787V391.443Z" stroke="var(--stroke-0, #4E4E50)" stroke-width="0.97" stroke-miterlimit="10"/>
<path id="Vector_22" d="M-37.5139 418.08C-12.8802 381.868 -19.5138 340.868 -45.7251 315.332C-71.9363 289.247 -146.283 254.135 -177.955 239.772C-209.667 225.903 -253.878 212.64 -273.82 216.878C-298.453 221.666 -329.761 264.261 -334.049 273.287C-337.932 282.312 -339.105 297.777 -317.991 306.802C-296.471 315.883 -259.298 339.822 -238.952 358.974C-219.375 378.676 -195.914 429.747 -163.838 449.449C-131.761 469.096 -62.1072 454.732 -37.4735 418.025L-37.5139 418.08ZM-37.5139 418.08H-37.1095M-161.492 216.823C-130.651 229.565 -60.0483 266.697 -25.5485 294.361C-25.4128 294.47 -25.3386 294.631 -25.3386 294.805C-25.3386 294.979 -25.2597 295.144 -25.1244 295.253C9.12932 322.996 20.0164 379.24 5.96925 412.191C-8.10717 445.156 -74.2421 496.282 -101.222 501.07C-128.202 505.858 -155.99 497.878 -188.067 472.343C-220.143 446.752 -247.164 399.423 -271.797 371.191C-296.026 342.959 -336.719 327.55 -359.815 309.444C-383.317 291.338 -368.431 267.894 -359.047 252.484C-348.489 234.929 -312.853 197.671 -283.932 189.691C-255.011 181.711 -191.991 204.055 -161.492 216.823Z" stroke="var(--stroke-0, #4E4E50)" stroke-width="0.97" stroke-miterlimit="10"/>
<path id="Vector_23" d="M-133.335 291.889C-133.326 291.889 -133.322 291.878 -133.33 291.874C-156.041 281.243 -210.364 255.179 -231.105 248.248C-251.856 241.313 -265.528 249.844 -281.182 262.061C-296.836 274.278 -299.182 295.081 -267.105 306.253C-242.472 314.783 -219.78 333.935 -204.126 357.324C-188.472 380.218 -157.568 432.389 -129.415 435.581C-93.0512 439.819 -41.3973 398.324 -42.5703 368C-43.7363 337.86 -110.24 303.479 -133.327 292.635C-133.553 292.528 -133.606 292.252 -133.458 292.051L-133.341 291.892C-133.34 291.89 -133.337 291.889 -133.335 291.889ZM-105.591 393.536C-105.579 393.536 -105.575 393.552 -105.585 393.559C-125.518 406.827 -148.19 383.951 -159.146 369.046C-170.472 354.132 -198.665 321.662 -211.973 310.49C-222.53 301.465 -242.472 295.576 -245.991 289.743C-250.683 281.763 -243.24 272.737 -226.818 276.425C-209.991 279.617 -163.433 311.536 -146.242 317.425C-129.051 323.313 -98.5119 339.768 -86.0131 351.49C-73.6341 363.59 -93.4331 385.677 -104.856 393.318C-105.076 393.464 -105.327 393.536 -105.591 393.536Z" stroke="var(--stroke-0, #4E4E50)" stroke-width="0.97" stroke-miterlimit="10"/>
<path id="Vector_24" d="M-701.33 242.908C-701.356 242.908 -701.379 242.9 -701.398 242.883C-742.153 204.566 -943.148 117.817 -990.463 114.626C-1037.79 111.434 -1104.29 171.035 -1128.15 209.888C-1151.61 248.742 -1175.48 302.509 -1149.67 322.707C-1149.67 322.707 -1064 372.182 -1033.1 408.944C-1002.6 445.156 -947.02 523.358 -905.56 547.353C-864.099 570.797 -797.6 569.201 -759.618 536.731C-721.676 504.262 -664.157 445.156 -653.195 410.045C-643.067 375.017 -660.152 281.658 -700.635 243.183C-700.823 243.004 -701.071 242.908 -701.33 242.908ZM-674.391 384.509C-675.969 424.408 -744.045 486.706 -806.216 514.388C-868.023 542.069 -921.618 498.978 -941.196 473.938C-963.119 445.706 -1008.87 395.186 -1031.2 372.292C-1053.89 349.398 -1096.52 326.504 -1118.45 311.095C-1140.37 296.18 -1131.35 270.095 -1121.96 255.731C-1112.58 241.367 -1078.52 193.433 -1049.96 175.382C-1022.18 157.277 -984.638 138.125 -947.465 153.534C-910.292 168.448 -762.045 233.388 -731.101 253.585C-700.247 273.255 -672.134 344.383 -673.977 384.866C-673.982 384.977 -674.073 385.059 -674.184 385.059C-674.298 385.059 -674.391 384.967 -674.391 384.852V384.509Z" fill="var(--fill-0, white)"/>
<path id="Vector_25" d="M-743.6 287.926C-743.6 287.752 -743.674 287.591 -743.81 287.482C-778.31 259.818 -848.912 222.686 -879.753 209.944C-910.252 197.176 -973.272 174.832 -1002.19 182.812C-1031.16 190.792 -1066.75 228.05 -1077.31 245.605C-1086.69 261.015 -1101.58 284.459 -1078.08 302.565C-1054.62 320.671 -1014.29 336.08 -990.059 364.312C-965.425 392.544 -938.405 439.873 -906.328 465.463C-874.252 490.999 -846.463 498.979 -819.483 494.191C-792.504 489.403 -726.369 438.277 -712.292 405.312C-698.245 372.361 -709.132 316.117 -743.386 288.374C-743.521 288.264 -743.6 288.1 -743.6 287.926ZM-755.735 410.595C-780.369 447.302 -850.023 461.666 -882.099 442.019C-914.175 422.317 -937.636 371.246 -957.214 351.544C-977.56 332.393 -1014.73 308.453 -1036.25 299.373C-1057.37 290.347 -1056.19 274.883 -1052.31 265.857C-1048.02 256.832 -1016.71 214.236 -992.081 209.448C-972.14 205.211 -927.928 218.474 -896.216 232.342C-864.544 246.706 -790.198 281.817 -763.987 307.903C-737.775 333.438 -731.142 374.438 -755.775 410.65L-755.735 410.595Z" fill="var(--fill-0, white)"/>
<path id="Vector_26" d="M-1254.54 213.631C-1254.55 213.631 -1254.55 213.621 -1254.55 213.614C-1246.75 199.255 -1250.64 183.798 -1258.85 172.135C-1267.06 160.468 -1284.65 147.095 -1292.5 145.499C-1300.35 143.903 -1308.56 152.434 -1308.15 161.459C-1307.75 170.485 -1303.46 179.565 -1289.75 197.671C-1276.13 215.658 -1262.54 227.345 -1255.07 213.36C-1255 213.236 -1254.82 213.214 -1254.74 213.328L-1254.53 213.613C-1254.52 213.62 -1254.53 213.631 -1254.54 213.631Z" fill="var(--fill-0, white)"/>
<path id="Vector_27" d="M180.85 226.949C180.842 226.949 180.837 226.94 180.841 226.932C188.636 212.573 184.752 197.116 176.544 185.454C168.333 173.787 150.737 160.413 142.89 158.818C135.043 157.222 126.832 165.752 127.236 174.777C127.236 183.803 131.929 192.883 145.641 210.989C159.263 228.976 172.846 240.663 180.321 226.679C180.387 226.554 180.566 226.532 180.65 226.646L180.859 226.931C180.865 226.939 180.86 226.949 180.85 226.949Z" fill="var(--fill-0, #F3F3F3)"/>
<path id="Vector_28" d="M-555.833 77.9731C-555.833 77.939 -555.851 77.9072 -555.88 77.8893C-573.104 67.2871 -594.599 61.9671 -611.006 71.5342C-621.564 77.9181 -640.737 101.362 -642.678 115.726C-644.62 130.09 -641.101 157.221 -622.737 182.812C-604.332 208.347 -571.083 248.797 -551.141 253.585C-531.2 258.372 -487.757 191.287 -494.431 158.322C-500.701 125.302 -538.642 88.0442 -555.833 77.9731ZM-541.554 221.389C-541.526 221.351 -541.585 221.306 -541.622 221.335C-554.242 231.267 -581.39 198.604 -597.294 175.327C-613.312 151.883 -617.64 139.115 -617.236 121.56C-617.236 104.004 -589.447 88.0443 -572.256 97.6201C-555.065 107.196 -527.64 133.282 -520.238 151.388C-512.844 169.373 -529.001 210.439 -541.507 221.448C-541.542 221.48 -541.582 221.427 -541.554 221.389Z" fill="var(--fill-0, white)"/>
<path id="Vector_29" d="M-25.3386 294.805C-25.3386 294.631 -25.4128 294.47 -25.5485 294.361C-60.0483 266.697 -130.651 229.565 -161.492 216.823C-191.991 204.055 -255.011 181.711 -283.932 189.691C-312.853 197.671 -348.489 234.929 -359.047 252.484C-368.431 267.894 -383.317 291.338 -359.815 309.444C-336.719 327.55 -296.026 342.959 -271.797 371.191C-247.164 399.423 -220.143 446.752 -188.067 472.343C-155.99 497.878 -128.202 505.858 -101.222 501.07C-74.2421 496.282 -8.10717 445.156 5.96925 412.191C20.0164 379.24 9.12932 322.996 -25.1244 295.253C-25.2597 295.144 -25.3386 294.979 -25.3386 294.805ZM-37.4735 418.025C-62.1072 454.732 -131.761 469.096 -163.838 449.449C-195.914 429.747 -219.375 378.676 -238.952 358.974C-259.298 339.822 -296.471 315.883 -317.991 306.802C-339.105 297.777 -337.932 282.312 -334.049 273.287C-329.761 264.261 -298.453 221.666 -273.82 216.878C-253.878 212.64 -209.667 225.903 -177.955 239.772C-146.283 254.135 -71.9363 289.247 -45.7251 315.332C-19.5138 340.868 -12.8802 381.868 -37.5139 418.08L-37.4735 418.025Z" fill="var(--fill-0, #ECECEC)"/>
<path id="Vector_30" d="M-1729.57 1.59742C-1729.51 1.72129 -1729.39 1.79402 -1729.25 1.77362C-1704.9 -1.93771 -1654.22 -2.38536 -1608.21 12.4288C-1574.19 23.6006 -1536.21 47.5401 -1507.65 63.0045C-1479.09 78.9641 -1447.02 98.666 -1428.61 90.1359C-1410.21 81.6057 -1370.73 7.64093 -1344.11 0.156392C-1317.13 -7.27311 -1230.65 10.2826 -1197.81 51.7777C-1164.96 93.2728 -1153.19 109.287 -1138.35 96.4647C-1123.46 83.6969 -1068.33 32.0758 -1047.98 24.5912C-1027.64 17.1067 -1015.5 7.03556 -994.791 7.03556C-991.855 7.03556 -989.354 6.68561 -987.242 6.09309C-983.208 4.96152 -979.238 3.1832 -975.049 3.11797C-949.017 2.71262 -914.608 5.76236 -882.503 16.061C-848.485 27.2328 -810.503 51.1723 -781.946 66.6367C-753.389 82.5964 -721.312 102.298 -702.908 93.7681C-684.503 85.2379 -645.024 11.2731 -618.409 3.78861C-591.429 -3.64089 -504.948 13.9147 -472.103 55.4098C-439.258 96.905 -427.487 112.92 -412.642 100.097C-397.757 87.3292 -342.624 35.7079 -322.278 28.2234C-308.843 23.1285 -299.314 17.0811 -288.275 13.7654C-287.219 13.4483 -286.144 13.2527 -285.046 13.1517C-258.596 10.7158 -213.832 11.9864 -173.222 25.0315C-139.204 36.2033 -101.222 60.1427 -72.6642 75.6071C-44.1069 91.5667 -12.0305 111.269 6.37401 102.739C24.7785 94.2084 64.2573 20.2435 90.873 12.759C117.853 5.32949 204.334 22.8852 237.179 64.3803C270.024 105.875 281.795 121.89 296.64 109.067C311.525 96.2996 366.658 44.6784 387.004 37.1938C407.35 29.7093 419.485 19.6382 440.195 19.6382C462.482 19.6382 462.887 0.486575 433.561 -6.99796C404.235 -14.4825 371.754 13.7497 343.197 36.6435C314.64 58.9871 293.889 97.3453 272.37 74.4514C244.581 45.1737 235.197 31.8556 213.678 18.0422C186.698 1.03693 121.332 -18.1697 89.2552 -14.9778C57.1788 -11.7858 23.1203 60.0877 1.23709 68.5628C-20.6865 77.093 -58.6283 49.9066 -89.9362 31.3053C-123.186 12.1537 -176.013 -9.69462 -210.031 -18.7201C-235.473 -25.6543 -271.837 -22.9577 -295.703 -16.5738C-319.568 -11.7859 -344.202 9.51206 -366.53 27.0677C-395.087 49.4112 -415.838 87.7695 -437.357 64.8756C-465.146 35.5978 -474.53 22.2798 -496.049 8.4664C-523.029 -8.5389 -588.395 -27.7455 -620.471 -24.5536C-652.548 -21.3617 -686.606 50.5119 -708.49 58.9871C-730.413 67.5172 -768.355 40.3307 -799.663 21.7295C-832.912 2.57785 -885.739 -19.2704 -919.757 -28.2958C-949.035 -35.9563 -993.113 -31.3434 -1015.63 -22.4905C-1017.45 -21.7773 -1019.32 -21.2619 -1021.23 -20.9082C-1045.39 -16.4517 -1070.49 4.89334 -1093.04 22.8301C-1121.6 45.1736 -1142.35 83.5319 -1163.87 60.6381C-1191.66 31.3603 -1201.04 18.0423 -1222.56 4.22889C-1249.54 -12.7764 -1314.91 -31.9831 -1346.98 -28.7911C-1379.06 -25.5992 -1413.12 46.2743 -1435 54.7495C-1456.93 63.2796 -1494.87 36.0931 -1526.18 17.4919C-1559.43 -1.65974 -1612.25 -23.508 -1646.27 -32.5334C-1676.34 -40.5117 -1722.03 -35.632 -1743.85 -26.2953C-1748.72 -24.2114 -1751.88 -19.4274 -1751.3 -14.1622C-1750.52 -7.1515 -1746.87 1.57315 -1733.18 0.149342C-1732.14 0.0413337 -1731.08 0.315004 -1730.27 0.977722L-1729.65 1.48698C-1729.62 1.51673 -1729.59 1.55455 -1729.57 1.59742Z" stroke="var(--stroke-0, #4E4E50)" stroke-width="0.97" stroke-miterlimit="10"/>
</g>
</g>
</g>
</g>
</svg>
