<svg preserveAspectRatio="none" width="100%" height="100%" overflow="visible" style="display: block;" viewBox="0 0 578 568.485" fill="none" xmlns="http://www.w3.org/2000/svg">
<g id="Mask group">
<mask id="mask0_0_115" style="mask-type:alpha" maskUnits="userSpaceOnUse" x="100" y="74" width="378" height="391">
<path id="Rectangle 5" opacity="0.85" d="M100 94.4849C100 83.4392 108.954 74.4849 120 74.4849H458C469.046 74.4849 478 83.4392 478 94.4849V444.485C478 455.531 469.046 464.485 458 464.485H120C108.954 464.485 100 455.531 100 444.485V94.4849Z" fill="var(--fill-0, white)" fill-opacity="0.5"/>
</mask>
<g mask="url(#mask0_0_115)">
<g id="Group 1">
<path id="Vector" d="M1523.06 276.647C1523.03 276.647 1523.01 276.64 1522.99 276.622C1482.24 239.111 1281.24 154.187 1233.93 151.062C1186.6 147.938 1120.1 206.285 1096.24 244.322C1072.78 282.358 1048.91 334.995 1074.72 354.767C1074.72 354.767 1160.39 403.202 1191.29 439.191C1221.79 474.641 1277.37 551.198 1318.83 574.688C1360.29 597.639 1426.79 596.077 1464.77 564.29C1502.75 532.504 1560.23 474.641 1571.2 440.268C1581.32 405.978 1564.24 314.587 1523.76 276.919C1523.57 276.742 1523.32 276.647 1523.06 276.647ZM1549.64 415.27C1548.06 454.33 1479.98 515.317 1417.81 542.417C1356 569.516 1302.41 527.332 1282.83 502.818C1260.91 475.18 1215.16 425.722 1192.83 403.309C1170.14 380.897 1127.5 358.485 1105.58 343.399C1083.66 328.799 1092.68 303.262 1102.06 289.2C1111.45 275.139 1145.5 228.213 1174.06 210.541C1201.85 192.816 1239.39 174.068 1276.56 189.153C1313.73 203.753 1461.98 267.327 1492.93 287.099C1523.78 306.355 1551.89 375.983 1550.05 415.616C1550.04 415.726 1549.95 415.809 1549.84 415.809C1549.73 415.809 1549.64 415.716 1549.64 415.601V415.27Z" stroke="var(--stroke-0, #4E4E50)" stroke-width="0.97" stroke-miterlimit="10"/>
<path id="Vector_2" d="M1473.43 441.399C1498.06 405.949 1491.43 365.812 1465.22 340.813C1439.01 315.276 1364.66 280.903 1332.99 266.842C1301.27 253.265 1257.06 240.281 1237.12 244.429C1212.49 249.117 1181.18 290.816 1176.89 299.652C1173.01 308.488 1171.84 323.627 1192.95 332.462C1214.47 341.352 1251.64 364.788 1271.99 383.537C1291.57 402.824 1315.03 452.821 1347.1 472.109C1379.18 491.342 1448.83 477.281 1473.47 441.346L1473.43 441.399ZM1473.43 441.399H1473.83M1349.81 244.914C1380.66 257.388 1451.26 293.741 1485.76 320.824C1485.89 320.929 1485.97 321.086 1485.97 321.256C1485.97 321.426 1486.05 321.587 1486.18 321.693C1520.43 348.852 1531.32 403.914 1517.27 436.173C1503.2 468.445 1437.06 518.496 1410.08 523.183C1383.1 527.87 1355.31 520.058 1323.24 495.06C1291.16 470.007 1264.14 423.674 1239.51 396.036C1215.28 368.398 1174.99 353.312 1151.49 335.587C1127.99 317.862 1142.87 294.911 1152.26 279.826C1162.82 262.639 1198.45 226.165 1227.37 218.353C1256.29 210.541 1319.31 232.415 1349.81 244.914Z" stroke="var(--stroke-0, #4E4E50)" stroke-width="0.97" stroke-miterlimit="10"/>
<path id="Vector_3" d="M1361.71 314.953C1361.71 314.788 1361.62 314.642 1361.47 314.571C1339.82 304.102 1288.87 278.724 1269.36 271.96C1249.78 265.172 1236.88 273.522 1222.03 285.483C1207.19 297.443 1204.8 317.808 1235.34 328.745C1258.44 337.096 1279.96 355.845 1294.8 378.742C1309.28 401.154 1338.61 452.229 1365.63 455.353C1400.05 459.502 1448.96 418.879 1447.78 389.194C1446.61 359.613 1383.67 325.86 1361.94 315.334C1361.79 315.262 1361.71 315.118 1361.71 314.953ZM1388.12 414.246C1388.18 414.246 1388.21 414.327 1388.16 414.361C1369.43 427.151 1348 404.829 1337.48 390.271C1326.92 375.671 1299.94 343.884 1287.4 332.947C1277.25 324.112 1258.44 318.347 1255.32 312.636C1251.04 304.824 1257.67 295.989 1273.73 299.598C1289.79 302.723 1333.59 333.971 1349.61 339.736C1365.67 345.447 1394.59 361.609 1406.32 373.085C1417.99 384.985 1399.07 406.752 1388.08 414.135C1388.03 414.169 1388.06 414.246 1388.12 414.246Z" stroke="var(--stroke-0, #4E4E50)" stroke-width="0.97" stroke-miterlimit="10"/>
<path id="Vector_4" d="M1523.06 276.647C1523.03 276.647 1523.01 276.64 1522.99 276.622C1482.24 239.111 1281.24 154.187 1233.93 151.062C1186.6 147.938 1120.1 206.285 1096.24 244.322C1072.78 282.358 1048.91 334.995 1074.72 354.767C1074.72 354.767 1160.39 403.202 1191.29 439.191C1221.79 474.641 1277.37 551.198 1318.83 574.688C1360.29 597.639 1426.79 596.077 1464.77 564.29C1502.75 532.504 1560.23 474.641 1571.2 440.268C1581.32 405.978 1564.24 314.587 1523.76 276.919C1523.57 276.742 1523.32 276.647 1523.06 276.647ZM1549.64 415.27C1548.06 454.33 1479.98 515.317 1417.81 542.417C1356 569.516 1302.41 527.332 1282.83 502.818C1260.91 475.18 1215.16 425.722 1192.83 403.309C1170.14 380.897 1127.5 358.485 1105.58 343.399C1083.66 328.799 1092.68 303.262 1102.06 289.2C1111.45 275.139 1145.5 228.213 1174.06 210.541C1201.85 192.816 1239.39 174.068 1276.56 189.153C1313.73 203.753 1461.98 267.327 1492.93 287.099C1523.78 306.355 1551.89 375.983 1550.05 415.616C1550.04 415.726 1549.95 415.809 1549.84 415.809C1549.73 415.809 1549.64 415.716 1549.64 415.601V415.27Z" fill="var(--fill-0, white)"/>
<path id="Vector_5" d="M1361.71 314.953C1361.71 314.788 1361.62 314.642 1361.47 314.571C1339.82 304.102 1288.87 278.724 1269.36 271.96C1249.78 265.172 1236.88 273.522 1222.03 285.483C1207.19 297.443 1204.8 317.808 1235.34 328.745C1258.44 337.096 1279.96 355.845 1294.8 378.742C1309.28 401.154 1338.61 452.229 1365.63 455.353C1400.05 459.502 1448.96 418.879 1447.78 389.194C1446.61 359.613 1383.67 325.86 1361.94 315.334C1361.79 315.262 1361.71 315.118 1361.71 314.953ZM1388.12 414.246C1388.18 414.246 1388.21 414.327 1388.16 414.361C1369.43 427.151 1348 404.829 1337.48 390.271C1326.92 375.671 1299.94 343.884 1287.4 332.947C1277.25 324.112 1258.44 318.347 1255.32 312.636C1251.04 304.824 1257.67 295.989 1273.73 299.598C1289.79 302.723 1333.59 333.971 1349.61 339.736C1365.67 345.447 1394.59 361.609 1406.32 373.085C1417.99 384.985 1399.07 406.752 1388.08 414.135C1388.03 414.169 1388.06 414.246 1388.12 414.246Z" fill="var(--fill-0, #F3F3F3)"/>
<path id="Vector_6" d="M-635.324 276.647C-635.35 276.647 -635.373 276.64 -635.392 276.622C-676.147 239.111 -877.142 154.187 -924.457 151.062C-971.783 147.938 -1038.28 206.285 -1062.15 244.322C-1085.61 282.358 -1109.47 334.995 -1083.67 354.767C-1083.67 354.767 -997.994 403.202 -967.091 439.191C-936.592 474.641 -881.014 551.198 -839.554 574.688C-798.093 597.639 -731.594 596.077 -693.612 564.29C-655.67 532.504 -598.151 474.641 -587.189 440.268C-577.061 405.978 -594.145 314.587 -634.626 276.919C-634.816 276.742 -635.064 276.647 -635.324 276.647ZM-608.789 415.27C-610.367 454.33 -678.443 515.317 -740.614 542.417C-802.421 569.516 -856.017 527.332 -875.594 502.818C-897.518 475.18 -943.266 425.722 -965.594 403.309C-988.286 380.897 -1030.92 358.485 -1052.84 343.399C-1074.77 328.799 -1065.75 303.262 -1056.36 289.2C-1046.98 275.139 -1012.92 228.213 -984.363 210.541C-956.574 192.816 -919.037 174.068 -881.864 189.153C-844.691 203.753 -696.443 267.327 -665.5 287.099C-634.646 306.355 -606.535 375.983 -608.376 415.616C-608.381 415.726 -608.472 415.809 -608.582 415.809C-608.697 415.809 -608.789 415.716 -608.789 415.601V415.27Z" stroke="var(--stroke-0, #4E4E50)" stroke-width="0.97" stroke-miterlimit="10"/>
<path id="Vector_7" d="M-684.996 441.399C-660.363 405.949 -666.996 365.812 -693.208 340.813C-719.419 315.276 -793.765 280.903 -825.437 266.842C-857.149 253.265 -901.361 240.281 -921.302 244.429C-945.936 249.117 -977.244 290.816 -981.531 299.652C-985.415 308.488 -986.588 323.627 -965.473 332.462C-943.954 341.352 -906.781 364.788 -886.435 383.537C-866.857 402.824 -843.396 452.875 -811.32 472.109C-779.244 491.342 -709.59 477.281 -684.956 441.346L-684.996 441.399ZM-684.996 441.399H-684.592M-808.569 244.914C-777.728 257.388 -707.122 293.741 -672.624 320.824C-672.49 320.929 -672.417 321.086 -672.417 321.256C-672.417 321.426 -672.338 321.587 -672.205 321.693C-637.949 348.852 -627.061 403.914 -641.109 436.173C-655.185 468.445 -721.32 518.496 -748.3 523.183C-775.28 527.87 -803.068 520.058 -835.145 495.06C-867.221 470.007 -894.241 423.674 -918.875 396.036C-943.104 368.398 -983.392 353.312 -1006.89 335.587C-1030.39 317.862 -1015.51 294.911 -1006.12 279.826C-995.567 262.639 -959.931 226.165 -931.01 218.353C-902.089 210.541 -839.068 232.415 -808.569 244.914Z" stroke="var(--stroke-0, #4E4E50)" stroke-width="0.97" stroke-miterlimit="10"/>
<path id="Vector_8" d="M-796.677 314.953C-796.677 314.788 -796.762 314.642 -796.911 314.571C-818.565 304.102 -869.516 278.724 -889.023 271.96C-908.601 265.172 -921.504 273.522 -936.349 285.483C-951.194 297.443 -953.58 317.808 -923.041 328.745C-899.944 337.096 -878.425 355.845 -863.58 378.742C-849.099 401.154 -819.774 452.229 -792.753 455.353C-758.331 459.502 -709.427 418.879 -710.6 389.194C-711.769 359.613 -774.71 325.86 -796.447 315.334C-796.595 315.262 -796.677 315.118 -796.677 314.953ZM-770.3 414.246C-770.239 414.246 -770.218 414.327 -770.269 414.361C-788.998 427.151 -810.42 404.829 -820.947 390.271C-831.504 375.671 -858.484 343.884 -871.023 332.947C-881.176 324.112 -899.985 318.347 -903.099 312.636C-907.387 304.824 -900.753 295.989 -884.695 299.598C-868.636 302.723 -824.83 333.971 -808.812 339.736C-792.753 345.447 -763.832 361.609 -752.102 373.085C-740.43 384.985 -759.351 406.752 -770.339 414.135C-770.391 414.169 -770.362 414.246 -770.3 414.246Z" stroke="var(--stroke-0, #4E4E50)" stroke-width="0.97" stroke-miterlimit="10"/>
<path id="Vector_9" d="M-635.324 276.647C-635.35 276.647 -635.373 276.64 -635.392 276.622C-676.147 239.111 -877.142 154.187 -924.457 151.062C-971.783 147.938 -1038.28 206.285 -1062.15 244.322C-1085.61 282.358 -1109.47 334.995 -1083.67 354.767C-1083.67 354.767 -997.994 403.202 -967.091 439.191C-936.592 474.641 -881.014 551.198 -839.554 574.688C-798.093 597.639 -731.594 596.077 -693.612 564.29C-655.67 532.504 -598.151 474.641 -587.189 440.268C-577.061 405.978 -594.145 314.587 -634.626 276.919C-634.816 276.742 -635.064 276.647 -635.324 276.647ZM-608.789 415.27C-610.367 454.33 -678.443 515.317 -740.614 542.417C-802.421 569.516 -856.017 527.332 -875.594 502.818C-897.518 475.18 -943.266 425.722 -965.594 403.309C-988.286 380.897 -1030.92 358.485 -1052.84 343.399C-1074.77 328.799 -1065.75 303.262 -1056.36 289.2C-1046.98 275.139 -1012.92 228.213 -984.363 210.541C-956.574 192.816 -919.037 174.068 -881.864 189.153C-844.691 203.753 -696.443 267.327 -665.5 287.099C-634.646 306.355 -606.535 375.983 -608.376 415.616C-608.381 415.726 -608.472 415.809 -608.582 415.809C-608.697 415.809 -608.789 415.716 -608.789 415.601V415.27Z" fill="var(--fill-0, white)"/>
<path id="Vector_10" d="M-796.677 314.953C-796.677 314.788 -796.762 314.642 -796.911 314.571C-818.565 304.102 -869.516 278.724 -889.023 271.96C-908.601 265.172 -921.504 273.522 -936.349 285.483C-951.194 297.443 -953.58 317.808 -923.041 328.745C-899.944 337.096 -878.425 355.845 -863.58 378.742C-849.099 401.154 -819.774 452.229 -792.753 455.353C-758.331 459.502 -709.427 418.879 -710.6 389.194C-711.769 359.613 -774.71 325.86 -796.447 315.334C-796.595 315.262 -796.677 315.118 -796.677 314.953ZM-770.3 414.246C-770.239 414.246 -770.218 414.327 -770.269 414.361C-788.998 427.151 -810.42 404.829 -820.947 390.271C-831.504 375.671 -858.484 343.884 -871.023 332.947C-881.176 324.112 -899.985 318.347 -903.099 312.636C-907.387 304.824 -900.753 295.989 -884.695 299.598C-868.636 302.723 -824.83 333.971 -808.812 339.736C-792.753 345.447 -763.832 361.609 -752.102 373.085C-740.43 384.985 -759.351 406.752 -770.339 414.135C-770.391 414.169 -770.362 414.246 -770.3 414.246Z" fill="var(--fill-0, white)"/>
<g id="Group">
<path id="Vector_11" d="M87.6697 274.061C87.6436 274.061 87.6208 274.053 87.6017 274.036C46.8465 236.525 -154.148 151.601 -201.463 148.477C-248.789 145.352 -315.288 203.699 -339.153 241.736C-362.614 279.772 -386.479 332.409 -360.672 352.181C-360.672 352.181 -275 400.615 -244.097 436.605C-213.598 472.055 -158.021 548.613 -116.56 572.102C-75.0991 595.054 -8.60009 593.491 29.382 561.704C67.3236 529.918 124.843 472.055 135.805 437.682C145.933 403.392 128.849 312.001 88.3678 274.333C88.1774 274.156 87.9297 274.061 87.6697 274.061ZM114.609 412.684C113.031 451.744 44.9549 512.731 -17.2159 539.831C-79.0227 566.93 -132.618 524.746 -152.196 500.232C-174.119 472.594 -219.868 423.136 -242.196 400.723C-264.888 378.311 -307.522 355.899 -329.445 340.813C-351.369 326.213 -342.349 300.676 -332.964 286.614C-323.58 272.553 -289.522 225.627 -260.964 207.956C-233.176 190.23 -195.638 171.482 -158.465 186.567C-121.292 201.167 26.955 264.741 57.8988 284.513C88.7521 303.769 116.864 373.397 115.023 413.029C115.018 413.14 114.927 413.222 114.816 413.222C114.702 413.222 114.609 413.13 114.609 413.015V412.684Z" stroke="var(--stroke-0, #4E4E50)" stroke-width="0.97" stroke-miterlimit="10"/>
<path id="Vector_12" d="M33.2246 438.275C57.8583 402.825 51.2246 362.687 25.0133 337.689C-1.19792 312.152 -75.5441 277.779 -107.216 263.717C-138.928 250.141 -183.14 237.156 -203.081 241.305C-227.715 245.992 -259.023 287.692 -263.311 296.528C-267.194 305.363 -268.367 320.503 -247.252 329.338C-225.733 338.228 -188.56 361.664 -168.214 380.412C-148.636 399.7 -125.175 449.697 -93.099 468.984C-61.0226 488.218 8.63134 474.156 33.2651 438.221L33.2246 438.275ZM33.2246 438.275H33.6291M-90.753 241.79C-59.9115 254.264 10.694 290.617 45.1928 317.7C45.3266 317.805 45.3999 317.962 45.3999 318.132C45.3999 318.302 45.4781 318.463 45.6114 318.568C79.8673 345.727 90.7553 400.79 76.7078 433.049C62.6314 465.321 -3.50354 515.371 -30.4833 520.059C-57.4632 524.746 -85.2519 516.934 -117.328 491.935C-149.405 466.883 -176.425 420.55 -201.059 392.912C-225.288 365.273 -265.616 350.188 -289.077 332.463C-312.578 314.738 -297.693 291.787 -288.308 276.701C-277.751 259.515 -242.155 223.041 -213.194 215.229C-184.272 207.417 -121.252 229.291 -90.753 241.79Z" stroke="var(--stroke-0, #4E4E50)" stroke-width="0.97" stroke-miterlimit="10"/>
<path id="Vector_13" d="M-63.0408 315.223C-63.0323 315.223 -63.0284 315.212 -63.0362 315.208C-85.7473 304.801 -140.07 279.284 -160.811 272.499C-181.562 265.711 -195.234 274.062 -210.888 286.022C-226.542 297.982 -228.888 318.347 -196.811 329.284C-172.178 337.635 -149.485 356.384 -133.831 379.281C-118.177 401.693 -87.274 452.768 -59.1212 455.893C-22.7571 460.041 28.8969 419.419 27.7238 389.733C26.5579 360.227 -39.9462 326.569 -63.0331 315.952C-63.2574 315.849 -63.3092 315.575 -63.1609 315.377L-63.0472 315.226C-63.0457 315.224 -63.0433 315.223 -63.0408 315.223ZM-34.447 414.731C-34.435 414.731 -34.4311 414.747 -34.4412 414.754C-54.3744 427.743 -77.0467 405.349 -88.0022 390.757C-99.328 376.156 -127.521 344.369 -140.829 333.433C-151.386 324.597 -171.328 318.832 -174.847 313.122C-179.539 305.31 -172.097 296.474 -155.674 300.084C-138.847 303.208 -92.2898 334.456 -75.0988 340.221C-57.9078 345.986 -27.3684 362.095 -14.8695 373.57C-2.49125 385.415 -22.2873 407.036 -33.7109 414.517C-33.9318 414.661 -34.1829 414.731 -34.447 414.731Z" stroke="var(--stroke-0, #4E4E50)" stroke-width="0.97" stroke-miterlimit="10"/>
<path id="Vector_14" d="M-475.347 311.128C-495.288 306.441 -528.538 266.842 -546.942 241.844C-565.306 216.791 -568.825 190.231 -566.884 176.169C-564.942 162.107 -545.769 139.156 -535.212 132.907C-518.789 123.532 -497.27 128.758 -480.039 139.156C-462.848 149.016 -424.906 185.49 -418.637 217.815C-411.968 250.059 -455.33 315.648 -475.295 311.086C-475.322 311.08 -475.347 311.101 -475.347 311.128ZM-475.347 311.128H-474.942M-496.461 157.905C-513.538 148.593 -541.071 163.947 -541.437 180.997C-541.442 181.22 -541.514 181.438 -541.647 181.616C-541.776 181.788 -541.849 181.997 -541.853 182.212C-542.194 199.228 -537.859 211.714 -521.904 234.517C-505.886 257.468 -478.502 289.793 -465.962 279.341C-453.423 268.89 -437.001 228.267 -444.443 210.542C-451.846 192.817 -479.23 167.28 -496.461 157.905Z" stroke="var(--stroke-0, #4E4E50)" stroke-width="0.97" stroke-miterlimit="10"/>
<path id="Vector_15" d="M-465.539 245.399C-465.547 245.399 -465.553 245.39 -465.548 245.383C-457.754 231.326 -461.637 216.194 -469.845 204.777C-478.056 193.355 -495.652 180.263 -503.499 178.701C-511.346 177.139 -519.558 185.489 -519.153 194.325C-518.749 203.161 -514.461 212.05 -500.749 229.775C-487.125 247.386 -473.541 258.828 -466.066 245.13C-466 245.009 -465.826 244.988 -465.743 245.098L-465.53 245.382C-465.525 245.389 -465.53 245.399 -465.539 245.399Z" stroke="var(--stroke-0, #4E4E50)" stroke-width="0.97" stroke-miterlimit="10"/>
<path id="Vector_16" d="M-671.769 576.79C-631.999 545.943 -589.943 489.686 -555.367 445.645C-554.468 444.501 -553.706 443.273 -553.066 441.967C-543.779 423.013 -526.957 392.293 -536.021 361.071C-550.097 314.738 -595.077 240.228 -649.846 211.027C-707.729 180.264 -803.958 145.352 -850.92 126.065C-904.515 104.191 -960.862 111.464 -1002.32 143.251C-1040.26 172.452 -1069.99 209.465 -1102.07 269.375C-1116.15 294.858 -1134.15 323.035 -1134.15 346.471C-1133.82 354.553 -1128.6 361.3 -1122.06 367.156C-1120.76 368.324 -1119.27 369.251 -1117.69 370.004C-1085.32 385.412 -1039.6 413.59 -997.994 450.182C-954.187 488.757 -899.419 560.143 -854.803 598.179C-810.237 636.208 -724.954 617.42 -671.761 576.815C-671.75 576.807 -671.756 576.79 -671.769 576.79ZM-671.769 576.79H-671.365M44.9551 583.04C84.7254 552.193 126.782 495.936 161.358 451.895C162.256 450.75 163.018 449.523 163.658 448.217C172.945 429.262 189.767 398.543 180.704 367.321C166.627 320.988 121.647 246.477 66.8786 217.277C8.99539 186.513 -87.2338 151.602 -134.196 132.314C-187.791 110.441 -244.137 117.714 -285.598 149.501C-323.54 178.701 -353.27 215.714 -385.347 275.624C-399.423 301.107 -417.423 329.284 -417.423 352.72C-417.092 360.803 -411.879 367.55 -405.341 373.405C-404.036 374.574 -402.55 375.5 -400.968 376.253C-368.6 391.661 -322.874 419.839 -281.27 456.432C-237.463 495.007 -182.695 566.392 -138.079 604.428C-93.5123 642.457 -8.22969 623.67 44.9636 583.064C44.9739 583.056 44.9681 583.04 44.9551 583.04ZM44.9551 583.04H45.3594M763.621 589.828C803.391 558.981 845.447 502.724 880.023 458.683C880.922 457.539 881.684 456.311 882.324 455.005C891.611 436.051 908.433 405.331 899.369 374.109C885.293 327.776 840.313 253.266 785.544 224.065C727.661 193.302 631.432 158.39 584.47 139.103C530.874 117.229 474.528 124.502 433.068 156.289C395.126 185.49 365.396 222.502 333.319 282.412C319.243 307.896 300.838 336.073 301.243 359.509C301.574 367.591 306.787 374.338 313.325 380.194C314.63 381.362 316.116 382.289 317.697 383.041C350.066 398.45 395.792 426.628 437.396 463.22C481.203 501.795 535.971 573.18 580.587 611.217C625.153 649.245 710.436 630.458 763.629 589.852C763.64 589.844 763.634 589.828 763.621 589.828ZM763.621 589.828H764.025M1480.35 596.078C1520.12 565.231 1562.17 508.974 1596.75 464.932C1597.65 463.788 1598.41 462.561 1599.05 461.255C1608.33 442.3 1625.16 411.581 1616.09 380.359C1602.02 334.026 1557.04 259.515 1502.27 230.315C1444.39 199.551 1348.16 164.64 1301.19 145.352C1247.6 123.479 1191.25 130.752 1149.79 162.539C1111.85 191.739 1082.12 228.752 1050.04 288.662C1035.97 314.145 1017.56 342.322 1017.97 365.758C1018.3 373.841 1023.51 380.587 1030.05 386.443C1031.35 387.612 1032.84 388.538 1034.42 389.291C1066.79 404.699 1112.52 432.877 1154.12 469.469C1197.93 508.044 1252.7 579.43 1297.31 617.466C1341.88 655.495 1427.16 636.708 1480.35 596.102C1480.36 596.094 1480.36 596.078 1480.35 596.078ZM1480.35 596.078H1480.75M1663.46 371.523C1664.98 376.042 1666.22 379.961 1667.1 383.507C1668.23 388.115 1673.67 391.157 1678.03 389.277C1696.43 381.338 1711.87 381.228 1721.94 386.021C1721.97 386.037 1722 385.99 1721.97 385.965C1721.95 385.945 1721.97 385.908 1722 385.908H1722.31C1721.62 385.908 1721.32 386.929 1721.89 387.328C1740.67 400.501 1771.26 460.148 1726.6 441.131C1680.04 421.358 1617.83 473.941 1583.81 527.117C1550.16 579.753 1462.14 671.45 1384.28 687.074C1306.41 702.698 1249.3 625.548 1193.36 564.075C1130.53 495.304 1063.58 457.368 1021.19 438.79C1019.89 438.224 1018.56 437.837 1017.2 437.453C1015.12 436.864 1012.92 435.997 1010.28 434.827C963.724 415.055 901.513 467.638 867.495 520.813C833.841 573.45 745.823 665.146 667.958 680.77C590.092 696.394 532.978 619.244 477.036 557.772C412.891 487.815 344.959 449.85 302.955 431.842C301.884 431.382 300.79 431.042 299.664 430.739C297.475 430.15 294.728 429.259 291.98 428.039C245.423 408.266 183.211 460.849 149.193 514.025C115.539 566.662 27.5212 658.358 -50.3441 673.982C-128.209 689.606 -185.324 612.456 -241.265 550.984C-304.094 482.212 -371.042 444.277 -413.433 425.699C-414.727 425.132 -416.065 424.745 -417.424 424.361C-419.502 423.773 -421.706 422.905 -424.34 421.735C-470.897 401.963 -533.108 454.546 -567.126 507.721C-600.78 560.358 -688.798 652.055 -766.664 667.679C-844.529 683.303 -901.644 606.153 -957.585 544.68C-1043.62 450.344 -1137.54 413.87 -1164.52 406.058C-1167.16 405.304 -1169.34 404.313 -1171.2 403.077C-1174.99 400.562 -1178.66 397.652 -1183.04 396.432C-1194.42 393.264 -1204.58 389.756 -1211.45 386.285C-1237.66 372.762 -1234.91 352.936 -1247.04 318.563C-1258.77 284.137 -1214.97 341.999 -1191.1 341.999C-1167.23 341.999 -1147.29 305.04 -1129.29 271.152C-1111.29 237.318 -1068.25 142.443 -1008.79 112.757C-915.68 66.3703 -838.583 90.8838 -766.219 124.233C-737.389 137.398 -703.766 150.057 -673.208 163.143C-671.315 163.954 -669.312 164.491 -667.258 164.629C-652.431 165.624 -636.49 163.134 -627.72 152.41C-609.72 131.021 -592.124 101.336 -578.412 88.2978C-554.911 66.4242 -527.526 65.8854 -500.547 69.5489C-473.526 73.1586 -435.585 95.571 -410.547 127.896C-401.162 139.911 -388.663 167.495 -377.702 180.533C-367.511 192.654 -356.307 176.838 -349.126 169.964C-348.119 169 -347.126 168.025 -346.244 166.946C-329.776 146.799 -311.783 128.702 -291.221 118.576C-198.106 72.1889 -121.009 96.7023 -48.6452 130.051C16.3167 160.276 104.739 185.813 129.373 224.388C144.258 248.363 170.065 293.672 191.584 316.624C200.969 327.075 208.816 333.864 214.276 339.575C224.47 347.925 220.546 355.199 244.411 355.199C268.277 355.199 288.218 318.186 306.218 284.352C324.218 250.518 367.256 155.643 426.717 125.957C519.832 79.5699 596.929 104.083 669.293 137.432C698.123 150.598 731.745 163.257 762.304 176.343C764.197 177.153 766.199 177.691 768.254 177.829C783.08 178.824 799.022 176.334 807.792 165.61C825.792 144.221 843.387 114.535 857.099 101.497C880.196 79.6238 907.985 79.0849 934.964 82.7485C961.985 86.3582 999.926 108.771 1024.96 141.096C1034.35 153.11 1046.85 180.695 1057.81 193.733C1068 205.853 1079.2 190.038 1086.39 183.164C1087.39 182.2 1088.39 181.225 1089.27 180.146C1105.74 159.999 1123.73 141.902 1144.29 131.776C1237.41 85.3884 1314.5 109.902 1386.87 143.251C1451.83 173.475 1540.25 199.013 1564.88 237.588C1579.77 261.563 1605.58 306.872 1627.1 329.823C1648.57 353.259 1658.77 358.485 1663.46 371.523ZM917.41 110.441C885.343 104.678 872.438 122.929 849.355 160.941C849.345 160.956 849.356 160.976 849.374 160.976C849.55 160.976 849.656 161.173 849.564 161.324C833.048 188.347 844.356 219.952 853.297 240.713C868.142 265.711 891.239 303.747 910.007 324.058C920.969 336.019 929.181 343.346 935.046 349.057C944.066 356.384 937.796 362.095 961.661 362.095C985.527 362.095 1005.47 325.136 1023.47 291.248C1026.99 284.999 1031.28 276.648 1035.97 267.273C1056.68 212.051 1011.7 165.125 995.275 147.938C978.812 130.267 949.082 115.667 917.41 110.441ZM-517.98 96.9179C-550.047 91.1549 -562.952 109.406 -586.035 147.418C-586.045 147.434 -586.034 147.453 -586.016 147.453C-585.84 147.453 -585.734 147.65 -585.826 147.801C-602.342 174.824 -591.034 206.429 -582.093 227.19C-567.248 252.188 -544.151 290.224 -525.383 310.536C-514.421 322.496 -506.21 329.823 -500.344 335.534C-491.324 342.861 -497.594 348.572 -473.729 348.572C-449.863 348.572 -429.922 311.613 -411.922 277.725C-408.403 271.476 -404.115 263.125 -399.423 253.751C-378.713 198.528 -423.693 151.602 -440.115 134.415C-456.578 116.744 -486.308 102.144 -517.98 96.9179Z" stroke="var(--stroke-0, #4E4E50)" stroke-width="0.97" stroke-miterlimit="10"/>
<path id="Vector_17" d="M959.68 324.166C939.738 319.478 906.489 279.88 888.084 254.881C869.72 229.829 866.201 203.268 868.143 189.207C870.084 175.145 889.257 152.194 899.814 145.944C916.237 136.57 937.756 141.796 954.988 152.194C972.179 162.053 1010.12 198.527 1016.39 230.853C1023.06 263.097 979.696 328.686 959.731 324.124C959.705 324.118 959.68 324.138 959.68 324.166ZM959.68 324.166H960.084M938.525 170.889C921.448 161.577 893.915 176.931 893.548 193.981C893.544 194.204 893.472 194.421 893.339 194.6C893.21 194.771 893.137 194.981 893.133 195.196C892.792 212.212 897.127 224.697 913.082 247.5C929.1 270.451 956.484 302.777 969.024 292.325C981.563 281.873 997.985 241.251 990.543 223.526C983.14 205.8 955.716 180.263 938.525 170.889Z" stroke="var(--stroke-0, #4E4E50)" stroke-width="0.97" stroke-miterlimit="10"/>
<path id="Vector_18" d="M969.85 258.437C969.842 258.437 969.837 258.428 969.841 258.421C977.636 244.364 973.752 229.232 965.544 217.815C957.333 206.393 939.737 193.301 931.89 191.739C924.043 190.177 915.832 198.527 916.236 207.363C916.236 216.199 920.929 225.088 934.641 242.813C948.265 260.424 961.849 271.866 969.323 258.169C969.389 258.047 969.563 258.026 969.646 258.136L969.859 258.42C969.865 258.427 969.859 258.437 969.85 258.437Z" stroke="var(--stroke-0, #4E4E50)" stroke-width="0.97" stroke-miterlimit="10"/>
<path id="Vector_19" d="M233.167 112.595C250.358 122.454 288.299 158.928 294.569 191.254C301.243 223.525 257.8 289.2 237.859 284.513C217.917 279.826 184.668 240.227 166.263 215.228C147.899 190.176 144.38 163.615 146.322 149.554C148.263 135.492 167.436 112.541 177.994 106.292C194.402 96.9255 215.897 102.134 233.121 112.513C233.149 112.531 233.167 112.562 233.167 112.595ZM233.167 112.595H233.571M191.706 207.901C207.611 230.69 234.761 262.668 247.38 252.941C247.417 252.912 247.474 252.958 247.446 252.995C247.418 253.032 247.457 253.084 247.492 253.054C259.999 242.277 276.156 202.073 268.762 184.465C261.36 166.74 233.935 141.203 216.744 131.829C199.553 122.454 171.764 138.078 171.764 155.265C171.36 172.451 175.688 184.95 191.706 207.901Z" stroke="var(--stroke-0, #4E4E50)" stroke-width="0.97" stroke-miterlimit="10"/>
<path id="Vector_20" d="M210.072 152.679C210.07 152.679 210.069 152.679 210.068 152.679C202.262 151.118 194.011 159.468 194.416 168.303C194.416 177.139 199.108 186.028 212.82 203.753C226.533 221.479 240.205 232.954 247.647 218.839C255.454 204.777 251.571 189.638 243.36 178.216C235.273 166.968 218.086 154.1 210.07 152.219C209.94 152.189 209.854 152.338 209.935 152.446L210.087 152.648C210.097 152.661 210.088 152.679 210.072 152.679Z" stroke="var(--stroke-0, #4E4E50)" stroke-width="0.97" stroke-miterlimit="10"/>
<path id="Vector_21" d="M806.336 280.85C806.31 280.85 806.287 280.842 806.268 280.824C765.513 243.314 564.519 158.389 517.203 155.265C469.877 152.14 403.379 210.488 379.513 248.524C356.053 286.561 332.187 339.197 357.994 358.97C357.994 358.97 443.666 407.404 474.57 443.393C505.068 478.843 560.646 555.401 602.107 578.891C643.567 601.842 710.066 600.28 748.049 568.493C785.99 536.706 843.509 478.844 854.471 444.471C864.599 410.181 847.515 318.789 807.034 281.122C806.844 280.945 806.596 280.85 806.336 280.85ZM832.911 419.472C831.334 458.532 763.257 519.52 701.087 546.619C639.28 573.719 585.684 531.534 566.107 507.021C544.183 479.382 498.435 429.924 476.107 407.512C453.415 385.099 410.781 362.687 388.857 347.602C366.934 333.002 375.954 307.464 385.338 293.403C394.722 279.341 428.781 232.415 457.338 214.744C485.127 197.019 522.664 178.27 559.837 193.355C597.01 207.956 745.257 271.529 776.201 291.302C807.054 310.558 835.166 380.186 833.325 419.818C833.32 419.928 833.229 420.011 833.119 420.011C833.004 420.011 832.911 419.918 832.911 419.804V419.472Z" stroke="var(--stroke-0, #4E4E50)" stroke-width="0.97" stroke-miterlimit="10"/>
<path id="Vector_22" d="M751.486 445.548C776.12 410.098 769.486 369.96 743.275 344.962C717.064 319.425 642.717 285.052 611.045 270.99C579.333 257.414 535.122 244.43 515.18 248.578C490.547 253.265 459.239 294.965 454.951 303.801C451.068 312.636 449.895 327.776 471.009 336.611C492.529 345.501 529.702 368.937 550.048 387.686C569.625 406.973 593.086 456.97 625.162 476.257C657.239 495.491 726.893 481.43 751.527 445.494L751.486 445.548ZM751.486 445.548H751.89M627.508 248.524C658.35 260.998 728.955 297.351 763.454 324.434C763.588 324.539 763.661 324.696 763.661 324.866C763.661 325.036 763.74 325.197 763.873 325.303C798.129 352.462 809.017 407.524 794.969 439.784C780.893 472.055 714.758 522.106 687.778 526.793C660.798 531.48 633.01 523.668 600.933 498.67C568.857 473.618 541.836 427.284 517.203 399.646C492.974 372.008 452.281 356.922 429.185 339.197C405.683 321.472 420.569 298.521 429.953 283.436C440.511 266.249 476.147 229.775 505.068 221.963C533.989 214.151 597.009 236.025 627.508 248.524Z" stroke="var(--stroke-0, #4E4E50)" stroke-width="0.97" stroke-miterlimit="10"/>
<path id="Vector_23" d="M655.665 322.012C655.674 322.012 655.677 322.001 655.67 321.997C632.959 311.59 578.636 286.073 557.895 279.288C537.144 272.5 523.472 280.851 507.818 292.811C492.164 304.771 489.818 325.137 521.895 336.073C546.528 344.424 569.22 363.173 584.874 386.07C600.528 408.482 631.432 459.557 659.585 462.682C695.949 466.83 747.603 426.208 746.43 396.522C745.264 367.016 678.76 333.358 655.673 322.741C655.448 322.638 655.397 322.364 655.545 322.166L655.659 322.015C655.66 322.013 655.662 322.012 655.665 322.012ZM683.409 421.52C683.421 421.52 683.425 421.536 683.415 421.543C663.482 434.532 640.81 412.137 629.854 397.546C618.528 382.945 590.335 351.159 577.027 340.222C566.47 331.386 546.528 325.621 543.009 319.911C538.317 312.099 545.76 303.263 562.182 306.873C579.009 309.997 625.567 341.245 642.758 347.01C659.949 352.775 690.488 368.884 702.987 380.359C715.365 392.204 695.569 413.824 684.146 421.306C683.925 421.45 683.674 421.52 683.409 421.52Z" stroke="var(--stroke-0, #4E4E50)" stroke-width="0.97" stroke-miterlimit="10"/>
<path id="Vector_24" d="M87.6697 274.061C87.6436 274.061 87.6208 274.053 87.6017 274.036C46.8465 236.525 -154.148 151.601 -201.463 148.477C-248.789 145.352 -315.288 203.699 -339.153 241.736C-362.614 279.772 -386.479 332.409 -360.672 352.181C-360.672 352.181 -275 400.615 -244.097 436.605C-213.598 472.055 -158.021 548.613 -116.56 572.102C-75.0991 595.054 -8.60009 593.491 29.382 561.704C67.3236 529.918 124.843 472.055 135.805 437.682C145.933 403.392 128.849 312.001 88.3678 274.333C88.1774 274.156 87.9297 274.061 87.6697 274.061ZM114.609 412.684C113.031 451.744 44.9549 512.731 -17.2159 539.831C-79.0227 566.93 -132.618 524.746 -152.196 500.232C-174.119 472.594 -219.868 423.136 -242.196 400.723C-264.888 378.311 -307.522 355.899 -329.445 340.813C-351.369 326.213 -342.349 300.676 -332.964 286.614C-323.58 272.553 -289.522 225.627 -260.964 207.956C-233.176 190.23 -195.638 171.482 -158.465 186.567C-121.292 201.167 26.955 264.741 57.8988 284.513C88.7521 303.769 116.864 373.397 115.023 413.029C115.018 413.14 114.927 413.222 114.816 413.222C114.702 413.222 114.609 413.13 114.609 413.015V412.684Z" fill="var(--fill-0, white)"/>
<path id="Vector_25" d="M45.3999 318.132C45.3999 317.962 45.3266 317.805 45.1928 317.7C10.694 290.617 -59.9115 254.264 -90.753 241.79C-121.252 229.291 -184.272 207.417 -213.194 215.229C-242.155 223.041 -277.751 259.515 -288.308 276.701C-297.693 291.787 -312.578 314.738 -289.077 332.463C-265.616 350.188 -225.288 365.273 -201.059 392.912C-176.425 420.55 -149.405 466.883 -117.328 491.935C-85.2519 516.934 -57.4632 524.746 -30.4833 520.059C-3.50354 515.371 62.6314 465.321 76.7078 433.049C90.7553 400.79 79.8673 345.727 45.6114 318.568C45.4781 318.463 45.3999 318.302 45.3999 318.132ZM33.2651 438.221C8.63134 474.156 -61.0226 488.218 -93.099 468.984C-125.175 449.697 -148.636 399.7 -168.214 380.412C-188.56 361.664 -225.733 338.228 -247.252 329.338C-268.367 320.503 -267.194 305.363 -263.311 296.528C-259.023 287.692 -227.715 245.992 -203.081 241.305C-183.14 237.156 -138.928 250.141 -107.216 263.717C-75.5441 277.779 -1.19792 312.152 25.0133 337.689C51.2246 362.687 57.8583 402.825 33.2246 438.275L33.2651 438.221Z" fill="var(--fill-0, white)"/>
<path id="Vector_26" d="M-465.539 245.399C-465.547 245.399 -465.553 245.39 -465.548 245.383C-457.754 231.326 -461.637 216.194 -469.845 204.777C-478.056 193.355 -495.652 180.263 -503.499 178.701C-511.346 177.139 -519.558 185.489 -519.153 194.325C-518.749 203.161 -514.461 212.05 -500.749 229.775C-487.125 247.386 -473.541 258.828 -466.066 245.13C-466 245.009 -465.826 244.988 -465.743 245.098L-465.53 245.382C-465.525 245.389 -465.53 245.399 -465.539 245.399Z" fill="var(--fill-0, white)"/>
<path id="Vector_27" d="M969.85 258.437C969.842 258.437 969.837 258.428 969.841 258.421C977.636 244.364 973.752 229.232 965.544 217.815C957.333 206.393 939.737 193.301 931.89 191.739C924.043 190.177 915.832 198.527 916.236 207.363C916.236 216.199 920.929 225.088 934.641 242.813C948.265 260.424 961.849 271.866 969.323 258.169C969.389 258.047 969.563 258.026 969.646 258.136L969.859 258.42C969.865 258.427 969.859 258.437 969.85 258.437Z" fill="var(--fill-0, #F3F3F3)"/>
<path id="Vector_28" d="M233.167 112.595C233.167 112.562 233.149 112.531 233.121 112.513C215.897 102.134 194.402 96.9255 177.994 106.292C167.436 112.541 148.263 135.492 146.322 149.554C144.38 163.615 147.899 190.176 166.263 215.228C184.668 240.227 217.917 279.826 237.859 284.513C257.8 289.2 301.243 223.525 294.569 191.254C288.299 158.928 250.358 122.454 233.167 112.595ZM247.446 252.995C247.474 252.958 247.417 252.912 247.38 252.941C234.761 262.668 207.611 230.69 191.706 207.901C175.688 184.95 171.36 172.451 171.764 155.265C171.764 138.078 199.553 122.454 216.744 131.829C233.935 141.203 261.36 166.74 268.762 184.465C276.156 202.073 259.999 242.277 247.492 253.054C247.457 253.084 247.418 253.032 247.446 252.995Z" fill="var(--fill-0, white)"/>
<path id="Vector_29" d="M763.661 324.866C763.661 324.696 763.588 324.539 763.454 324.434C728.955 297.351 658.35 260.998 627.508 248.524C597.009 236.025 533.989 214.151 505.068 221.963C476.147 229.775 440.511 266.249 429.953 283.436C420.569 298.521 405.683 321.472 429.185 339.197C452.281 356.922 492.974 372.008 517.203 399.646C541.836 427.284 568.857 473.618 600.933 498.67C633.01 523.668 660.798 531.48 687.778 526.793C714.758 522.106 780.893 472.055 794.969 439.784C809.017 407.524 798.129 352.462 763.873 325.303C763.74 325.197 763.661 325.036 763.661 324.866ZM751.527 445.494C726.893 481.43 657.239 495.491 625.162 476.257C593.086 456.97 569.625 406.973 550.048 387.686C529.702 368.937 492.529 345.501 471.009 336.611C449.895 327.776 451.068 312.636 454.951 303.801C459.239 294.965 490.547 253.265 515.18 248.578C535.122 244.43 579.333 257.414 611.045 270.99C642.717 285.052 717.064 319.425 743.275 344.962C769.486 369.96 776.12 410.098 751.486 445.548L751.527 445.494Z" fill="var(--fill-0, #ECECEC)"/>
<path id="Vector_30" d="M-940.567 37.8265C-940.513 37.9476 -940.39 38.0185 -940.259 37.9989C-915.905 34.3649 -865.224 33.9257 -819.207 48.4292C-785.189 59.366 -747.207 82.8021 -718.65 97.9412C-690.093 113.565 -658.016 132.853 -639.612 124.502C-621.207 116.151 -581.728 43.7421 -555.113 36.4149C-528.133 29.1417 -441.652 46.3281 -408.807 86.9505C-375.962 127.573 -364.191 143.251 -349.346 130.698C-334.461 118.198 -279.328 67.663 -258.982 60.3358C-238.636 53.0087 -226.501 43.1494 -205.791 43.1494C-202.82 43.1494 -200.295 42.7986 -198.166 42.206C-194.193 41.0993 -190.278 39.3802 -186.153 39.3158C-160.108 38.9095 -125.651 41.8896 -93.5032 51.9851C-59.4852 62.9219 -21.5032 86.3579 7.05414 101.497C35.6115 117.121 67.6879 136.409 86.0925 128.058C104.497 119.707 143.976 47.2979 170.591 39.9708C197.571 32.6975 284.052 49.8839 316.897 90.5063C349.742 131.129 361.513 146.807 376.358 134.253C391.243 121.754 446.376 71.2187 466.722 63.8916C480.169 58.8995 489.702 52.9734 500.754 49.7292C501.791 49.4249 502.845 49.237 503.921 49.1398C530.367 46.7512 575.151 47.9909 615.778 60.7669C649.796 71.7037 687.778 95.1396 716.336 110.279C744.893 125.903 776.969 145.19 795.374 136.84C813.779 128.489 853.257 56.0796 879.873 48.7525C906.853 41.4792 993.334 58.6657 1026.18 99.2881C1059.02 139.91 1070.79 155.588 1085.64 143.035C1100.52 130.536 1155.66 80.0005 1176 72.6734C1196.35 65.3463 1208.48 55.487 1229.19 55.487C1251.48 55.487 1251.89 36.7382 1222.56 29.4111C1193.24 22.084 1160.75 49.7223 1132.2 72.1347C1103.64 94.0083 1082.89 131.56 1061.37 109.147C1033.58 80.4854 1024.2 67.4474 1002.68 53.9246C975.698 37.277 910.332 18.4743 878.255 21.5991C846.179 24.7239 812.12 95.0857 790.237 103.383C768.313 111.733 730.372 85.1187 699.064 66.9087C665.814 48.1599 612.987 26.7711 578.969 17.9355C553.527 11.1471 517.163 13.787 493.297 20.0366C469.432 24.7238 444.798 45.5738 422.47 62.7602C393.913 84.6338 373.162 122.185 351.643 99.7729C323.854 71.111 314.47 58.073 292.951 44.5502C265.971 27.9025 200.605 9.09986 168.529 12.2247C136.452 15.3495 102.394 85.7114 80.5104 94.0083C58.5868 102.359 20.6453 75.7443 -10.6626 57.5343C-43.9121 38.7855 -96.7391 17.3968 -130.757 8.56114C-160.053 1.05728 -204.166 5.58308 -226.672 14.2601C-228.458 14.9488 -230.3 15.4457 -232.184 15.7843C-256.354 20.127 -281.471 41.04 -304.043 58.6118C-332.6 80.4854 -353.351 118.037 -374.87 95.6246C-402.659 66.9626 -412.043 53.9246 -433.562 40.4018C-460.542 23.7541 -525.908 4.95147 -557.985 8.07627C-590.061 11.2011 -624.119 81.5629 -646.003 89.8598C-667.926 98.2106 -705.868 71.5959 -737.176 53.3858C-770.425 34.637 -823.252 13.2483 -857.27 4.41267C-887.294 -3.38538 -932.881 1.36418 -954.742 10.4761C-959.671 12.5307 -962.92 17.3392 -962.271 22.6399C-961.437 29.4643 -957.7 37.7963 -944.156 36.4054C-943.133 36.3004 -942.082 36.5661 -941.281 37.2105L-940.652 37.7174C-940.615 37.7466 -940.586 37.784 -940.567 37.8265Z" stroke="var(--stroke-0, #4E4E50)" stroke-width="0.97" stroke-miterlimit="10"/>
</g>
</g>
</g>
</g>
</svg>
