<svg preserveAspectRatio="none" width="100%" height="100%" overflow="visible" style="display: block;" viewBox="0 0 578 546.02" fill="none" xmlns="http://www.w3.org/2000/svg">
<g id="Mask group">
<mask id="mask0_0_7" style="mask-type:alpha" maskUnits="userSpaceOnUse" x="100" y="52" width="378" height="391">
<path id="Rectangle 5" opacity="0.85" d="M100 72.0201C100 60.9744 108.954 52.0201 120 52.0201H458C469.046 52.0201 478 60.9744 478 72.0201V422.02C478 433.066 469.046 442.02 458 442.02H120C108.954 442.02 100 433.066 100 422.02V72.0201Z" fill="var(--fill-0, white)" fill-opacity="0.5"/>
</mask>
<g mask="url(#mask0_0_7)">
<g id="Group 1">
<path id="Vector" d="M734.06 282.58C734.034 282.58 734.011 282.573 733.992 282.555C693.238 244.239 492.243 157.489 444.927 154.298C397.601 151.106 331.102 210.707 307.237 249.56C283.776 288.414 259.911 342.182 285.718 362.379C285.718 362.379 371.39 411.854 402.293 448.616C432.792 484.828 488.37 563.03 529.831 587.025C571.291 610.469 637.79 608.873 675.772 576.403C713.755 543.934 771.233 484.828 782.195 449.717C792.324 414.689 775.238 321.33 734.755 282.855C734.567 282.676 734.32 282.58 734.06 282.58ZM760.635 424.181C759.058 464.08 690.981 526.378 628.81 554.06C567.004 581.742 513.408 538.65 493.831 513.61C471.907 485.378 426.159 434.858 403.831 411.964C381.138 389.07 338.505 366.176 316.581 350.767C294.657 335.853 303.678 309.767 313.062 295.403C322.446 281.039 356.505 233.105 385.062 215.054C412.851 196.948 450.388 177.797 487.561 193.206C524.734 208.12 672.981 273.06 703.925 293.257C734.779 312.927 762.892 384.055 761.049 424.538C761.044 424.649 760.953 424.731 760.842 424.731C760.728 424.731 760.635 424.639 760.635 424.524V424.181Z" stroke="var(--stroke-0, #4E4E50)" stroke-width="0.97" stroke-miterlimit="10"/>
<path id="Vector_2" d="M684.427 450.872C709.061 414.66 702.428 373.66 676.216 348.125C650.005 322.039 575.659 286.928 543.987 272.564C512.275 258.696 468.063 245.433 448.122 249.67C423.488 254.458 392.18 297.054 387.892 306.08C384.009 315.105 382.836 330.569 403.951 339.595C425.47 348.675 462.643 372.615 482.989 391.766C502.567 411.468 526.027 462.539 558.104 482.241C590.18 501.888 659.834 487.524 684.468 450.817L684.427 450.872ZM684.427 450.872H684.832M560.814 250.166C591.655 262.907 662.257 300.04 696.757 327.704C696.893 327.813 696.967 327.974 696.967 328.148C696.967 328.322 697.046 328.486 697.181 328.596C731.435 356.339 742.322 412.583 728.275 445.534C714.198 478.499 648.063 529.625 621.084 534.413C594.104 539.201 566.315 531.221 534.239 505.685C502.162 480.095 475.142 432.766 450.508 404.534C426.279 376.302 385.991 360.893 362.49 342.787C338.989 324.681 353.874 301.237 363.259 285.827C373.816 268.272 409.452 231.014 438.373 223.034C467.295 215.054 530.315 237.398 560.814 250.166Z" stroke="var(--stroke-0, #4E4E50)" stroke-width="0.97" stroke-miterlimit="10"/>
<path id="Vector_3" d="M572.707 321.709C572.707 321.541 572.62 321.391 572.469 321.317C550.812 310.622 499.866 284.701 480.361 277.792C460.783 270.858 447.88 279.388 433.035 291.606C418.19 303.823 415.803 324.626 446.342 335.798C469.439 344.328 490.958 363.479 505.803 386.869C520.284 409.762 549.61 461.934 576.63 465.126C611.053 469.364 659.956 427.868 658.783 397.545C657.614 367.331 594.681 332.855 572.941 322.1C572.79 322.025 572.707 321.878 572.707 321.709ZM599.124 423.136C599.186 423.136 599.207 423.217 599.157 423.252C580.427 436.319 559.004 413.516 548.477 398.646C537.92 383.732 510.94 351.262 498.401 340.09C488.248 331.065 469.439 325.176 466.325 319.343C462.037 311.363 468.671 302.337 484.729 306.025C500.787 309.217 544.594 341.136 560.612 347.024C576.671 352.858 605.592 369.368 617.323 381.09C628.994 393.246 610.071 415.482 599.083 423.023C599.032 423.058 599.062 423.136 599.124 423.136Z" stroke="var(--stroke-0, #4E4E50)" stroke-width="0.97" stroke-miterlimit="10"/>
<path id="Vector_4" d="M734.06 282.58C734.034 282.58 734.011 282.573 733.992 282.555C693.238 244.239 492.243 157.489 444.927 154.298C397.601 151.106 331.102 210.707 307.237 249.56C283.776 288.414 259.911 342.182 285.718 362.379C285.718 362.379 371.39 411.854 402.293 448.616C432.792 484.828 488.37 563.03 529.831 587.025C571.291 610.469 637.79 608.873 675.772 576.403C713.755 543.934 771.233 484.828 782.195 449.717C792.324 414.689 775.238 321.33 734.755 282.855C734.567 282.676 734.32 282.58 734.06 282.58ZM760.635 424.181C759.058 464.08 690.981 526.378 628.81 554.06C567.004 581.742 513.408 538.65 493.831 513.61C471.907 485.378 426.159 434.858 403.831 411.964C381.138 389.07 338.505 366.176 316.581 350.767C294.657 335.853 303.678 309.767 313.062 295.403C322.446 281.039 356.505 233.105 385.062 215.054C412.851 196.948 450.388 177.797 487.561 193.206C524.734 208.12 672.981 273.06 703.925 293.257C734.779 312.927 762.892 384.055 761.049 424.538C761.044 424.649 760.953 424.731 760.842 424.731C760.728 424.731 760.635 424.639 760.635 424.524V424.181Z" fill="var(--fill-0, white)"/>
<path id="Vector_5" d="M572.707 321.709C572.707 321.541 572.62 321.391 572.469 321.317C550.812 310.622 499.866 284.701 480.361 277.792C460.783 270.858 447.88 279.388 433.035 291.606C418.19 303.823 415.803 324.626 446.342 335.798C469.439 344.328 490.958 363.479 505.803 386.869C520.284 409.762 549.61 461.934 576.63 465.126C611.053 469.364 659.956 427.868 658.783 397.545C657.614 367.331 594.681 332.855 572.941 322.1C572.79 322.025 572.707 321.878 572.707 321.709ZM599.124 423.136C599.186 423.136 599.207 423.217 599.157 423.252C580.427 436.319 559.004 413.516 548.477 398.646C537.92 383.732 510.94 351.262 498.401 340.09C488.248 331.065 469.439 325.176 466.325 319.343C462.037 311.363 468.671 302.337 484.729 306.025C500.787 309.217 544.594 341.136 560.612 347.024C576.671 352.858 605.592 369.368 617.323 381.09C628.994 393.246 610.071 415.482 599.083 423.023C599.032 423.058 599.062 423.136 599.124 423.136Z" fill="var(--fill-0, #F3F3F3)"/>
<path id="Vector_6" d="M-1424.32 282.58C-1424.35 282.58 -1424.37 282.573 -1424.39 282.555C-1465.15 244.239 -1666.14 157.489 -1713.46 154.298C-1760.78 151.106 -1827.28 210.707 -1851.15 249.56C-1874.61 288.414 -1898.47 342.182 -1872.67 362.379C-1872.67 362.379 -1786.99 411.854 -1756.09 448.616C-1725.59 484.828 -1670.01 563.03 -1628.55 587.025C-1587.09 610.469 -1520.59 608.873 -1482.61 576.403C-1444.67 543.934 -1387.15 484.828 -1376.19 449.717C-1366.06 414.689 -1383.15 321.33 -1423.63 282.855C-1423.82 282.676 -1424.06 282.58 -1424.32 282.58ZM-1397.79 424.181C-1399.37 464.08 -1467.44 526.378 -1529.61 554.06C-1591.42 581.742 -1645.02 538.65 -1664.59 513.61C-1686.52 485.378 -1732.27 434.858 -1754.59 411.964C-1777.29 389.07 -1819.92 366.176 -1841.84 350.767C-1863.77 335.853 -1854.75 309.767 -1845.36 295.403C-1835.98 281.039 -1801.92 233.105 -1773.36 215.054C-1745.57 196.948 -1708.04 177.797 -1670.86 193.206C-1633.69 208.12 -1485.44 273.06 -1454.5 293.257C-1423.65 312.927 -1395.53 384.055 -1397.38 424.538C-1397.38 424.649 -1397.47 424.731 -1397.58 424.731C-1397.7 424.731 -1397.79 424.639 -1397.79 424.524V424.181Z" stroke="var(--stroke-0, #4E4E50)" stroke-width="0.97" stroke-miterlimit="10"/>
<path id="Vector_7" d="M-1474 450.872C-1449.36 414.66 -1456 373.66 -1482.21 348.125C-1508.42 322.039 -1582.76 286.928 -1614.44 272.564C-1646.15 258.696 -1690.36 245.433 -1710.3 249.67C-1734.94 254.458 -1766.24 297.054 -1770.53 306.08C-1774.41 315.105 -1775.59 330.569 -1754.47 339.595C-1732.95 348.675 -1695.78 372.615 -1675.43 391.766C-1655.86 411.468 -1632.4 462.594 -1600.32 482.241C-1568.24 501.888 -1498.59 487.524 -1473.96 450.817L-1474 450.872ZM-1474 450.872H-1473.59M-1597.57 250.166C-1566.73 262.907 -1496.13 300.04 -1461.63 327.704C-1461.49 327.813 -1461.42 327.974 -1461.42 328.148C-1461.42 328.322 -1461.34 328.486 -1461.2 328.596C-1426.95 356.339 -1416.06 412.583 -1430.11 445.534C-1444.19 478.499 -1510.32 529.625 -1537.3 534.413C-1564.28 539.201 -1592.07 531.221 -1624.14 505.685C-1656.22 480.095 -1683.24 432.766 -1707.88 404.534C-1732.1 376.302 -1772.39 360.893 -1795.89 342.787C-1819.39 324.681 -1804.51 301.237 -1795.12 285.827C-1784.57 268.272 -1748.93 231.014 -1720.01 223.034C-1691.09 215.054 -1628.07 237.398 -1597.57 250.166Z" stroke="var(--stroke-0, #4E4E50)" stroke-width="0.97" stroke-miterlimit="10"/>
<path id="Vector_8" d="M-1585.68 321.709C-1585.68 321.541 -1585.76 321.391 -1585.91 321.317C-1607.57 310.622 -1658.52 284.701 -1678.02 277.792C-1697.6 270.858 -1710.5 279.388 -1725.35 291.606C-1740.19 303.823 -1742.58 324.626 -1712.04 335.798C-1688.94 344.328 -1667.43 363.479 -1652.58 386.869C-1638.1 409.762 -1608.77 461.934 -1581.75 465.126C-1547.33 469.364 -1498.43 427.868 -1499.6 397.545C-1500.77 367.331 -1563.7 332.855 -1585.44 322.1C-1585.59 322.025 -1585.68 321.878 -1585.68 321.709ZM-1559.3 423.136C-1559.24 423.136 -1559.22 423.217 -1559.27 423.252C-1578 436.319 -1599.42 413.516 -1609.95 398.646C-1620.5 383.732 -1647.48 351.262 -1660.02 340.09C-1670.18 331.065 -1688.98 325.176 -1692.1 319.343C-1696.39 311.363 -1689.75 302.337 -1673.69 306.025C-1657.64 309.217 -1613.83 341.136 -1597.81 347.024C-1581.75 352.858 -1552.83 369.368 -1541.1 381.09C-1529.43 393.246 -1548.35 415.482 -1559.34 423.023C-1559.39 423.058 -1559.36 423.136 -1559.3 423.136Z" stroke="var(--stroke-0, #4E4E50)" stroke-width="0.97" stroke-miterlimit="10"/>
<path id="Vector_9" d="M-1424.32 282.58C-1424.35 282.58 -1424.37 282.573 -1424.39 282.555C-1465.15 244.239 -1666.14 157.489 -1713.46 154.298C-1760.78 151.106 -1827.28 210.707 -1851.15 249.56C-1874.61 288.414 -1898.47 342.182 -1872.67 362.379C-1872.67 362.379 -1786.99 411.854 -1756.09 448.616C-1725.59 484.828 -1670.01 563.03 -1628.55 587.025C-1587.09 610.469 -1520.59 608.873 -1482.61 576.403C-1444.67 543.934 -1387.15 484.828 -1376.19 449.717C-1366.06 414.689 -1383.15 321.33 -1423.63 282.855C-1423.82 282.676 -1424.06 282.58 -1424.32 282.58ZM-1397.79 424.181C-1399.37 464.08 -1467.44 526.378 -1529.61 554.06C-1591.42 581.742 -1645.02 538.65 -1664.59 513.61C-1686.52 485.378 -1732.27 434.858 -1754.59 411.964C-1777.29 389.07 -1819.92 366.176 -1841.84 350.767C-1863.77 335.853 -1854.75 309.767 -1845.36 295.403C-1835.98 281.039 -1801.92 233.105 -1773.36 215.054C-1745.57 196.948 -1708.04 177.797 -1670.86 193.206C-1633.69 208.12 -1485.44 273.06 -1454.5 293.257C-1423.65 312.927 -1395.53 384.055 -1397.38 424.538C-1397.38 424.649 -1397.47 424.731 -1397.58 424.731C-1397.7 424.731 -1397.79 424.639 -1397.79 424.524V424.181Z" fill="var(--fill-0, white)"/>
<path id="Vector_10" d="M-1585.68 321.709C-1585.68 321.541 -1585.76 321.391 -1585.91 321.317C-1607.57 310.622 -1658.52 284.701 -1678.02 277.792C-1697.6 270.858 -1710.5 279.388 -1725.35 291.606C-1740.19 303.823 -1742.58 324.626 -1712.04 335.798C-1688.94 344.328 -1667.43 363.479 -1652.58 386.869C-1638.1 409.762 -1608.77 461.934 -1581.75 465.126C-1547.33 469.364 -1498.43 427.868 -1499.6 397.545C-1500.77 367.331 -1563.7 332.855 -1585.44 322.1C-1585.59 322.025 -1585.68 321.878 -1585.68 321.709ZM-1559.3 423.136C-1559.24 423.136 -1559.22 423.217 -1559.27 423.252C-1578 436.319 -1599.42 413.516 -1609.95 398.646C-1620.5 383.732 -1647.48 351.262 -1660.02 340.09C-1670.18 331.065 -1688.98 325.176 -1692.1 319.343C-1696.39 311.363 -1689.75 302.337 -1673.69 306.025C-1657.64 309.217 -1613.83 341.136 -1597.81 347.024C-1581.75 352.858 -1552.83 369.368 -1541.1 381.09C-1529.43 393.246 -1548.35 415.482 -1559.34 423.023C-1559.39 423.058 -1559.36 423.136 -1559.3 423.136Z" fill="var(--fill-0, white)"/>
<g id="Group">
<path id="Vector_11" d="M-701.33 279.939C-701.356 279.939 -701.379 279.931 -701.398 279.913C-742.153 241.597 -943.148 154.847 -990.463 151.656C-1037.79 148.464 -1104.29 208.065 -1128.15 246.919C-1151.61 285.772 -1175.48 339.54 -1149.67 359.737C-1149.67 359.737 -1064 409.212 -1033.1 445.974C-1002.6 482.186 -947.02 560.389 -905.56 584.383C-864.099 607.827 -797.6 606.231 -759.618 573.762C-721.676 541.292 -664.157 482.186 -653.195 447.075C-643.067 412.047 -660.152 318.689 -700.635 280.214C-700.823 280.035 -701.071 279.939 -701.33 279.939ZM-674.391 421.54C-675.969 461.439 -744.045 523.736 -806.216 551.418C-868.023 579.1 -921.618 536.009 -941.196 510.969C-963.119 482.737 -1008.87 432.216 -1031.2 409.322C-1053.89 386.428 -1096.52 363.534 -1118.45 348.125C-1140.37 333.211 -1131.35 307.125 -1121.96 292.761C-1112.58 278.398 -1078.52 230.464 -1049.96 212.413C-1022.18 194.307 -984.638 175.155 -947.465 190.565C-910.292 205.479 -762.045 270.418 -731.101 290.615C-700.247 310.286 -672.134 381.414 -673.977 421.897C-673.982 422.007 -674.073 422.09 -674.184 422.09C-674.298 422.09 -674.391 421.997 -674.391 421.883V421.54Z" stroke="var(--stroke-0, #4E4E50)" stroke-width="0.97" stroke-miterlimit="10"/>
<path id="Vector_12" d="M-755.775 447.681C-731.142 411.469 -737.775 370.469 -763.987 344.933C-790.198 318.848 -864.544 283.736 -896.216 269.373C-927.928 255.504 -972.14 242.241 -992.081 246.479C-1016.71 251.267 -1048.02 293.862 -1052.31 302.888C-1056.19 311.913 -1057.37 327.378 -1036.25 336.403C-1014.73 345.484 -977.56 369.423 -957.214 388.575C-937.636 408.277 -914.175 459.348 -882.099 479.05C-850.023 498.697 -780.369 484.333 -755.735 447.626L-755.775 447.681ZM-755.775 447.681H-755.371M-879.753 246.974C-848.912 259.716 -778.31 296.848 -743.81 324.513C-743.674 324.622 -743.6 324.782 -743.6 324.956C-743.6 325.13 -743.521 325.295 -743.386 325.404C-709.132 353.148 -698.245 409.391 -712.292 442.343C-726.369 475.308 -792.504 526.433 -819.483 531.221C-846.463 536.009 -874.252 528.029 -906.328 502.494C-938.405 476.903 -965.425 429.575 -990.059 401.343C-1014.29 373.111 -1054.62 357.701 -1078.08 339.595C-1101.58 321.489 -1086.69 298.045 -1077.31 282.636C-1066.75 265.08 -1031.16 227.822 -1002.19 219.843C-973.272 211.863 -910.252 234.206 -879.753 246.974Z" stroke="var(--stroke-0, #4E4E50)" stroke-width="0.97" stroke-miterlimit="10"/>
<path id="Vector_13" d="M-852.041 321.985C-852.032 321.985 -852.028 321.973 -852.036 321.97C-874.747 311.339 -929.07 285.274 -949.811 278.343C-970.562 271.409 -984.234 279.939 -999.888 292.157C-1015.54 304.374 -1017.89 325.177 -985.811 336.348C-961.178 344.879 -938.485 364.03 -922.831 387.419C-907.177 410.313 -876.274 462.485 -848.121 465.677C-811.757 469.914 -760.103 428.419 -761.276 398.096C-762.442 367.956 -828.946 333.575 -852.033 322.73C-852.259 322.624 -852.311 322.347 -852.164 322.146L-852.047 321.988C-852.046 321.986 -852.043 321.985 -852.041 321.985ZM-823.447 423.631C-823.435 423.631 -823.431 423.647 -823.441 423.654C-843.374 436.923 -866.047 414.047 -877.002 399.141C-888.328 384.227 -916.521 351.758 -929.829 340.586C-940.386 331.56 -960.328 325.672 -963.847 319.838C-968.539 311.859 -961.097 302.833 -944.674 306.52C-927.847 309.712 -881.29 341.632 -864.099 347.52C-846.908 353.409 -816.368 369.864 -803.869 381.586C-791.49 393.686 -811.29 415.773 -822.713 423.413C-822.932 423.56 -823.183 423.631 -823.447 423.631Z" stroke="var(--stroke-0, #4E4E50)" stroke-width="0.97" stroke-miterlimit="10"/>
<path id="Vector_14" d="M-1264.35 317.802C-1284.29 313.014 -1317.54 272.565 -1335.94 247.029C-1354.31 221.439 -1357.83 194.307 -1355.88 179.944C-1353.94 165.58 -1334.77 142.136 -1324.21 135.752C-1307.79 126.176 -1286.27 131.514 -1269.04 142.136C-1251.85 152.207 -1213.91 189.464 -1207.64 222.484C-1200.97 255.42 -1244.33 322.417 -1264.29 317.76C-1264.32 317.753 -1264.35 317.774 -1264.35 317.802ZM-1264.35 317.802H-1263.94M-1285.46 161.287C-1302.54 151.775 -1330.07 167.461 -1330.44 184.878C-1330.44 185.104 -1330.51 185.325 -1330.65 185.507C-1330.78 185.683 -1330.85 185.896 -1330.85 186.114C-1331.19 203.497 -1326.86 216.251 -1310.9 239.545C-1294.89 262.989 -1267.5 296.009 -1254.96 285.333C-1242.42 274.656 -1226 233.161 -1233.44 215.055C-1240.85 196.949 -1268.23 170.863 -1285.46 161.287Z" stroke="var(--stroke-0, #4E4E50)" stroke-width="0.97" stroke-miterlimit="10"/>
<path id="Vector_15" d="M-1254.54 250.661C-1254.55 250.661 -1254.55 250.652 -1254.55 250.645C-1246.75 236.286 -1250.64 220.829 -1258.85 209.166C-1267.06 197.499 -1284.65 184.126 -1292.5 182.53C-1300.35 180.934 -1308.56 189.464 -1308.15 198.49C-1307.75 207.515 -1303.46 216.596 -1289.75 234.701C-1276.13 252.689 -1262.54 264.375 -1255.07 250.391C-1255 250.266 -1254.82 250.244 -1254.74 250.358L-1254.53 250.643C-1254.52 250.651 -1254.53 250.661 -1254.54 250.661Z" stroke="var(--stroke-0, #4E4E50)" stroke-width="0.97" stroke-miterlimit="10"/>
<path id="Vector_16" d="M-1460.77 589.172C-1420.99 557.653 -1378.92 500.163 -1344.34 455.169C-1343.46 454.027 -1342.71 452.804 -1342.09 451.504C-1332.81 432.147 -1315.95 400.74 -1325.02 368.818C-1339.1 321.489 -1384.08 245.378 -1438.85 215.55C-1496.73 184.126 -1592.96 148.465 -1639.92 128.763C-1693.52 106.419 -1749.86 113.849 -1791.32 146.318C-1829.26 176.146 -1858.99 213.954 -1891.07 275.151C-1905.15 301.182 -1923.15 329.965 -1923.15 353.904C-1922.82 362.161 -1917.6 369.052 -1911.06 375.034C-1909.76 376.227 -1908.27 377.176 -1906.68 377.948C-1874.31 393.689 -1828.59 422.47 -1786.99 459.843C-1743.19 499.247 -1688.42 572.166 -1643.8 611.02C-1599.24 649.866 -1513.95 630.674 -1460.76 589.196C-1460.75 589.188 -1460.76 589.172 -1460.77 589.172ZM-1460.77 589.172H-1460.36M-744.045 595.556C-704.263 564.037 -662.194 506.547 -627.612 461.553C-626.734 460.411 -625.99 459.187 -625.367 457.888C-616.085 438.531 -599.224 407.124 -608.296 375.202C-622.373 327.873 -667.353 251.762 -722.121 221.934C-780.005 190.51 -876.234 154.849 -923.196 135.147C-976.791 112.803 -1033.14 120.233 -1074.6 152.702C-1112.54 182.53 -1142.27 220.338 -1174.35 281.535C-1188.42 307.566 -1206.42 336.349 -1206.42 360.288C-1206.09 368.545 -1200.88 375.436 -1194.34 381.418C-1193.04 382.611 -1191.55 383.559 -1189.96 384.332C-1157.59 400.073 -1111.87 428.854 -1070.27 466.227C-1026.46 505.631 -971.695 578.55 -927.079 617.404C-882.512 656.25 -797.229 637.058 -744.036 595.58C-744.026 595.572 -744.032 595.556 -744.045 595.556ZM-744.045 595.556H-743.641M-25.3793 602.49C14.4026 570.971 56.4721 513.481 91.0538 468.488C91.9319 467.345 92.6761 466.122 93.2991 464.822C102.581 445.465 119.441 414.058 110.369 382.136C96.2928 334.808 51.3129 258.696 -3.45571 228.868C-61.3389 197.444 -157.568 161.783 -204.53 142.081C-258.126 119.737 -314.472 127.167 -355.932 159.636C-393.874 189.464 -423.604 227.272 -455.681 288.469C-469.757 314.5 -488.162 343.283 -487.757 367.222C-487.426 375.479 -482.213 382.37 -475.674 388.352C-474.371 389.545 -472.88 390.493 -471.291 391.266C-438.923 407.007 -393.203 435.788 -351.604 473.161C-307.797 512.565 -253.029 585.484 -208.413 624.338C-163.847 663.184 -78.5638 643.992 -25.3706 602.514C-25.3602 602.506 -25.3661 602.49 -25.3793 602.49ZM-25.3793 602.49H-24.9749M691.345 608.874C731.127 577.355 773.196 519.865 807.778 474.871C808.656 473.729 809.4 472.505 810.023 471.206C819.305 451.849 836.165 420.442 827.093 388.52C813.017 341.191 768.037 265.08 713.268 235.252C655.385 203.828 559.156 168.167 512.194 148.465C458.599 126.121 402.253 133.551 360.792 166.02C322.85 195.848 293.12 233.656 261.043 294.853C246.967 320.884 228.563 349.667 228.967 373.606C229.298 381.863 234.512 388.754 241.05 394.736C242.354 395.928 243.845 396.877 245.433 397.65C277.801 413.39 323.521 442.171 365.12 479.545C408.927 518.949 463.695 591.868 508.311 630.722C552.878 669.568 638.161 650.376 691.354 608.898C691.364 608.89 691.358 608.874 691.345 608.874ZM691.345 608.874H691.749M874.46 379.495C875.987 384.129 877.23 388.145 878.106 391.779C879.231 396.447 884.758 399.507 889.154 397.577C907.499 389.52 922.895 389.418 932.937 394.303C932.972 394.32 933.002 394.273 932.973 394.247C932.951 394.226 932.965 394.189 932.996 394.189H933.314C932.609 394.189 932.303 395.219 932.876 395.629C951.653 409.067 982.269 470.028 937.601 450.598C891.044 430.401 828.833 484.113 794.815 538.431C761.161 592.199 673.143 685.865 595.278 701.825C517.412 717.785 460.298 638.977 404.356 576.184C341.541 505.95 274.608 467.201 232.216 448.219C230.904 447.632 229.544 447.232 228.164 446.831C226.096 446.23 223.902 445.347 221.282 444.159C174.724 423.962 112.513 477.674 78.4949 531.992C44.8409 585.76 -43.1772 679.426 -121.042 695.386C-198.908 711.346 -256.022 632.538 -311.964 569.745C-376.098 498.298 -444.017 459.518 -486.023 441.119C-487.109 440.643 -488.219 440.29 -489.362 439.975C-491.547 439.374 -494.284 438.466 -497.02 437.225C-543.577 417.027 -605.789 470.74 -639.807 525.058C-673.461 578.825 -761.479 672.492 -839.344 688.452C-917.209 704.412 -974.324 625.604 -1030.27 562.811C-1093.08 492.576 -1160.01 453.828 -1202.41 434.846C-1203.72 434.259 -1205.08 433.859 -1206.46 433.458C-1208.53 432.857 -1210.72 431.974 -1213.34 430.786C-1259.9 410.589 -1322.11 464.301 -1356.13 518.619C-1389.78 572.386 -1477.8 666.053 -1555.66 682.013C-1633.53 697.973 -1690.64 619.165 -1746.59 556.372C-1832.62 460.008 -1926.54 422.751 -1953.52 414.771C-1956.16 414 -1958.35 412.984 -1960.21 411.718C-1964.01 409.143 -1967.68 406.18 -1972.09 404.926C-1983.45 401.693 -1993.59 398.114 -2000.45 394.574C-2026.66 380.76 -2023.91 360.508 -2036.04 325.397C-2047.77 290.231 -2003.97 349.336 -1980.1 349.336C-1956.23 349.336 -1936.29 311.583 -1918.29 276.967C-1900.29 242.407 -1857.25 145.493 -1797.79 115.169C-1704.68 67.7858 -1627.58 92.826 -1555.22 126.892C-1526.4 140.334 -1492.8 153.258 -1462.25 166.618C-1460.33 167.459 -1458.29 168.017 -1456.2 168.16C-1441.39 169.166 -1425.48 166.615 -1416.72 155.674C-1398.72 133.826 -1381.12 103.502 -1367.41 90.1844C-1343.91 67.8409 -1316.53 67.2905 -1289.55 71.0327C-1262.53 74.72 -1224.58 97.6138 -1199.55 130.634C-1190.16 142.906 -1177.66 171.083 -1166.7 184.401C-1156.5 196.791 -1145.29 180.605 -1138.11 173.591C-1137.11 172.617 -1136.13 171.632 -1135.26 170.544C-1118.79 149.956 -1100.79 131.461 -1080.22 121.113C-987.106 73.7294 -910.009 98.7695 -837.645 132.835C-772.683 163.709 -684.261 189.795 -659.627 229.199C-644.742 253.688 -618.935 299.971 -597.416 323.416C-588.031 334.092 -580.184 341.026 -574.724 346.86C-564.53 355.39 -568.454 362.82 -544.589 362.82C-520.723 362.82 -500.782 325.012 -482.782 290.451C-464.782 255.89 -421.744 158.976 -362.283 128.653C-269.168 81.269 -192.071 106.309 -119.707 140.375C-90.8912 153.817 -57.287 166.742 -26.74 180.102C-24.8186 180.942 -22.781 181.501 -20.6887 181.643C-5.87882 182.649 10.0328 180.098 18.7915 169.157C36.7916 147.309 54.387 116.986 68.0994 103.668C91.196 81.324 118.985 80.7736 145.964 84.5159C172.985 88.2031 210.926 111.097 235.965 144.117C245.349 156.39 257.848 184.567 268.81 197.885C279.007 210.274 290.219 194.088 297.4 187.074C298.396 186.101 299.38 185.115 300.25 184.027C316.723 163.439 334.721 144.944 355.291 134.596C448.405 87.2125 525.502 112.253 597.866 146.318C662.828 177.192 751.251 203.278 775.885 242.682C790.77 267.172 816.577 313.455 838.096 336.899C859.575 360.838 869.768 366.177 874.46 379.495ZM128.41 112.803C96.3429 106.916 83.4378 125.56 60.3543 164.389C60.3452 164.404 60.3559 164.424 60.3737 164.424C60.5511 164.424 60.6585 164.621 60.5674 164.774C44.0466 192.379 55.3551 224.665 64.2972 245.874C79.1421 271.409 102.239 310.263 121.007 331.01C131.969 343.228 140.181 350.712 146.046 356.546C155.066 364.03 148.796 369.864 172.661 369.864C196.527 369.864 216.468 332.111 234.468 297.495C237.987 291.111 242.275 282.581 246.967 273.005C267.677 216.596 222.697 168.662 206.275 151.106C189.812 133.055 160.082 118.141 128.41 112.803ZM-1306.98 98.9897C-1339.05 93.1029 -1351.95 111.746 -1375.04 150.576C-1375.04 150.591 -1375.03 150.611 -1375.02 150.611C-1374.84 150.611 -1374.73 150.808 -1374.82 150.96C-1391.34 178.566 -1380.03 210.852 -1371.09 232.06C-1356.25 257.596 -1333.15 296.449 -1314.38 317.197C-1303.42 329.414 -1295.21 336.899 -1289.34 342.732C-1280.32 350.217 -1286.59 356.05 -1262.73 356.05C-1238.86 356.05 -1218.92 318.298 -1200.92 283.682C-1197.4 277.298 -1193.12 268.768 -1188.42 259.192C-1167.71 202.783 -1212.69 154.848 -1229.12 137.293C-1245.58 119.242 -1275.31 104.328 -1306.98 98.9897Z" stroke="var(--stroke-0, #4E4E50)" stroke-width="0.97" stroke-miterlimit="10"/>
<path id="Vector_17" d="M170.68 331.12C150.738 326.332 117.489 285.882 99.0841 260.347C80.7201 234.756 77.201 207.625 79.1426 193.261C81.0842 178.898 100.257 155.453 110.814 149.069C127.237 139.494 148.756 144.832 165.988 155.453C183.179 165.524 221.12 202.782 227.39 235.802C234.058 268.738 190.698 335.735 170.732 331.077C170.705 331.071 170.68 331.092 170.68 331.12ZM170.68 331.12H171.084M149.525 174.55C132.447 165.038 104.912 180.724 104.548 198.141C104.544 198.367 104.472 198.588 104.339 198.77C104.21 198.946 104.137 199.159 104.133 199.377C103.791 216.759 108.126 229.513 124.082 252.807C140.1 276.252 167.484 309.271 180.024 298.595C192.563 287.919 208.985 246.423 201.543 228.317C194.14 210.211 166.716 184.126 149.525 174.55Z" stroke="var(--stroke-0, #4E4E50)" stroke-width="0.97" stroke-miterlimit="10"/>
<path id="Vector_18" d="M180.85 263.979C180.842 263.979 180.837 263.97 180.841 263.963C188.636 249.604 184.752 234.147 176.544 222.484C168.333 210.817 150.737 197.444 142.89 195.848C135.043 194.252 126.832 202.782 127.236 211.808C127.236 220.833 131.929 229.914 145.641 248.02C159.263 266.007 172.846 277.694 180.321 263.709C180.387 263.585 180.566 263.562 180.65 263.676L180.859 263.962C180.865 263.969 180.86 263.979 180.85 263.979Z" stroke="var(--stroke-0, #4E4E50)" stroke-width="0.97" stroke-miterlimit="10"/>
<path id="Vector_19" d="M-555.833 115.004C-538.642 125.075 -500.701 162.332 -494.431 195.352C-487.757 228.317 -531.2 295.403 -551.141 290.615C-571.083 285.827 -604.332 245.378 -622.737 219.842C-641.101 194.252 -644.62 167.12 -642.678 152.756C-640.737 138.393 -621.564 114.949 -611.006 108.565C-594.599 98.9976 -573.104 104.318 -555.88 114.92C-555.851 114.938 -555.833 114.969 -555.833 115.004ZM-555.833 115.004H-555.429M-597.294 212.358C-581.39 235.635 -554.242 268.297 -541.622 258.366C-541.585 258.337 -541.526 258.382 -541.554 258.42C-541.582 258.458 -541.542 258.51 -541.507 258.479C-529.001 247.469 -512.844 206.404 -520.238 188.418C-527.64 170.312 -555.065 144.226 -572.256 134.651C-589.447 125.075 -617.236 141.034 -617.236 158.59C-617.64 176.146 -613.312 188.913 -597.294 212.358Z" stroke="var(--stroke-0, #4E4E50)" stroke-width="0.97" stroke-miterlimit="10"/>
<path id="Vector_20" d="M-578.928 155.949C-578.93 155.949 -578.931 155.949 -578.932 155.948C-586.738 154.354 -594.989 162.884 -594.584 171.909C-594.584 180.934 -589.892 190.015 -576.18 208.121C-562.467 226.227 -548.795 237.949 -541.353 223.53C-533.546 209.166 -537.429 193.702 -545.64 182.035C-553.725 170.547 -570.907 157.407 -578.924 155.481C-579.057 155.449 -579.146 155.601 -579.065 155.711L-578.913 155.918C-578.903 155.931 -578.912 155.949 -578.928 155.949Z" stroke="var(--stroke-0, #4E4E50)" stroke-width="0.97" stroke-miterlimit="10"/>
<path id="Vector_21" d="M17.3362 286.873C17.3102 286.873 17.2874 286.865 17.2684 286.848C-23.4862 248.531 -224.481 161.782 -271.797 158.591C-319.123 155.399 -385.621 215 -409.487 253.853C-432.947 292.707 -456.813 346.474 -431.006 366.672C-431.006 366.672 -345.334 416.146 -314.43 452.909C-283.932 489.121 -228.354 567.323 -186.893 591.318C-145.433 614.762 -78.9335 613.166 -40.9515 580.696C-3.00985 548.227 54.5093 489.121 65.4711 454.009C75.5997 418.982 58.5145 325.623 18.0312 287.148C17.8429 286.969 17.5959 286.873 17.3362 286.873ZM43.9115 428.474C42.3339 468.373 -25.7426 530.671 -87.9135 558.353C-149.72 586.034 -203.316 542.943 -222.893 517.903C-244.817 489.671 -290.565 439.15 -312.893 416.257C-335.585 393.363 -378.219 370.469 -400.143 355.059C-422.066 340.145 -413.046 314.06 -403.662 299.696C-394.278 285.332 -360.219 237.398 -331.662 219.347C-303.873 201.241 -266.336 182.09 -229.163 197.499C-191.99 212.413 -43.7426 277.352 -12.7988 297.55C18.0555 317.22 46.168 388.348 44.3249 428.831C44.3199 428.942 44.229 429.024 44.1185 429.024C44.0042 429.024 43.9115 428.932 43.9115 428.817V428.474Z" stroke="var(--stroke-0, #4E4E50)" stroke-width="0.97" stroke-miterlimit="10"/>
<path id="Vector_22" d="M-37.5139 455.11C-12.8802 418.898 -19.5138 377.898 -45.7251 352.363C-71.9363 326.277 -146.283 291.166 -177.955 276.802C-209.667 262.934 -253.878 249.671 -273.82 253.908C-298.453 258.696 -329.761 301.292 -334.049 310.317C-337.932 319.343 -339.105 334.807 -317.991 343.833C-296.471 352.913 -259.298 376.853 -238.952 396.004C-219.375 415.706 -195.914 466.777 -163.838 486.479C-131.761 506.126 -62.1072 491.762 -37.4735 455.055L-37.5139 455.11ZM-37.5139 455.11H-37.1095M-161.492 253.853C-130.651 266.595 -60.0483 303.727 -25.5485 331.392C-25.4128 331.501 -25.3386 331.662 -25.3386 331.835C-25.3386 332.009 -25.2597 332.174 -25.1244 332.284C9.12932 360.027 20.0164 416.27 5.96925 449.222C-8.10717 482.187 -74.2421 533.313 -101.222 538.1C-128.202 542.888 -155.99 534.908 -188.067 509.373C-220.143 483.782 -247.164 436.454 -271.797 408.222C-296.026 379.99 -336.719 364.58 -359.815 346.474C-383.317 328.368 -368.431 304.924 -359.047 289.515C-348.489 271.959 -312.853 234.702 -283.932 226.722C-255.011 218.742 -191.991 241.086 -161.492 253.853Z" stroke="var(--stroke-0, #4E4E50)" stroke-width="0.97" stroke-miterlimit="10"/>
<path id="Vector_23" d="M-133.335 328.919C-133.326 328.919 -133.322 328.908 -133.33 328.905C-156.041 318.274 -210.364 292.209 -231.105 285.278C-251.856 278.344 -265.528 286.874 -281.182 299.092C-296.836 311.309 -299.182 332.111 -267.105 343.283C-242.472 351.813 -219.78 370.965 -204.126 394.354C-188.472 417.248 -157.568 469.42 -129.415 472.612C-93.0512 476.849 -41.3973 435.354 -42.5703 405.031C-43.7363 374.891 -110.24 340.51 -133.327 329.665C-133.553 329.559 -133.606 329.282 -133.458 329.081L-133.341 328.923C-133.34 328.921 -133.337 328.919 -133.335 328.919ZM-105.591 430.566C-105.579 430.566 -105.575 430.582 -105.585 430.589C-125.518 443.858 -148.19 420.982 -159.146 406.076C-170.472 391.162 -198.665 358.693 -211.973 347.521C-222.53 338.495 -242.472 332.607 -245.991 326.773C-250.683 318.793 -243.24 309.768 -226.818 313.455C-209.991 316.647 -163.433 348.566 -146.242 354.455C-129.051 360.344 -98.5119 376.799 -86.0131 388.521C-73.6341 400.621 -93.4331 422.708 -104.856 430.348C-105.076 430.495 -105.327 430.566 -105.591 430.566Z" stroke="var(--stroke-0, #4E4E50)" stroke-width="0.97" stroke-miterlimit="10"/>
<path id="Vector_24" d="M-701.33 279.939C-701.356 279.939 -701.379 279.931 -701.398 279.913C-742.153 241.597 -943.148 154.847 -990.463 151.656C-1037.79 148.464 -1104.29 208.065 -1128.15 246.919C-1151.61 285.772 -1175.48 339.54 -1149.67 359.737C-1149.67 359.737 -1064 409.212 -1033.1 445.974C-1002.6 482.186 -947.02 560.389 -905.56 584.383C-864.099 607.827 -797.6 606.231 -759.618 573.762C-721.676 541.292 -664.157 482.186 -653.195 447.075C-643.067 412.047 -660.152 318.689 -700.635 280.214C-700.823 280.035 -701.071 279.939 -701.33 279.939ZM-674.391 421.54C-675.969 461.439 -744.045 523.736 -806.216 551.418C-868.023 579.1 -921.618 536.009 -941.196 510.969C-963.119 482.737 -1008.87 432.216 -1031.2 409.322C-1053.89 386.428 -1096.52 363.534 -1118.45 348.125C-1140.37 333.211 -1131.35 307.125 -1121.96 292.761C-1112.58 278.398 -1078.52 230.464 -1049.96 212.413C-1022.18 194.307 -984.638 175.155 -947.465 190.565C-910.292 205.479 -762.045 270.418 -731.101 290.615C-700.247 310.286 -672.134 381.414 -673.977 421.897C-673.982 422.007 -674.073 422.09 -674.184 422.09C-674.298 422.09 -674.391 421.997 -674.391 421.883V421.54Z" fill="var(--fill-0, white)"/>
<path id="Vector_25" d="M-743.6 324.956C-743.6 324.782 -743.674 324.622 -743.81 324.513C-778.31 296.848 -848.912 259.716 -879.753 246.974C-910.252 234.206 -973.272 211.863 -1002.19 219.843C-1031.16 227.822 -1066.75 265.08 -1077.31 282.636C-1086.69 298.045 -1101.58 321.489 -1078.08 339.595C-1054.62 357.701 -1014.29 373.111 -990.059 401.343C-965.425 429.575 -938.405 476.903 -906.328 502.494C-874.252 528.029 -846.463 536.009 -819.483 531.221C-792.504 526.433 -726.369 475.308 -712.292 442.343C-698.245 409.391 -709.132 353.148 -743.386 325.404C-743.521 325.295 -743.6 325.13 -743.6 324.956ZM-755.735 447.626C-780.369 484.333 -850.023 498.697 -882.099 479.05C-914.175 459.348 -937.636 408.277 -957.214 388.575C-977.56 369.423 -1014.73 345.484 -1036.25 336.403C-1057.37 327.378 -1056.19 311.913 -1052.31 302.888C-1048.02 293.862 -1016.71 251.267 -992.081 246.479C-972.14 242.241 -927.928 255.504 -896.216 269.373C-864.544 283.736 -790.198 318.848 -763.987 344.933C-737.775 370.469 -731.142 411.469 -755.775 447.681L-755.735 447.626Z" fill="var(--fill-0, white)"/>
<path id="Vector_26" d="M-1254.54 250.661C-1254.55 250.661 -1254.55 250.652 -1254.55 250.645C-1246.75 236.286 -1250.64 220.829 -1258.85 209.166C-1267.06 197.499 -1284.65 184.126 -1292.5 182.53C-1300.35 180.934 -1308.56 189.464 -1308.15 198.49C-1307.75 207.515 -1303.46 216.596 -1289.75 234.701C-1276.13 252.689 -1262.54 264.375 -1255.07 250.391C-1255 250.266 -1254.82 250.244 -1254.74 250.358L-1254.53 250.643C-1254.52 250.651 -1254.53 250.661 -1254.54 250.661Z" fill="var(--fill-0, white)"/>
<path id="Vector_27" d="M180.85 263.979C180.842 263.979 180.837 263.97 180.841 263.963C188.636 249.604 184.752 234.147 176.544 222.484C168.333 210.817 150.737 197.444 142.89 195.848C135.043 194.252 126.832 202.782 127.236 211.808C127.236 220.833 131.929 229.914 145.641 248.02C159.263 266.007 172.846 277.694 180.321 263.709C180.387 263.585 180.566 263.562 180.65 263.676L180.859 263.962C180.865 263.969 180.86 263.979 180.85 263.979Z" fill="var(--fill-0, #F3F3F3)"/>
<path id="Vector_28" d="M-555.833 115.004C-555.833 114.969 -555.851 114.938 -555.88 114.92C-573.104 104.318 -594.599 98.9976 -611.006 108.565C-621.564 114.949 -640.737 138.393 -642.678 152.756C-644.62 167.12 -641.101 194.252 -622.737 219.842C-604.332 245.378 -571.083 285.827 -551.141 290.615C-531.2 295.403 -487.757 228.317 -494.431 195.352C-500.701 162.332 -538.642 125.075 -555.833 115.004ZM-541.554 258.42C-541.526 258.382 -541.585 258.337 -541.622 258.366C-554.242 268.297 -581.39 235.635 -597.294 212.358C-613.312 188.913 -617.64 176.146 -617.236 158.59C-617.236 141.034 -589.447 125.075 -572.256 134.651C-555.065 144.226 -527.64 170.312 -520.238 188.418C-512.844 206.404 -529.001 247.469 -541.507 258.479C-541.542 258.51 -541.582 258.458 -541.554 258.42Z" fill="var(--fill-0, white)"/>
<path id="Vector_29" d="M-25.3386 331.835C-25.3386 331.662 -25.4128 331.501 -25.5485 331.392C-60.0483 303.727 -130.651 266.595 -161.492 253.853C-191.991 241.086 -255.011 218.742 -283.932 226.722C-312.853 234.702 -348.489 271.959 -359.047 289.515C-368.431 304.924 -383.317 328.368 -359.815 346.474C-336.719 364.58 -296.026 379.99 -271.797 408.222C-247.164 436.454 -220.143 483.782 -188.067 509.373C-155.99 534.908 -128.202 542.888 -101.222 538.1C-74.2421 533.313 -8.10717 482.187 5.96925 449.222C20.0164 416.27 9.12932 360.027 -25.1244 332.284C-25.2597 332.174 -25.3386 332.009 -25.3386 331.835ZM-37.4735 455.055C-62.1072 491.762 -131.761 506.126 -163.838 486.479C-195.914 466.777 -219.375 415.706 -238.952 396.004C-259.298 376.853 -296.471 352.913 -317.991 343.833C-339.105 334.807 -337.932 319.343 -334.049 310.317C-329.761 301.292 -298.453 258.696 -273.82 253.908C-253.878 249.671 -209.667 262.934 -177.955 276.802C-146.283 291.166 -71.9363 326.277 -45.7251 352.363C-19.5138 377.898 -12.8802 418.898 -37.5139 455.11L-37.4735 455.055Z" fill="var(--fill-0, #ECECEC)"/>
<path id="Vector_30" d="M-1729.57 38.6279C-1729.51 38.7518 -1729.39 38.8245 -1729.25 38.8041C-1704.9 35.0928 -1654.22 34.6451 -1608.21 49.4593C-1574.19 60.6311 -1536.21 84.5706 -1507.65 100.035C-1479.09 115.995 -1447.02 135.697 -1428.61 127.166C-1410.21 118.636 -1370.73 44.6714 -1344.11 37.1869C-1317.13 29.7574 -1230.65 47.313 -1197.81 88.8082C-1164.96 130.303 -1153.19 146.318 -1138.35 133.495C-1123.46 120.727 -1068.33 69.1062 -1047.98 61.6217C-1027.64 54.1372 -1015.5 44.066 -994.791 44.066C-991.855 44.066 -989.354 43.7161 -987.242 43.1236C-983.208 41.992 -979.238 40.2137 -975.049 40.1485C-949.017 39.7431 -914.608 42.7928 -882.503 53.0915C-848.485 64.2633 -810.503 88.2028 -781.946 103.667C-753.389 119.627 -721.312 139.329 -702.908 130.799C-684.503 122.268 -645.024 48.3036 -618.409 40.8191C-591.429 33.3896 -504.948 50.9452 -472.103 92.4403C-439.258 133.935 -427.487 149.95 -412.642 137.127C-397.757 124.36 -342.624 72.7384 -322.278 65.2538C-308.843 60.1589 -299.314 54.1116 -288.275 50.7958C-287.219 50.4788 -286.144 50.2832 -285.046 50.1821C-258.596 47.7463 -213.832 49.0169 -173.222 62.062C-139.204 73.2337 -101.222 97.1732 -72.6642 112.638C-44.1069 128.597 -12.0305 148.299 6.37401 139.769C24.7785 131.239 64.2573 57.274 90.873 49.7895C117.853 42.36 204.334 59.9156 237.179 101.411C270.024 142.906 281.795 158.921 296.64 146.098C311.525 133.33 366.658 81.7088 387.004 74.2243C407.35 66.7398 419.485 56.6687 440.195 56.6687C462.482 56.6687 462.887 37.5171 433.561 30.0325C404.235 22.548 371.754 50.7801 343.197 73.674C314.64 96.0176 293.889 134.376 272.37 111.482C244.581 82.2042 235.197 68.8861 213.678 55.0727C186.698 38.0674 121.332 18.8608 89.2552 22.0527C57.1788 25.2446 23.1203 97.1182 1.23709 105.593C-20.6865 114.123 -58.6283 86.9371 -89.9362 68.3358C-123.186 49.1842 -176.013 27.3359 -210.031 18.3104C-235.473 11.3762 -271.837 14.0728 -295.703 20.4567C-319.568 25.2446 -344.202 46.5425 -366.53 64.0982C-395.087 86.4417 -415.838 124.8 -437.357 101.906C-465.146 72.6283 -474.53 59.3103 -496.049 45.4969C-523.029 28.4916 -588.395 9.28494 -620.471 12.4769C-652.548 15.6688 -686.606 87.5424 -708.49 96.0175C-730.413 104.548 -768.355 77.3612 -799.663 58.7599C-832.912 39.6083 -885.739 17.7601 -919.757 8.73465C-949.035 1.07419 -993.113 5.68705 -1015.63 14.54C-1017.45 15.2532 -1019.32 15.7686 -1021.23 16.1223C-1045.39 20.5788 -1070.49 41.9238 -1093.04 59.8606C-1121.6 82.2041 -1142.35 120.562 -1163.87 97.6686C-1191.66 68.3908 -1201.04 55.0727 -1222.56 41.2594C-1249.54 24.2541 -1314.91 5.04743 -1346.98 8.23937C-1379.06 11.4313 -1413.12 83.3048 -1435 91.78C-1456.93 100.31 -1494.87 73.1236 -1526.18 54.5224C-1559.43 35.3707 -1612.25 13.5225 -1646.27 4.49706C-1676.34 -3.48119 -1722.03 1.39852 -1743.85 10.7352C-1748.72 12.8191 -1751.88 17.6031 -1751.3 22.8682C-1750.52 29.879 -1746.87 38.6036 -1733.18 37.1798C-1732.14 37.0718 -1731.08 37.3455 -1730.27 38.0082L-1729.65 38.5175C-1729.62 38.5472 -1729.59 38.585 -1729.57 38.6279Z" stroke="var(--stroke-0, #4E4E50)" stroke-width="0.97" stroke-miterlimit="10"/>
</g>
</g>
</g>
</g>
</svg>
