<svg preserveAspectRatio="none" width="100%" height="100%" overflow="visible" style="display: block;" viewBox="0 0 144 57" fill="none" xmlns="http://www.w3.org/2000/svg">
<g id="BUUZ_logo 2" clip-path="url(#clip0_0_258)">
<path id="Vector" d="M21.1079 25.4487C19.6835 25.4487 18.5827 24.3451 18.5827 22.9169C18.5827 21.4886 19.6835 20.385 21.1079 20.385C23.8273 20.385 26.0288 18.3724 26.0288 16.0353C26.0288 13.6982 23.8273 11.6856 21.1079 11.6856H2.52518C1.10072 11.6856 0 10.582 0 9.15376C0 7.72551 1.10072 6.62187 2.52518 6.62187H21.1079C26.5468 6.62187 30.9496 10.8417 30.9496 16.1002C30.9496 21.3588 26.6115 25.5786 21.1079 25.5786" fill="var(--fill-0, white)"/>
<path id="Vector_2" d="M2.71942 39.861C1.29496 39.861 0.194245 38.7574 0.194245 37.3292V9.02392C0.194245 7.59567 1.29496 6.49203 2.71942 6.49203C4.14388 6.49203 5.2446 7.59567 5.2446 9.02392V37.3292C5.2446 38.7574 4.14388 39.861 2.71942 39.861Z" fill="var(--fill-0, white)"/>
<path id="Vector_3" d="M21.4964 39.861H2.71942C1.29496 39.861 0.194245 38.7574 0.194245 37.3292C0.194245 35.9009 1.29496 34.7973 2.71942 34.7973H21.4317C24.3453 34.7973 26.5468 32.59 26.5468 30.0581C26.5468 27.5262 24.1511 25.3189 21.4317 25.3189C18.7122 25.3189 18.9065 24.2153 18.9065 22.787C18.9065 21.3588 20.0072 20.2551 21.4317 20.2551C27.0647 20.2551 31.4676 24.6048 31.4676 29.9282C31.4676 35.2517 26.9353 39.6014 21.4317 39.6014" fill="var(--fill-0, white)"/>
<path id="Vector_4" d="M48.0432 40.2506C40.4029 40.2506 34.187 33.8884 34.187 25.8383V21.4886C34.187 20.0604 35.2878 18.9567 36.7122 18.9567C38.1367 18.9567 39.2374 20.0604 39.2374 21.4886V25.8383C39.2374 31.1617 43.2518 35.3166 47.9784 35.3166C52.705 35.3166 56.7194 31.0968 56.7194 25.8383V21.4886C56.7194 20.0604 57.8201 18.9567 59.2446 18.9567C60.6691 18.9567 61.7698 20.0604 61.7698 21.4886V25.8383C61.7698 33.8884 55.554 40.2506 47.9137 40.2506" fill="var(--fill-0, white)"/>
<path id="Vector_5" d="M77.3094 27.9806C69.6691 27.9806 63.4532 21.6184 63.4532 13.5683V9.21868C63.4532 7.79043 64.554 6.68679 65.9784 6.68679C67.4029 6.68679 68.5036 7.79043 68.5036 9.21868V13.5683C68.5036 18.8918 72.518 23.0467 77.2446 23.0467C81.9712 23.0467 85.9856 18.8269 85.9856 13.5683V9.21868C85.9856 7.79043 87.0863 6.68679 88.5108 6.68679C89.9353 6.68679 91.036 7.79043 91.036 9.21868V13.5683C91.036 21.6184 84.8201 27.9806 77.1799 27.9806" fill="var(--fill-0, white)"/>
<path id="Vector_6" d="M123.41 39.861H97.5755C96.6691 39.861 95.7626 39.3417 95.1799 38.4328C94.7914 37.5239 94.9856 36.4203 95.5684 35.7062L117.583 11.6207H98.2878C96.8633 11.6207 95.7626 10.5171 95.7626 9.08884C95.7626 7.66059 96.8633 6.55695 98.2878 6.55695H123.216C124.122 6.55695 125.029 7.07631 125.612 7.98519C126 8.89408 125.806 9.99772 125.223 10.7118L103.209 34.7973H123.41C124.835 34.7973 125.935 35.9009 125.935 37.3292C125.935 38.7574 124.835 39.861 123.41 39.861Z" fill="var(--fill-0, white)"/>
<path id="Vector_7" d="M21.1079 25.4487C19.6835 25.4487 18.5827 24.3451 18.5827 22.9169C18.5827 21.4886 19.6835 20.385 21.1079 20.385C23.8273 20.385 26.0288 18.3724 26.0288 16.0353C26.0288 13.6982 23.8273 11.6856 21.1079 11.6856H2.52518C1.10072 11.6856 0 10.582 0 9.15376C0 7.72551 1.10072 6.62187 2.52518 6.62187H21.1079C26.5468 6.62187 30.9496 10.8417 30.9496 16.1002C30.9496 21.3588 26.6115 25.5786 21.1079 25.5786" fill="var(--fill-0, white)"/>
<path id="Vector_8" d="M48.0432 40.2506C40.4029 40.2506 34.187 33.8884 34.187 25.8383V21.4886C34.187 20.0604 35.2878 18.9567 36.7122 18.9567C38.1367 18.9567 39.2374 20.0604 39.2374 21.4886V25.8383C39.2374 31.1617 43.2518 35.3166 47.9784 35.3166C52.705 35.3166 50.5036 36.4203 50.5036 37.8485C50.5036 39.2768 49.4029 40.3804 47.9784 40.3804" fill="var(--fill-0, white)"/>
<path id="Vector_9" d="M114.993 39.8607H97.5108C96.0863 39.8607 94.9856 38.757 94.9856 37.3288C94.9856 35.9005 96.0863 34.7969 97.5108 34.7969H114.993C116.417 34.7969 117.518 35.9005 117.518 37.3288C117.518 38.757 116.417 39.8607 114.993 39.8607Z" fill="var(--fill-0, white)"/>
<path id="Vector_10" d="M97.5108 39.861C96.9928 39.861 96.2158 39.6663 95.8921 39.1469C94.7914 38.238 94.7914 36.615 95.8921 35.7061L109.554 20.7745C110.46 19.6708 112.079 19.6708 112.986 20.7745C114.086 21.6834 114.086 23.3064 112.986 24.2153L99.3237 39.1469C98.8058 39.6663 98.223 39.861 97.5108 39.861Z" fill="var(--fill-0, white)"/>
<path id="Vector_11" d="M77.3094 27.9806C72.3885 27.9806 67.8561 25.254 65.3309 20.7096C64.6187 19.4112 65.1367 17.9829 66.2374 17.2688C67.5324 16.5547 68.9568 17.074 69.6691 18.1777C71.2878 21.0991 74.2014 22.9169 77.3094 22.9169C80.4173 22.9169 83.3309 21.0991 84.9496 18.1777C85.6619 16.8793 87.1511 16.5547 88.3813 17.2688C89.6763 17.9829 90 19.4761 89.2878 20.7096C86.8921 25.254 82.1655 27.9806 77.3094 27.9806Z" fill="var(--fill-0, white)"/>
<path id="Vector_12" d="M21.4964 25.4487H13.3381C11.9137 25.4487 10.813 24.3451 10.813 22.9169C10.813 21.4886 11.9137 20.385 13.3381 20.385H21.4964C22.9209 20.385 24.0216 21.4886 24.0216 22.9169C24.0216 24.3451 22.9209 25.4487 21.4964 25.4487Z" fill="var(--fill-0, white)"/>
<g id="Group">
<path id="Vector_13" d="M3.10791 55.5718H3.82014C4.20863 55.5718 4.33813 55.1822 4.33813 54.8576C4.33813 54.533 4.33813 54.4681 4.14388 54.3383C4.14388 54.3383 3.7554 54.1435 3.23741 53.9487H2.52518C2.00719 53.5592 1.42446 53.5592 1.23022 53.4294C0.841727 53.0399 0.71223 52.7153 0.71223 52.131C0.71223 51.5467 0.906475 51.0273 1.23022 50.8326C1.61871 50.4431 2.13669 50.3132 3.04317 50.3132C3.94964 50.3132 4.33813 50.3132 4.66187 50.8326C4.98561 51.3519 5.3741 51.7415 5.3741 52.2608H4.07914C4.07914 51.8713 4.07914 51.7415 3.56115 51.5467H2.84892C2.46043 51.5467 2.33094 51.5467 2.13669 51.7415C1.94245 51.7415 1.7482 52.131 1.7482 52.2608C1.7482 52.3907 1.7482 52.6503 2.13669 52.7802C2.13669 52.7802 2.52518 52.7802 2.84892 52.9749H3.94964C4.46763 53.3645 4.66187 53.4943 5.05036 53.6891C5.43885 54.0786 5.56835 54.4032 5.56835 54.9875C5.56835 55.5717 5.3741 56.0911 4.85612 56.4157C4.46763 56.8052 3.7554 56.9351 3.04317 56.9351C2.33094 56.9351 1.61871 56.9351 1.23022 56.4157C0.841727 56.0262 0.517986 55.5068 0.517986 54.9875H1.81295C1.81295 55.377 1.81295 55.5068 2.00719 55.5068C2.20144 55.7016 2.52518 55.8964 3.10791 55.8964V55.5068V55.5718Z" fill="var(--fill-0, white)"/>
<path id="Vector_14" d="M12.1727 56.6754C11.2662 56.6754 10.7482 56.4806 10.1655 55.9613C9.64748 55.4419 9.25899 54.533 9.25899 53.4294C9.25899 52.3257 9.64748 51.4169 10.1655 50.8975C10.6835 50.3781 11.2662 50.1834 12.1727 50.1834C13.0791 50.1834 13.5971 50.3781 14.1799 50.8975C14.6978 51.4169 15.0863 52.3257 15.0863 53.4294C15.0863 54.533 14.6978 55.4419 14.1799 55.9613C13.6619 56.4806 13.0791 56.6754 12.1727 56.6754ZM13.2734 54.9875C13.6619 54.5979 13.6619 54.0786 13.6619 53.3645C13.6619 52.6503 13.6619 52.0661 13.2734 51.7415C12.8849 51.4169 12.5612 51.2221 11.9784 51.2221C11.3957 51.2221 11.0719 51.4169 10.6835 51.7415C10.295 52.0661 10.295 52.6503 10.295 53.3645C10.295 54.0786 10.295 54.6629 10.6835 54.9875C11.0719 55.3121 11.3957 55.5068 11.9784 55.5068C12.5612 55.5068 12.8849 55.3121 13.2734 54.9875Z" fill="var(--fill-0, white)"/>
<path id="Vector_15" d="M23.3094 56.0911C22.7914 56.4806 22.2086 56.6105 21.4964 56.6105C20.7842 56.6105 19.8777 56.221 19.4892 55.7016C18.9712 55.1822 18.777 54.4032 18.777 53.2995C18.777 52.1959 19.1655 51.4818 19.6835 50.7676C20.2014 50.2483 20.7842 50.0535 21.4964 50.0535C22.2086 50.0535 23.3094 50.4431 23.6978 51.1572C23.8921 51.5467 24.0863 51.8713 24.0863 52.2608H22.7914C22.7914 51.8713 22.5971 51.7415 22.4029 51.5467C22.2086 51.3519 21.8849 51.1572 21.3022 51.1572C20.7194 51.1572 20.3957 51.3519 20.2014 51.6765C20.0072 52.0011 19.813 52.5854 19.813 53.2995C19.813 54.0137 19.813 54.5979 20.2014 54.7278C20.5899 55.1173 20.9137 55.2471 21.3022 55.2471C21.6906 55.2471 22.0144 55.2472 22.4029 54.8576C22.4029 54.8576 22.5971 54.4681 22.7914 54.1435H24.0863C24.0863 54.8576 23.6978 55.4419 23.1799 55.7665H23.3741V55.9613L23.3094 56.0911Z" fill="var(--fill-0, white)"/>
<path id="Vector_16" d="M28.036 50.2479H29.3309V56.4802H28.036V50.2479Z" fill="var(--fill-0, white)"/>
<path id="Vector_17" d="M37.1007 55.1818H34.8993L34.5108 56.4802H33.2158L35.4173 50.2479H36.8417L39.0432 56.4802H37.6187L37.2302 55.1818H37.036H37.1007ZM36.777 54.0782L36.0648 51.6761L35.3525 54.0782H36.9712H36.777Z" fill="var(--fill-0, white)"/>
<path id="Vector_18" d="M42.6043 50.2479H43.8993V55.3766H47.0072V56.4802H42.6691V50.2479H42.6043Z" fill="var(--fill-0, white)"/>
<path id="Vector_19" d="M55.8777 50.2479H57.1727V55.3766H60.2806V56.4802H55.9424V50.2479H55.8777Z" fill="var(--fill-0, white)"/>
<path id="Vector_20" d="M67.6619 54.0782V50.2479H68.9568V54.0782C68.9568 54.7923 68.9568 55.1818 68.5683 55.5064C68.1799 56.2205 67.4676 56.4153 66.3669 56.4153C65.2662 56.4153 64.554 56.0258 64.1655 55.5064C63.9712 55.1169 63.777 54.5975 63.777 54.0782V50.2479H65.0719V54.987C65.0719 55.3766 65.5899 55.5064 66.1727 55.5064C66.7554 55.5064 67.0791 55.5064 67.2734 54.987V54.0782H67.6619Z" fill="var(--fill-0, white)"/>
<path id="Vector_21" d="M75.8849 56.4802H73.1655V50.2479H76.0791C76.7914 50.2479 77.3741 50.4426 77.6978 50.962C77.8921 51.1567 78.0863 51.4813 78.0863 51.8709C78.0863 52.2604 78.0863 52.585 77.6978 52.7798C77.6978 52.7798 77.5036 52.9745 77.1799 53.1693C77.5683 53.1693 77.6979 53.5588 77.8921 53.6886C77.8921 53.8834 78.0863 54.208 78.0863 54.5975C78.0863 54.987 78.0863 55.3116 77.6978 55.5064C77.6978 55.7012 77.5036 55.8959 77.3094 56.0258C77.1151 56.0258 76.9209 56.2205 76.5971 56.4153C76.2734 56.6101 76.0791 56.4153 75.6907 56.4153H75.8849V56.4802ZM76.5971 52.6499C76.5971 52.6499 76.7914 52.2604 76.7914 52.1306C76.7914 52.0007 76.7914 51.6112 76.4029 51.6112H74.3957V52.9096H76.5971V52.7148V52.6499ZM75.8849 53.7536H74.4604V55.3766H76.4676C76.6619 55.3766 76.8561 54.987 76.8561 54.6624C76.8561 54.3378 76.8561 54.1431 76.4676 53.9483H75.9496V53.7536H75.8849Z" fill="var(--fill-0, white)"/>
<path id="Vector_22" d="M84.8201 54.0782H83.5252V56.4802H82.2302V50.2479H86.0503C86.2446 50.2479 86.4388 50.4426 86.5683 50.6374C86.5683 50.6374 86.7626 51.0269 86.9568 51.1567V51.8709C86.9568 52.2604 86.9568 52.3902 86.7626 52.7798C86.7626 53.1693 86.3741 53.2991 86.0503 53.2991C86.4388 53.2991 86.5683 53.6886 86.5683 53.8185V55.6362C86.5683 55.6362 86.5683 56.0258 86.7626 56.0258H85.3381V54.5975C85.3381 54.208 85.3381 53.8834 85.1439 53.8834C84.9496 53.8834 84.7554 53.6886 84.4316 53.6886L84.8201 54.0782ZM85.7266 52.9745C85.9208 52.9745 86.1151 52.585 86.1151 52.2604C86.1151 51.9358 86.1151 51.741 85.7266 51.5463H83.7194V53.1693H85.9208L85.7266 52.9745Z" fill="var(--fill-0, white)"/>
<path id="Vector_23" d="M91.3597 50.2479H92.6547V56.4802H91.3597V50.2479Z" fill="var(--fill-0, white)"/>
<path id="Vector_24" d="M101.007 56.0911C100.489 56.4806 99.9065 56.6105 99.1942 56.6105C98.482 56.6105 97.5755 56.221 97.187 55.7016C96.6691 55.1822 96.4748 54.4032 96.4748 53.2995C96.4748 52.1959 96.8633 51.4818 97.3813 50.7676C97.8993 50.2483 98.482 50.0535 99.1942 50.0535C99.9065 50.0535 101.007 50.4431 101.396 51.1572C101.59 51.5467 101.784 51.8713 101.784 52.2608H100.489C100.489 51.8713 100.295 51.7415 100.101 51.5467C99.9065 51.3519 99.5827 51.1572 99 51.1572C98.4173 51.1572 98.0935 51.3519 97.8993 51.6765C97.705 52.0011 97.5108 52.5854 97.5108 53.2995C97.5108 54.0137 97.5108 54.5979 97.8993 54.7278C98.2878 55.1173 98.6115 55.2471 99 55.2471C99.3885 55.2471 99.7122 55.2472 100.101 54.8576C100.101 54.8576 100.295 54.4681 100.489 54.1435H101.784C101.784 54.8576 101.396 55.4419 100.878 55.7665H101.072V55.9613L101.007 56.0911Z" fill="var(--fill-0, white)"/>
<path id="Vector_25" d="M109.36 55.1818H107.158L106.77 56.4802H105.475L107.676 50.2479H109.101L111.302 56.4802H109.878L109.489 55.1818H109.295H109.36ZM108.971 54.0782L108.259 51.6761L107.547 54.0782H109.165H108.971Z" fill="var(--fill-0, white)"/>
<path id="Vector_26" d="M119.914 56.4802H118.619L116.094 52.1306V56.4802H114.799V50.2479H116.094L118.489 54.4677V50.2479H119.784V56.4802H119.978H119.914Z" fill="var(--fill-0, white)"/>
<path id="Vector_27" d="M128.46 50.2479V51.3515H126.647V56.4802H125.353V51.3515H123.54V50.2479H128.46Z" fill="var(--fill-0, white)"/>
</g>
<g id="Group_2">
<path id="Vector_28" d="M135 4.28474H137.396C138.108 4.28474 138.691 4.4795 138.82 4.8041C139.209 5.19362 139.209 5.51822 139.209 5.90775C139.209 6.81663 138.691 7.33599 137.914 7.53075L139.338 9.54328H138.237L136.942 7.72551H135.842V9.54328H134.935V4.28474H135ZM137.396 6.81663C138.108 6.81663 138.496 6.42711 138.496 5.90775C138.496 5.38838 138.108 4.99886 137.396 4.99886H135.971V6.81663H137.396Z" fill="var(--fill-0, white)"/>
<path id="Vector_29" d="M137.007 13.3736C140.512 13.3736 143.353 10.5251 143.353 7.01139C143.353 3.49765 140.512 0.649203 137.007 0.649203C133.503 0.649203 130.662 3.49765 130.662 7.01139C130.662 10.5251 133.503 13.3736 137.007 13.3736Z" stroke="var(--stroke-0, white)" stroke-width="2" stroke-miterlimit="10"/>
</g>
</g>
<defs>
<clipPath id="clip0_0_258">
<rect width="144" height="57" fill="white"/>
</clipPath>
</defs>
</svg>
