<svg preserveAspectRatio="none" width="100%" height="100%" overflow="visible" style="display: block;" viewBox="0 0 578 573.545" fill="none" xmlns="http://www.w3.org/2000/svg">
<g id="Mask group">
<mask id="mask0_0_4" style="mask-type:alpha" maskUnits="userSpaceOnUse" x="100" y="86" width="378" height="391">
<path id="Rectangle 5" opacity="0.85" d="M100 106.456C100 95.4098 108.954 86.4555 120 86.4555H458C469.046 86.4555 478 95.4098 478 106.456V456.456C478 467.501 469.046 476.456 458 476.456H120C108.954 476.456 100 467.501 100 456.456V106.456Z" fill="var(--fill-0, white)" fill-opacity="0.5"/>
</mask>
<g mask="url(#mask0_0_4)">
<g id="Group 1">
<path id="Vector" d="M961.565 230.104C961.543 230.104 961.524 230.098 961.508 230.083C927.622 198.894 760.502 128.282 721.161 125.685C681.811 123.086 626.519 171.601 606.676 203.227C587.169 234.852 567.326 278.618 588.783 295.058C588.783 295.058 660.017 335.33 685.712 365.253C711.071 394.729 757.282 458.384 791.755 477.915C826.228 496.998 881.52 495.699 913.1 469.27C944.681 442.84 992.473 394.729 1001.59 366.149C1010.01 337.638 995.804 261.649 962.145 230.33C961.987 230.183 961.781 230.104 961.565 230.104ZM983.661 345.364C982.349 377.841 925.746 428.55 874.053 451.083C822.663 473.615 778.1 438.54 761.822 418.157C743.593 395.177 705.555 354.054 686.99 335.419C668.122 316.784 632.674 298.149 614.445 285.606C596.216 273.467 603.716 252.233 611.519 240.542C619.322 228.85 647.64 189.832 671.385 175.139C694.49 160.402 725.701 144.813 756.609 157.355C787.517 169.495 910.78 222.354 936.508 238.794C962.162 254.805 985.536 312.699 984.005 345.652C984.001 345.743 983.925 345.812 983.833 345.812C983.738 345.812 983.661 345.735 983.661 345.64V345.364Z" stroke="var(--stroke-0, #4E4E50)" stroke-width="0.97" stroke-miterlimit="10"/>
<path id="Vector_2" d="M920.297 367.091C940.779 337.615 935.263 304.242 913.47 283.457C891.676 262.224 829.859 233.644 803.525 221.952C777.158 210.663 740.397 199.868 723.817 203.317C703.334 207.214 677.303 241.886 673.738 249.233C670.509 256.579 669.534 269.167 687.09 276.513C704.982 283.905 735.891 303.391 752.808 318.98C769.086 335.017 788.592 376.588 815.263 392.625C841.933 408.617 899.848 396.925 920.33 367.046L920.297 367.091ZM920.297 367.091H920.633M817.516 203.72C843.16 214.092 901.866 244.318 930.551 266.837C930.662 266.924 930.723 267.054 930.723 267.196C930.723 267.337 930.788 267.471 930.899 267.559C959.381 290.141 968.434 335.923 956.754 362.746C945.05 389.578 890.061 431.194 867.629 435.091C845.196 438.988 822.09 432.493 795.42 411.708C768.749 390.878 746.283 352.353 725.801 329.373C705.655 306.392 672.157 293.849 652.617 279.112C633.076 264.374 645.453 245.291 653.256 232.748C662.034 218.458 691.664 188.131 715.711 181.636C739.758 175.14 792.157 193.327 817.516 203.72Z" stroke="var(--stroke-0, #4E4E50)" stroke-width="0.97" stroke-miterlimit="10"/>
<path id="Vector_3" d="M827.405 261.954C827.405 261.818 827.334 261.696 827.21 261.637C809.205 252.932 766.841 231.831 750.622 226.207C734.344 220.563 723.615 227.506 711.272 237.451C698.929 247.396 696.945 264.329 722.337 273.422C741.541 280.366 759.434 295.955 771.777 314.993C783.817 333.628 808.201 376.095 830.667 378.693C859.288 382.142 899.95 348.366 898.974 323.683C898.003 299.088 845.669 271.023 827.596 262.271C827.473 262.211 827.405 262.091 827.405 261.954ZM849.37 344.513C849.42 344.513 849.438 344.58 849.396 344.609C833.823 355.244 816.011 336.683 807.259 324.579C798.481 312.44 776.048 286.01 765.622 276.916C757.18 269.57 741.541 264.777 738.952 260.028C735.386 253.533 740.902 246.186 754.254 249.188C767.606 251.786 804.03 277.767 817.349 282.561C830.701 287.309 854.748 300.748 864.501 310.289C874.205 320.184 858.473 338.282 849.337 344.421C849.295 344.449 849.319 344.513 849.37 344.513Z" stroke="var(--stroke-0, #4E4E50)" stroke-width="0.97" stroke-miterlimit="10"/>
<path id="Vector_4" d="M961.565 230.104C961.543 230.104 961.524 230.098 961.508 230.083C927.622 198.894 760.502 128.282 721.161 125.685C681.811 123.086 626.519 171.601 606.676 203.227C587.169 234.852 567.326 278.618 588.783 295.058C588.783 295.058 660.017 335.33 685.712 365.253C711.071 394.729 757.282 458.384 791.755 477.915C826.228 496.998 881.52 495.699 913.1 469.27C944.681 442.84 992.473 394.729 1001.59 366.149C1010.01 337.638 995.804 261.649 962.145 230.33C961.987 230.183 961.781 230.104 961.565 230.104ZM983.661 345.364C982.349 377.841 925.746 428.55 874.053 451.083C822.663 473.615 778.1 438.54 761.822 418.157C743.593 395.177 705.555 354.054 686.99 335.419C668.122 316.784 632.674 298.149 614.445 285.606C596.216 273.467 603.716 252.233 611.519 240.542C619.322 228.85 647.64 189.832 671.385 175.139C694.49 160.402 725.701 144.813 756.609 157.355C787.517 169.495 910.78 222.354 936.508 238.794C962.162 254.805 985.536 312.699 984.005 345.652C984.001 345.743 983.925 345.812 983.833 345.812C983.738 345.812 983.661 345.735 983.661 345.64V345.364Z" fill="var(--fill-0, white)"/>
<path id="Vector_5" d="M827.405 261.954C827.405 261.818 827.334 261.696 827.21 261.637C809.205 252.932 766.841 231.831 750.622 226.207C734.344 220.563 723.615 227.506 711.272 237.451C698.929 247.396 696.945 264.329 722.337 273.422C741.541 280.366 759.434 295.955 771.777 314.993C783.817 333.628 808.201 376.095 830.667 378.693C859.288 382.142 899.95 348.366 898.974 323.683C898.003 299.088 845.669 271.023 827.596 262.271C827.473 262.211 827.405 262.091 827.405 261.954ZM849.37 344.513C849.42 344.513 849.438 344.58 849.396 344.609C833.823 355.244 816.011 336.683 807.259 324.579C798.481 312.44 776.048 286.01 765.622 276.916C757.18 269.57 741.541 264.777 738.952 260.028C735.386 253.533 740.902 246.186 754.254 249.188C767.606 251.786 804.03 277.767 817.349 282.561C830.701 287.309 854.748 300.748 864.501 310.289C874.205 320.184 858.473 338.282 849.337 344.421C849.295 344.449 849.319 344.513 849.37 344.513Z" fill="var(--fill-0, #F3F3F3)"/>
<path id="Vector_6" d="M-833.059 230.104C-833.081 230.104 -833.1 230.098 -833.116 230.083C-867.002 198.894 -1034.12 128.282 -1073.46 125.685C-1112.81 123.086 -1168.1 171.601 -1187.95 203.227C-1207.45 234.852 -1227.3 278.618 -1205.84 295.058C-1205.84 295.058 -1134.61 335.33 -1108.91 365.253C-1083.55 394.729 -1037.34 458.384 -1002.87 477.915C-968.396 496.998 -913.104 495.699 -881.523 469.27C-849.976 442.84 -802.151 394.729 -793.037 366.149C-784.615 337.638 -798.82 261.65 -832.479 230.33C-832.637 230.183 -832.843 230.104 -833.059 230.104ZM-810.996 345.364C-812.308 377.841 -868.911 428.55 -920.604 451.083C-971.995 473.615 -1016.56 438.54 -1032.84 418.157C-1051.06 395.177 -1089.1 354.054 -1107.67 335.419C-1126.54 316.784 -1161.98 298.149 -1180.21 285.606C-1198.44 273.467 -1190.94 252.233 -1183.14 240.542C-1175.34 228.85 -1147.02 189.832 -1123.27 175.139C-1100.17 160.402 -1068.96 144.813 -1038.05 157.355C-1007.14 169.495 -883.878 222.354 -858.149 238.794C-832.495 254.805 -809.122 312.699 -810.652 345.652C-810.657 345.743 -810.732 345.812 -810.824 345.812C-810.919 345.812 -810.996 345.735 -810.996 345.64V345.364Z" stroke="var(--stroke-0, #4E4E50)" stroke-width="0.97" stroke-miterlimit="10"/>
<path id="Vector_7" d="M-874.36 367.091C-853.878 337.615 -859.393 304.242 -881.187 283.457C-902.981 262.224 -964.797 233.644 -991.131 221.952C-1017.5 210.663 -1054.26 199.868 -1070.84 203.317C-1091.32 207.214 -1117.35 241.886 -1120.92 249.233C-1124.15 256.579 -1125.12 269.167 -1107.57 276.513C-1089.67 283.905 -1058.77 303.391 -1041.85 318.98C-1025.57 335.017 -1006.06 376.633 -979.394 392.625C-952.723 408.617 -894.808 396.925 -874.326 367.046L-874.36 367.091ZM-874.36 367.091H-874.023M-977.107 203.72C-951.463 214.092 -892.757 244.318 -864.072 266.837C-863.961 266.924 -863.9 267.054 -863.9 267.196C-863.9 267.337 -863.835 267.471 -863.724 267.559C-835.242 290.141 -826.189 335.923 -837.869 362.746C-849.573 389.578 -904.562 431.194 -926.994 435.091C-949.427 438.988 -972.533 432.493 -999.203 411.708C-1025.87 390.878 -1048.34 352.353 -1068.82 329.373C-1088.97 306.392 -1122.47 293.849 -1142.01 279.112C-1161.55 264.374 -1149.17 245.291 -1141.37 232.748C-1132.59 218.458 -1102.96 188.131 -1078.91 181.636C-1054.86 175.14 -1002.47 193.327 -977.107 203.72Z" stroke="var(--stroke-0, #4E4E50)" stroke-width="0.97" stroke-miterlimit="10"/>
<path id="Vector_8" d="M-967.218 261.954C-967.218 261.818 -967.289 261.696 -967.413 261.637C-985.417 252.932 -1027.78 231.831 -1044 226.207C-1060.28 220.563 -1071.01 227.506 -1083.35 237.451C-1095.69 247.396 -1097.68 264.329 -1072.29 273.422C-1053.08 280.366 -1035.19 295.955 -1022.85 314.993C-1010.81 333.628 -986.422 376.095 -963.956 378.693C-935.335 382.142 -894.673 348.366 -895.649 323.683C-896.621 299.088 -948.954 271.023 -967.027 262.271C-967.15 262.211 -967.218 262.091 -967.218 261.954ZM-945.287 344.513C-945.236 344.513 -945.219 344.58 -945.261 344.609C-960.833 355.244 -978.646 336.683 -987.398 324.579C-996.176 312.44 -1018.61 286.01 -1029.03 276.916C-1037.48 269.57 -1053.12 264.777 -1055.71 260.028C-1059.27 253.533 -1053.75 246.186 -1040.4 249.188C-1027.05 251.786 -990.626 277.767 -977.308 282.561C-963.956 287.309 -939.909 300.748 -930.156 310.289C-920.451 320.184 -936.184 338.282 -945.32 344.421C-945.362 344.449 -945.338 344.513 -945.287 344.513Z" stroke="var(--stroke-0, #4E4E50)" stroke-width="0.97" stroke-miterlimit="10"/>
<path id="Vector_9" d="M-833.059 230.104C-833.081 230.104 -833.1 230.098 -833.116 230.083C-867.002 198.894 -1034.12 128.282 -1073.46 125.685C-1112.81 123.086 -1168.1 171.601 -1187.95 203.227C-1207.45 234.852 -1227.3 278.618 -1205.84 295.058C-1205.84 295.058 -1134.61 335.33 -1108.91 365.253C-1083.55 394.729 -1037.34 458.384 -1002.87 477.915C-968.396 496.998 -913.104 495.699 -881.523 469.27C-849.976 442.84 -802.151 394.729 -793.037 366.149C-784.615 337.638 -798.82 261.65 -832.479 230.33C-832.637 230.183 -832.843 230.104 -833.059 230.104ZM-810.996 345.364C-812.308 377.841 -868.911 428.55 -920.604 451.083C-971.995 473.615 -1016.56 438.54 -1032.84 418.157C-1051.06 395.177 -1089.1 354.054 -1107.67 335.419C-1126.54 316.784 -1161.98 298.149 -1180.21 285.606C-1198.44 273.467 -1190.94 252.233 -1183.14 240.542C-1175.34 228.85 -1147.02 189.832 -1123.27 175.139C-1100.17 160.402 -1068.96 144.813 -1038.05 157.355C-1007.14 169.495 -883.878 222.354 -858.149 238.794C-832.495 254.805 -809.122 312.699 -810.652 345.652C-810.657 345.743 -810.732 345.812 -810.824 345.812C-810.919 345.812 -810.996 345.735 -810.996 345.64V345.364Z" fill="var(--fill-0, white)"/>
<path id="Vector_10" d="M-967.218 261.954C-967.218 261.818 -967.289 261.696 -967.413 261.637C-985.417 252.932 -1027.78 231.831 -1044 226.207C-1060.28 220.563 -1071.01 227.506 -1083.35 237.451C-1095.69 247.396 -1097.68 264.329 -1072.29 273.422C-1053.08 280.366 -1035.19 295.955 -1022.85 314.993C-1010.81 333.628 -986.422 376.095 -963.956 378.693C-935.335 382.142 -894.673 348.366 -895.649 323.683C-896.621 299.088 -948.954 271.023 -967.027 262.271C-967.15 262.211 -967.218 262.091 -967.218 261.954ZM-945.287 344.513C-945.236 344.513 -945.219 344.58 -945.261 344.609C-960.833 355.244 -978.646 336.683 -987.398 324.579C-996.176 312.44 -1018.61 286.01 -1029.03 276.916C-1037.48 269.57 -1053.12 264.777 -1055.71 260.028C-1059.27 253.533 -1053.75 246.186 -1040.4 249.188C-1027.05 251.786 -990.626 277.767 -977.308 282.561C-963.956 287.309 -939.909 300.748 -930.156 310.289C-920.451 320.184 -936.184 338.282 -945.32 344.421C-945.362 344.449 -945.338 344.513 -945.287 344.513Z" fill="var(--fill-0, white)"/>
<g id="Group">
<path id="Vector_11" d="M-231.914 227.955C-231.936 227.955 -231.955 227.948 -231.971 227.934C-265.857 196.745 -432.977 126.133 -472.318 123.535C-511.668 120.937 -566.96 169.451 -586.803 201.077C-606.31 232.703 -626.153 276.469 -604.695 292.909C-604.695 292.909 -533.462 333.18 -507.767 363.104C-482.408 392.58 -436.197 456.235 -401.724 475.766C-367.251 494.849 -311.959 493.55 -280.378 467.12C-248.831 440.691 -201.006 392.58 -191.892 364C-183.47 335.489 -197.675 259.5 -231.334 228.181C-231.492 228.034 -231.698 227.955 -231.914 227.955ZM-209.515 343.215C-210.827 375.692 -267.43 426.401 -319.123 448.933C-370.513 471.465 -415.076 436.39 -431.354 416.008C-449.583 393.028 -487.621 351.905 -506.186 333.27C-525.054 314.635 -560.502 296 -578.731 283.457C-596.96 271.317 -589.46 250.084 -581.657 238.392C-573.854 226.7 -545.536 187.683 -521.792 172.99C-498.686 158.252 -467.475 142.663 -436.567 155.206C-405.659 167.346 -282.396 220.205 -256.668 236.645C-231.014 252.656 -207.64 310.549 -209.171 343.502C-209.175 343.594 -209.251 343.663 -209.343 343.663C-209.438 343.663 -209.515 343.585 -209.515 343.49V343.215Z" stroke="var(--stroke-0, #4E4E50)" stroke-width="0.97" stroke-miterlimit="10"/>
<path id="Vector_12" d="M-277.183 364.492C-256.701 335.017 -262.217 301.644 -284.011 280.858C-305.805 259.625 -367.621 231.045 -393.955 219.353C-420.323 208.065 -457.083 197.269 -473.664 200.718C-494.146 204.616 -520.177 239.288 -523.742 246.634C-526.971 253.981 -527.946 266.569 -510.39 273.915C-492.498 281.306 -461.59 300.793 -444.673 316.382C-428.394 332.418 -408.888 373.989 -382.217 390.026C-355.547 406.018 -297.632 394.327 -277.15 364.448L-277.183 364.492ZM-277.183 364.492H-276.847M-380.267 201.122C-354.623 211.494 -295.917 241.72 -267.232 264.238C-267.121 264.325 -267.06 264.456 -267.06 264.597C-267.06 264.739 -266.995 264.873 -266.884 264.96C-238.402 287.542 -229.348 333.325 -241.029 360.147C-252.733 386.98 -307.722 428.595 -330.154 432.493C-352.587 436.39 -375.693 429.895 -402.363 409.109C-429.034 388.279 -451.5 349.755 -471.982 326.774C-492.128 303.794 -525.659 291.251 -545.166 276.513C-564.707 261.775 -552.33 242.692 -544.527 230.149C-535.749 215.859 -506.153 185.533 -482.072 179.037C-458.025 172.542 -405.625 190.729 -380.267 201.122Z" stroke="var(--stroke-0, #4E4E50)" stroke-width="0.97" stroke-miterlimit="10"/>
<path id="Vector_13" d="M-357.225 262.179C-357.218 262.179 -357.214 262.17 -357.221 262.167C-376.104 253.513 -421.272 232.297 -438.518 226.656C-455.771 221.011 -467.139 227.955 -480.154 237.899C-493.17 247.844 -495.121 264.777 -468.45 273.871C-447.968 280.814 -429.1 296.403 -416.085 315.441C-403.069 334.076 -377.374 376.543 -353.966 379.141C-323.73 382.59 -280.782 348.814 -281.757 324.132C-282.726 299.598 -338.022 271.613 -357.218 262.786C-357.405 262.7 -357.448 262.472 -357.325 262.307L-357.23 262.181C-357.229 262.18 -357.227 262.179 -357.225 262.179ZM-333.45 344.917C-333.44 344.917 -333.437 344.93 -333.445 344.936C-350.019 355.736 -368.87 337.115 -377.979 324.983C-387.396 312.843 -410.838 286.413 -421.903 277.32C-430.681 269.973 -447.262 265.18 -450.188 260.432C-454.089 253.936 -447.901 246.59 -434.246 249.591C-420.255 252.189 -381.544 278.171 -367.251 282.964C-352.957 287.757 -327.564 301.151 -317.172 310.693C-306.88 320.542 -323.34 338.518 -332.838 344.738C-333.022 344.859 -333.23 344.917 -333.45 344.917Z" stroke="var(--stroke-0, #4E4E50)" stroke-width="0.97" stroke-miterlimit="10"/>
<path id="Vector_14" d="M-700.043 258.774C-716.624 254.877 -744.27 221.952 -759.573 201.167C-774.842 180.337 -777.768 158.252 -776.153 146.56C-774.539 134.869 -758.597 115.786 -749.819 110.589C-736.164 102.795 -718.272 107.14 -703.945 115.786C-689.651 123.983 -658.104 154.31 -652.891 181.188C-647.346 207.997 -683.4 262.532 -700 258.739C-700.023 258.734 -700.043 258.751 -700.043 258.774ZM-700.043 258.774H-699.707M-717.599 131.375C-731.798 123.632 -754.69 136.398 -754.995 150.575C-754.999 150.76 -755.059 150.941 -755.17 151.089C-755.277 151.232 -755.337 151.407 -755.341 151.585C-755.625 165.733 -752.02 176.115 -738.754 195.074C-725.436 214.158 -702.667 241.035 -692.24 232.345C-681.814 223.654 -668.16 189.878 -674.348 175.14C-680.503 160.402 -703.272 139.169 -717.599 131.375Z" stroke="var(--stroke-0, #4E4E50)" stroke-width="0.97" stroke-miterlimit="10"/>
<path id="Vector_15" d="M-691.888 204.123C-691.895 204.123 -691.9 204.116 -691.896 204.11C-685.415 192.422 -688.644 179.84 -695.469 170.347C-702.296 160.85 -716.926 149.965 -723.451 148.666C-729.976 147.367 -736.803 154.31 -736.467 161.657C-736.13 169.003 -732.565 176.395 -721.164 191.133C-709.836 205.775 -698.542 215.289 -692.327 203.9C-692.272 203.799 -692.127 203.781 -692.058 203.873L-691.881 204.109C-691.877 204.115 -691.881 204.123 -691.888 204.123Z" stroke="var(--stroke-0, #4E4E50)" stroke-width="0.97" stroke-miterlimit="10"/>
<path id="Vector_16" d="M-863.362 479.663C-830.382 454.083 -795.51 407.486 -766.805 370.91C-765.907 369.766 -765.145 368.541 -764.504 367.235C-756.751 351.451 -743.007 326.081 -750.492 300.3C-762.196 261.776 -799.595 199.823 -845.133 175.543C-893.261 149.965 -973.272 120.937 -1012.32 104.9C-1056.88 86.7131 -1103.73 92.7605 -1138.21 119.19C-1169.75 143.47 -1194.47 174.244 -1221.14 224.057C-1232.85 245.246 -1247.81 268.674 -1247.81 288.16C-1247.54 294.744 -1243.38 300.262 -1238.1 305.061C-1236.8 306.239 -1235.31 307.165 -1233.73 307.921C-1206.84 320.774 -1169.03 344.12 -1134.61 374.393C-1098.18 406.467 -1052.64 465.821 -1015.55 497.447C-978.493 529.067 -907.583 513.446 -863.355 479.684C-863.346 479.677 -863.351 479.663 -863.362 479.663ZM-863.362 479.663H-863.026M-267.43 484.86C-234.449 459.279 -199.578 412.682 -170.873 376.107C-169.974 374.962 -169.213 373.737 -168.572 372.432C-160.819 356.647 -147.075 331.278 -154.56 305.496C-166.264 266.972 -203.663 205.019 -249.201 180.74C-297.329 155.161 -377.34 126.134 -416.388 110.097C-460.95 91.9094 -507.8 97.9569 -542.274 124.386C-573.821 148.666 -598.541 179.441 -625.211 229.254C-636.915 250.442 -651.882 273.871 -651.882 293.357C-651.612 299.941 -647.446 305.458 -642.166 310.258C-640.87 311.435 -639.374 312.362 -637.794 313.117C-610.906 325.97 -573.094 349.317 -538.675 379.589C-502.251 411.663 -456.713 471.018 -419.616 502.644C-382.561 534.263 -311.651 518.642 -267.423 484.88C-267.414 484.873 -267.419 484.86 -267.43 484.86ZM-267.43 484.86H-267.094M330.116 490.504C363.097 464.923 397.968 418.327 426.674 381.751C427.572 380.607 428.333 379.382 428.975 378.076C436.728 362.291 450.471 336.922 442.987 311.141C431.283 272.616 393.883 210.663 348.345 186.384C300.217 160.806 220.206 131.778 181.159 115.741C136.596 97.5537 89.7459 103.601 55.2727 130.031C23.7255 154.31 -0.994214 185.085 -27.6647 234.898C-39.3688 256.086 -54.6715 279.515 -54.3351 299.001C-54.0655 305.585 -49.9 311.102 -44.6195 315.902C-43.3234 317.08 -41.828 318.006 -40.2478 318.761C-13.3592 331.614 24.4524 354.961 58.8714 385.233C95.2953 417.307 140.834 476.662 177.93 508.288C214.986 539.907 285.895 524.286 330.124 490.524C330.132 490.517 330.127 490.504 330.116 490.504ZM330.116 490.504H330.453M926.049 495.7C959.029 470.12 993.9 423.523 1022.61 386.947C1023.5 385.803 1024.27 384.578 1024.91 383.272C1032.66 367.487 1046.4 342.118 1038.92 316.337C1027.21 277.813 989.815 215.86 944.277 191.58C896.149 166.002 816.138 136.974 777.091 120.937C732.528 102.75 685.678 108.797 651.205 135.227C619.658 159.506 594.938 190.281 568.267 240.094C556.563 261.283 541.261 284.711 541.597 304.197C541.867 310.781 546.032 316.299 551.313 321.098C552.609 322.276 554.104 323.202 555.684 323.958C582.573 336.811 620.384 360.157 654.803 390.43C691.227 422.503 736.766 481.858 773.862 513.484C810.917 545.104 881.827 529.482 926.056 495.72C926.064 495.714 926.059 495.7 926.049 495.7ZM926.049 495.7H926.385M1078.3 308.991C1079.57 312.748 1080.6 316.006 1081.33 318.955C1082.27 322.786 1086.8 325.316 1090.42 323.752C1105.72 317.151 1118.56 317.06 1126.93 321.045C1126.95 321.058 1126.98 321.02 1126.95 320.999C1126.94 320.982 1126.95 320.951 1126.97 320.951H1127.24C1126.66 320.951 1126.41 321.8 1126.88 322.132C1142.5 333.085 1167.93 382.679 1130.8 366.867C1092.09 350.427 1040.37 394.148 1012.08 438.361C984.098 482.127 910.914 558.37 846.172 571.361C781.429 584.351 733.94 520.203 687.427 469.091C635.349 412.087 579.867 380.564 544.603 365.065C543.311 364.497 541.967 364.113 540.614 363.709C538.986 363.223 537.252 362.534 535.207 361.626C496.496 345.186 444.769 388.907 416.484 433.12C388.502 476.886 315.318 553.128 250.576 566.119C185.834 579.11 138.345 514.962 91.831 463.85C38.6338 405.834 -17.6953 374.28 -52.6407 359.26C-53.7119 358.799 -54.8082 358.459 -55.932 358.149C-57.7029 357.66 -59.8699 356.944 -62.037 355.982C-100.748 339.541 -152.474 383.262 -180.759 427.476C-208.741 471.242 -281.925 547.484 -346.668 560.475C-411.41 573.466 -458.899 509.318 -505.412 458.206C-557.49 401.202 -612.973 369.678 -648.236 354.18C-649.529 353.612 -650.873 353.227 -652.226 352.823C-653.854 352.338 -655.587 351.649 -657.633 350.74C-696.344 334.3 -748.07 378.021 -776.355 422.235C-804.337 466 -877.521 542.243 -942.263 555.234C-1007.01 568.225 -1054.49 504.077 -1101.01 452.965C-1172.54 374.527 -1250.64 344.2 -1273.07 337.705C-1274.8 337.21 -1276.3 336.591 -1277.61 335.846C-1281.57 333.605 -1285.23 330.621 -1289.61 329.381C-1298.61 326.832 -1306.6 324.034 -1312.09 321.265C-1333.88 310.021 -1331.59 293.536 -1341.68 264.956C-1351.43 236.332 -1315.01 284.442 -1295.17 284.442C-1275.32 284.442 -1258.74 253.712 -1243.78 225.536C-1228.81 197.404 -1193.03 118.518 -1143.59 93.8356C-1066.17 55.2663 -1002.06 75.6485 -941.893 103.377C-918.073 114.255 -890.319 124.717 -865.039 135.524C-863.145 136.333 -861.144 136.875 -859.088 136.999C-846.91 137.733 -833.925 135.597 -826.736 126.805C-811.77 109.021 -797.14 84.3389 -785.738 73.4983C-766.198 55.3111 -743.429 54.8631 -720.996 57.9092C-698.53 60.9106 -666.982 79.5457 -646.164 106.423C-638.361 116.413 -627.969 139.348 -618.855 150.189C-610.501 160.125 -601.327 147.481 -595.348 141.646C-594.351 140.673 -593.358 139.697 -592.475 138.619C-578.843 121.977 -563.953 107.047 -546.949 98.6736C-469.527 60.1043 -405.424 80.4864 -345.255 108.215C-291.242 133.346 -217.721 154.579 -197.239 186.653C-184.862 206.587 -163.405 244.26 -145.512 263.343C-137.71 272.034 -131.185 277.678 -126.645 282.427C-118.169 289.37 -121.432 295.417 -101.589 295.417C-81.7455 295.417 -65.1647 264.643 -50.1983 236.511C-35.2319 208.379 0.552827 129.493 49.9924 104.811C127.414 66.2414 191.518 86.6234 251.686 114.352C275.506 125.23 303.261 135.692 328.541 146.499C330.434 147.308 332.436 147.85 334.491 147.974C346.669 148.708 359.654 146.572 366.843 137.78C381.809 119.996 396.439 95.3139 407.841 84.4733C427.045 66.2861 450.15 65.8381 472.583 68.8842C495.049 71.8856 526.597 90.5208 547.415 117.398C555.218 127.388 565.61 150.323 574.725 161.164C583.079 171.1 592.252 158.456 598.231 152.621C599.228 151.648 600.221 150.672 601.104 149.594C614.736 132.952 629.626 118.022 646.631 109.649C724.052 71.0793 788.156 91.4614 848.324 119.19C902.338 144.321 975.858 165.554 996.34 197.628C1008.72 217.562 1030.17 255.235 1048.07 274.319C1065.93 293.805 1074.4 298.15 1078.3 308.991ZM457.987 91.9094C431.325 87.1177 420.594 102.293 401.401 133.899C401.394 133.911 401.402 133.928 401.417 133.928C401.564 133.928 401.652 134.092 401.576 134.217C387.843 156.686 397.245 182.964 404.679 200.226C417.023 221.011 436.227 252.637 451.832 269.525C460.946 279.47 467.774 285.562 472.651 290.311C480.151 296.403 474.938 301.151 494.781 301.151C514.624 301.151 531.204 270.421 546.171 242.245C549.097 237.048 552.662 230.105 556.563 222.31C573.783 176.395 536.384 137.377 522.729 123.087C509.041 108.394 484.321 96.2546 457.987 91.9094ZM-735.492 80.6656C-762.154 75.8739 -772.884 91.0489 -792.077 122.655C-792.085 122.668 -792.076 122.684 -792.061 122.684C-791.915 122.684 -791.826 122.848 -791.903 122.973C-805.635 145.442 -796.233 171.72 -788.799 188.982C-776.456 209.767 -757.252 241.393 -741.646 258.282C-732.532 268.226 -725.705 274.319 -720.828 279.067C-713.328 285.159 -718.541 289.907 -698.698 289.907C-678.855 289.907 -662.274 259.177 -647.307 231.001C-644.381 225.804 -640.816 218.861 -636.915 211.067C-619.695 165.151 -657.095 126.133 -670.749 111.844C-684.438 97.1505 -709.157 85.0108 -735.492 80.6656Z" stroke="var(--stroke-0, #4E4E50)" stroke-width="0.97" stroke-miterlimit="10"/>
<path id="Vector_17" d="M493.133 269.615C476.552 265.718 448.906 232.793 433.604 212.007C418.334 191.177 415.408 169.093 417.023 157.401C418.637 145.709 434.579 126.626 443.357 121.43C457.012 113.636 474.904 117.981 489.231 126.626C503.525 134.824 535.072 165.151 540.285 192.029C545.83 218.838 509.776 273.373 493.176 269.58C493.154 269.575 493.133 269.592 493.133 269.615ZM493.133 269.615H493.469M475.543 142.171C461.345 134.428 438.452 147.194 438.147 161.371C438.143 161.556 438.084 161.737 437.972 161.885C437.865 162.028 437.805 162.202 437.802 162.381C437.518 176.529 441.122 186.911 454.388 205.87C467.707 224.954 490.476 251.831 500.902 243.141C511.328 234.45 524.983 200.674 518.794 185.936C512.64 171.198 489.837 149.965 475.543 142.171Z" stroke="var(--stroke-0, #4E4E50)" stroke-width="0.97" stroke-miterlimit="10"/>
<path id="Vector_18" d="M501.59 214.963C501.583 214.963 501.578 214.956 501.582 214.95C508.063 203.262 504.834 190.68 498.009 181.187C491.182 171.69 476.552 160.805 470.027 159.506C463.502 158.207 456.675 165.15 457.011 172.497C457.011 179.843 460.913 187.235 472.314 201.972C483.642 216.615 494.937 226.128 501.151 214.74C501.206 214.639 501.351 214.621 501.42 214.713L501.597 214.949C501.601 214.955 501.597 214.963 501.59 214.963Z" stroke="var(--stroke-0, #4E4E50)" stroke-width="0.97" stroke-miterlimit="10"/>
<path id="Vector_19" d="M-110.938 93.7007C-96.6444 101.898 -65.0972 132.225 -59.8842 159.103C-54.3349 185.936 -90.4561 240.542 -107.037 236.645C-123.618 232.747 -151.263 199.822 -166.566 179.037C-181.835 158.207 -184.761 136.122 -183.147 124.431C-181.532 112.739 -165.591 93.6559 -156.813 88.4596C-143.17 80.672 -125.297 85.0026 -110.976 93.6328C-110.953 93.6472 -110.938 93.6729 -110.938 93.7007ZM-110.938 93.7007H-110.602M-145.411 172.945C-132.187 191.893 -109.613 218.481 -99.1204 210.393C-99.0897 210.37 -99.0423 210.407 -99.0656 210.438C-99.0889 210.469 -99.0563 210.513 -99.0269 210.487C-88.6284 201.527 -75.1942 168.099 -81.3417 153.458C-87.4964 138.721 -110.299 117.487 -124.593 109.693C-138.887 101.898 -161.992 114.889 -161.992 129.179C-162.328 143.469 -158.73 153.862 -145.411 172.945Z" stroke="var(--stroke-0, #4E4E50)" stroke-width="0.97" stroke-miterlimit="10"/>
<path id="Vector_20" d="M-130.141 127.03C-130.142 127.03 -130.143 127.029 -130.144 127.029C-136.635 125.732 -143.495 132.674 -143.158 140.02C-143.158 147.367 -139.257 154.758 -127.855 169.496C-116.454 184.234 -105.086 193.776 -98.8981 182.039C-92.407 170.347 -95.6357 157.76 -102.463 148.263C-109.187 138.91 -123.477 128.211 -130.142 126.647C-130.25 126.622 -130.322 126.746 -130.255 126.835L-130.128 127.004C-130.12 127.014 -130.128 127.03 -130.141 127.03Z" stroke="var(--stroke-0, #4E4E50)" stroke-width="0.97" stroke-miterlimit="10"/>
<path id="Vector_21" d="M365.633 233.599C365.611 233.599 365.592 233.593 365.576 233.578C331.69 202.389 164.57 131.777 125.229 129.18C85.8789 126.582 30.5873 175.096 10.7442 206.722C-8.76262 238.348 -28.6057 282.113 -7.14829 298.553C-7.14829 298.553 64.0851 338.825 89.7802 368.749C115.139 398.224 161.35 461.879 195.823 481.41C230.296 500.493 285.588 499.194 317.169 472.765C348.716 446.335 396.541 398.224 405.656 369.645C414.077 341.134 399.872 265.145 366.213 233.825C366.055 233.678 365.849 233.599 365.633 233.599ZM387.729 348.859C386.418 381.336 329.814 432.045 278.121 454.578C226.731 477.11 182.168 442.035 165.89 421.653C147.662 398.672 109.623 357.55 91.0583 338.914C72.1905 320.279 36.742 301.644 18.5132 289.101C0.284486 276.962 7.78452 255.728 15.5872 244.037C23.3899 232.345 51.7084 193.328 75.4528 178.634C98.5583 163.897 129.769 148.308 160.677 160.85C191.585 172.99 314.848 225.85 340.577 242.29C366.23 258.301 389.604 316.194 388.073 349.147C388.069 349.238 387.994 349.307 387.902 349.307C387.807 349.307 387.729 349.23 387.729 349.135V348.859Z" stroke="var(--stroke-0, #4E4E50)" stroke-width="0.97" stroke-miterlimit="10"/>
<path id="Vector_22" d="M320.027 370.54C340.509 341.064 334.993 307.691 313.2 286.906C291.406 265.673 229.59 237.093 203.255 225.401C176.888 214.113 140.127 203.317 123.547 206.766C103.065 210.663 77.033 245.335 73.468 252.682C70.2393 260.028 69.264 272.616 86.8201 279.963C104.712 287.354 135.621 306.84 152.538 322.429C168.816 338.466 188.323 380.037 214.993 396.074C241.663 412.066 299.579 400.374 320.061 370.495L320.027 370.54ZM320.027 370.54H320.363M216.944 206.721C242.587 217.093 301.294 247.319 329.978 269.838C330.089 269.925 330.15 270.056 330.15 270.197C330.15 270.339 330.215 270.472 330.326 270.56C358.809 293.142 367.862 338.924 356.182 365.747C344.478 392.58 289.489 434.195 267.056 438.092C244.623 441.99 221.518 435.494 194.847 414.709C168.177 393.879 145.71 355.354 125.228 332.374C105.082 309.394 71.2483 296.851 52.0442 282.113C32.5038 267.375 44.8805 248.292 52.6832 235.749C61.4613 221.459 91.0914 191.132 115.139 184.637C139.186 178.141 191.585 196.329 216.944 206.721Z" stroke="var(--stroke-0, #4E4E50)" stroke-width="0.97" stroke-miterlimit="10"/>
<path id="Vector_23" d="M240.355 267.824C240.362 267.824 240.365 267.815 240.359 267.812C221.475 259.159 176.308 237.943 159.062 232.301C141.809 226.657 130.441 233.6 117.425 243.545C104.41 253.489 102.459 270.422 129.129 279.516C149.611 286.459 168.479 302.048 181.495 321.086C194.511 339.722 220.206 382.188 243.614 384.786C273.85 388.236 316.798 354.459 315.823 329.777C314.853 305.243 259.557 277.258 240.361 268.431C240.175 268.345 240.132 268.117 240.255 267.953L240.35 267.827C240.351 267.825 240.353 267.824 240.355 267.824ZM263.423 350.562C263.433 350.562 263.437 350.576 263.428 350.581C246.854 361.381 228.003 342.761 218.894 330.628C209.477 318.488 186.035 292.059 174.97 282.965C166.192 275.619 149.611 270.825 146.685 266.077C142.784 259.582 148.972 252.235 162.627 255.236C176.618 257.835 215.329 283.816 229.623 288.609C243.917 293.403 269.309 306.797 279.702 316.338C289.994 326.187 273.534 344.163 264.036 350.384C263.852 350.504 263.643 350.562 263.423 350.562Z" stroke="var(--stroke-0, #4E4E50)" stroke-width="0.97" stroke-miterlimit="10"/>
<path id="Vector_24" d="M-231.914 227.955C-231.936 227.955 -231.955 227.948 -231.971 227.934C-265.857 196.745 -432.977 126.133 -472.318 123.535C-511.668 120.937 -566.96 169.451 -586.803 201.077C-606.31 232.703 -626.153 276.469 -604.695 292.909C-604.695 292.909 -533.462 333.18 -507.767 363.104C-482.408 392.58 -436.197 456.235 -401.724 475.766C-367.251 494.849 -311.959 493.55 -280.378 467.12C-248.831 440.691 -201.006 392.58 -191.892 364C-183.47 335.489 -197.675 259.5 -231.334 228.181C-231.492 228.034 -231.698 227.955 -231.914 227.955ZM-209.515 343.215C-210.827 375.692 -267.43 426.401 -319.123 448.933C-370.513 471.465 -415.076 436.39 -431.354 416.008C-449.583 393.028 -487.621 351.905 -506.186 333.27C-525.054 314.635 -560.502 296 -578.731 283.457C-596.96 271.317 -589.46 250.084 -581.657 238.392C-573.854 226.7 -545.536 187.683 -521.792 172.99C-498.686 158.252 -467.475 142.663 -436.567 155.206C-405.659 167.346 -282.396 220.205 -256.668 236.645C-231.014 252.656 -207.64 310.549 -209.171 343.502C-209.175 343.594 -209.251 343.663 -209.343 343.663C-209.438 343.663 -209.515 343.585 -209.515 343.49V343.215Z" fill="var(--fill-0, white)"/>
<path id="Vector_25" d="M-267.06 264.597C-267.06 264.456 -267.121 264.325 -267.232 264.238C-295.917 241.72 -354.623 211.494 -380.267 201.122C-405.625 190.729 -458.025 172.542 -482.072 179.037C-506.153 185.533 -535.749 215.859 -544.527 230.149C-552.33 242.692 -564.707 261.775 -545.166 276.513C-525.659 291.251 -492.128 303.794 -471.982 326.774C-451.5 349.755 -429.034 388.279 -402.363 409.109C-375.693 429.895 -352.587 436.39 -330.154 432.493C-307.722 428.595 -252.733 386.98 -241.029 360.147C-229.348 333.325 -238.402 287.542 -266.884 264.96C-266.995 264.873 -267.06 264.739 -267.06 264.597ZM-277.15 364.448C-297.632 394.327 -355.547 406.018 -382.217 390.026C-408.888 373.989 -428.394 332.418 -444.673 316.382C-461.59 300.793 -492.498 281.306 -510.39 273.915C-527.946 266.569 -526.971 253.981 -523.742 246.634C-520.177 239.288 -494.146 204.616 -473.664 200.718C-457.083 197.269 -420.323 208.065 -393.955 219.353C-367.621 231.045 -305.805 259.625 -284.011 280.858C-262.217 301.644 -256.701 335.017 -277.183 364.492L-277.15 364.448Z" fill="var(--fill-0, white)"/>
<path id="Vector_26" d="M-691.888 204.123C-691.895 204.123 -691.9 204.116 -691.896 204.11C-685.415 192.422 -688.644 179.84 -695.469 170.347C-702.296 160.85 -716.926 149.965 -723.451 148.666C-729.976 147.367 -736.803 154.31 -736.467 161.657C-736.13 169.003 -732.565 176.395 -721.164 191.133C-709.836 205.775 -698.542 215.289 -692.327 203.9C-692.272 203.799 -692.127 203.781 -692.058 203.873L-691.881 204.109C-691.877 204.115 -691.881 204.123 -691.888 204.123Z" fill="var(--fill-0, white)"/>
<path id="Vector_27" d="M501.59 214.963C501.583 214.963 501.578 214.956 501.582 214.95C508.063 203.262 504.834 190.68 498.009 181.187C491.182 171.69 476.552 160.805 470.027 159.506C463.502 158.207 456.675 165.15 457.011 172.497C457.011 179.843 460.913 187.235 472.314 201.972C483.642 216.615 494.937 226.128 501.151 214.74C501.206 214.639 501.351 214.621 501.42 214.713L501.597 214.949C501.601 214.955 501.597 214.963 501.59 214.963Z" fill="var(--fill-0, #F3F3F3)"/>
<path id="Vector_28" d="M-110.938 93.7007C-110.938 93.6729 -110.953 93.6472 -110.976 93.6328C-125.297 85.0026 -143.17 80.672 -156.813 88.4596C-165.591 93.6559 -181.532 112.739 -183.147 124.431C-184.761 136.122 -181.835 158.207 -166.566 179.037C-151.263 199.822 -123.618 232.747 -107.037 236.645C-90.4561 240.542 -54.3349 185.936 -59.8842 159.103C-65.0972 132.225 -96.6444 101.898 -110.938 93.7007ZM-99.0656 210.438C-99.0423 210.407 -99.0897 210.37 -99.1204 210.393C-109.613 218.481 -132.187 191.893 -145.411 172.945C-158.73 153.862 -162.328 143.469 -161.992 129.179C-161.992 114.889 -138.887 101.898 -124.593 109.693C-110.299 117.487 -87.4964 138.721 -81.3417 153.458C-75.1942 168.099 -88.6284 201.527 -99.0269 210.487C-99.0563 210.513 -99.0889 210.469 -99.0656 210.438Z" fill="var(--fill-0, white)"/>
<path id="Vector_29" d="M330.15 270.197C330.15 270.056 330.089 269.925 329.978 269.838C301.294 247.319 242.587 217.093 216.944 206.721C191.585 196.329 139.186 178.141 115.139 184.637C91.0914 191.132 61.4613 221.459 52.6832 235.749C44.8805 248.292 32.5038 267.375 52.0442 282.113C71.2483 296.851 105.082 309.394 125.228 332.374C145.71 355.354 168.177 393.879 194.847 414.709C221.518 435.494 244.623 441.99 267.056 438.092C289.489 434.195 344.478 392.58 356.182 365.747C367.862 338.924 358.809 293.142 330.326 270.56C330.215 270.472 330.15 270.339 330.15 270.197ZM320.061 370.495C299.579 400.374 241.663 412.066 214.993 396.074C188.323 380.037 168.816 338.466 152.538 322.429C135.621 306.84 104.712 287.354 86.8201 279.963C69.264 272.616 70.2393 260.028 73.468 252.682C77.033 245.335 103.065 210.663 123.547 206.766C140.127 203.317 176.888 214.113 203.255 225.401C229.59 237.093 291.406 265.673 313.2 286.906C334.993 307.691 340.509 341.064 320.027 370.54L320.061 370.495Z" fill="var(--fill-0, #ECECEC)"/>
<path id="Vector_30" d="M-1086.86 31.5332C-1086.81 31.6339 -1086.71 31.6928 -1086.6 31.6765C-1066.35 28.655 -1024.21 28.2898 -985.952 40.349C-957.667 49.4426 -926.086 68.9289 -902.342 81.5165C-878.597 94.5074 -851.927 110.544 -836.624 103.601C-821.321 96.6575 -788.496 36.4518 -766.366 30.3595C-743.933 24.3121 -672.027 38.602 -644.718 72.3782C-617.408 106.154 -607.621 119.19 -595.278 108.752C-582.901 98.3597 -537.06 56.3412 -520.143 50.249C-503.226 44.1567 -493.136 35.959 -475.917 35.959C-473.912 35.959 -472.152 35.767 -470.614 35.4313C-466.584 34.5517 -462.64 32.8033 -458.516 32.7572C-436.992 32.5167 -408.844 35.0494 -382.553 43.3056C-354.268 52.3992 -322.688 71.8854 -298.943 84.4731C-275.199 97.4639 -248.528 113.501 -233.225 106.557C-217.923 99.6141 -185.097 39.4083 -162.967 33.3161C-140.535 27.2686 -68.6286 41.5585 -41.3191 75.3347C-14.0096 109.111 -4.22255 122.146 8.12054 111.709C20.4973 101.316 66.3382 59.2977 83.2553 53.2054C94.329 49.0942 102.211 44.2212 111.289 41.5076C112.324 41.1981 113.384 41.0107 114.46 40.9152C136.484 38.9625 173.551 40.0287 207.191 50.6073C235.475 59.7009 267.056 79.1871 290.801 91.7748C314.545 104.766 341.215 120.803 356.518 113.859C371.821 106.916 404.646 46.71 426.776 40.6178C449.209 34.5703 521.115 48.8603 548.425 82.6364C575.734 116.413 585.521 129.448 597.864 119.011C610.241 108.618 656.082 66.5995 672.999 60.5072C689.916 54.415 700.006 46.2173 717.226 46.2173C735.757 46.2173 736.094 30.6283 711.71 24.5361C687.327 18.4438 660.32 41.4242 636.575 60.0593C612.831 78.2464 595.577 109.469 577.685 90.8341C554.579 67.0026 546.777 56.162 528.884 44.9182C506.451 31.0763 452.102 15.4425 425.431 18.0406C398.761 20.6388 370.442 79.1423 352.247 86.0409C334.018 92.9843 302.471 70.8551 276.44 55.7141C248.794 40.1251 204.87 22.341 176.585 14.9945C155.43 9.3502 125.195 11.5452 105.352 16.7415C85.5087 20.6388 65.0265 37.9749 46.4614 52.2648C22.717 70.4519 5.46353 101.675 -12.4289 83.0396C-35.5343 59.2081 -43.337 48.3675 -61.2294 37.1237C-83.6622 23.2818 -138.012 7.64796 -164.683 10.2461C-191.353 12.8443 -219.672 71.3479 -237.867 78.2464C-256.095 85.1898 -287.643 63.0606 -313.674 47.9195C-341.32 32.3306 -385.244 14.5466 -413.529 7.20004C-437.692 1.01069 -473.98 4.66438 -492.826 11.7662C-494.618 12.4413 -496.458 12.9362 -498.339 13.2942C-518.288 17.0918 -538.991 34.3208 -557.61 48.8155C-581.354 67.0026 -598.608 98.2254 -616.5 79.5903C-639.605 55.7589 -647.408 44.9183 -665.301 33.6745C-687.733 19.8325 -742.083 4.19872 -768.754 6.79689C-795.424 9.39505 -823.743 67.8985 -841.938 74.7971C-860.167 81.7405 -891.714 59.6113 -917.745 44.4702C-945.391 28.8812 -989.315 11.0973 -1017.6 3.75073C-1041.98 -2.58205 -1078.71 1.03768 -1097.34 8.26883C-1102.32 10.2008 -1105.7 15.0539 -1104.69 20.2977C-1103.66 25.6446 -1100.2 31.4149 -1089.84 30.3516C-1088.99 30.2643 -1088.12 30.4852 -1087.45 31.021L-1086.93 31.4425C-1086.9 31.4668 -1086.87 31.4979 -1086.86 31.5332Z" stroke="var(--stroke-0, #4E4E50)" stroke-width="0.97" stroke-miterlimit="10"/>
</g>
</g>
</g>
</g>
</svg>
