<svg preserveAspectRatio="none" width="100%" height="100%" overflow="visible" style="display: block;" viewBox="0 0 911 696" fill="none" xmlns="http://www.w3.org/2000/svg">
<g id="Mask group">
<mask id="mask0_0_41" style="mask-type:alpha" maskUnits="userSpaceOnUse" x="100" y="96" width="711" height="496">
<path id="Rectangle 5" opacity="0.85" d="M100 116C100 104.954 108.954 96 120 96H791C802.046 96 811 104.954 811 116V572C811 583.046 802.046 592 791 592H120C108.954 592 100 583.046 100 572V116Z" fill="var(--fill-0, white)" fill-opacity="0.5"/>
</mask>
<g mask="url(#mask0_0_41)">
<g id="Group 1">
<path id="Vector" d="M1579.48 782.763C1579.45 782.763 1579.43 782.756 1579.41 782.738C1538.77 747.284 1338.34 667.016 1291.16 664.063C1243.96 661.11 1177.65 716.259 1153.85 752.21C1130.46 788.161 1106.66 837.912 1132.39 856.6C1132.39 856.6 1217.82 902.379 1248.64 936.395C1279.05 969.902 1334.48 1042.26 1375.82 1064.46C1417.17 1086.16 1483.48 1084.68 1521.35 1054.64C1559.23 1024.59 1616.55 969.902 1627.48 937.414C1637.58 905.006 1620.54 818.633 1580.18 783.027C1579.99 782.855 1579.74 782.763 1579.48 782.763ZM1605.98 913.786C1604.4 950.704 1536.52 1008.35 1474.52 1033.96C1412.89 1059.58 1359.44 1019.7 1339.92 996.534C1318.06 970.411 1272.44 923.665 1250.17 902.481C1227.55 881.297 1185.03 860.114 1163.17 845.855C1141.31 832.056 1150.3 807.918 1159.66 794.628C1169.02 781.337 1202.98 736.984 1231.46 720.281C1259.17 703.528 1296.6 685.807 1333.67 700.065C1370.74 713.865 1518.57 773.953 1549.43 792.642C1580.19 810.841 1608.22 876.642 1606.39 914.103C1606.39 914.213 1606.29 914.295 1606.18 914.295C1606.07 914.295 1605.98 914.202 1605.98 914.088V913.786Z" stroke="var(--stroke-0, #4E4E50)" stroke-width="0.97" stroke-miterlimit="10"/>
<path id="Vector_2" d="M1529.98 938.483C1554.55 904.976 1547.93 867.039 1521.8 843.411C1495.66 819.274 1421.52 786.786 1389.94 773.495C1358.31 760.663 1314.23 748.39 1294.34 752.311C1269.78 756.742 1238.56 796.155 1234.28 804.507C1230.41 812.858 1229.24 827.167 1250.29 835.518C1271.75 843.92 1308.82 866.072 1329.11 883.793C1348.63 902.023 1372.03 949.278 1404.02 967.509C1436 985.688 1505.46 972.397 1530.02 938.432L1529.98 938.483ZM1529.98 938.483H1530.39M1406.72 752.77C1437.47 764.561 1507.89 798.925 1542.29 824.523C1542.42 824.619 1542.49 824.766 1542.49 824.926C1542.49 825.087 1542.56 825.238 1542.69 825.334C1576.86 851.002 1587.72 903.051 1573.71 933.543C1559.67 964.046 1493.72 1011.35 1466.82 1015.78C1439.91 1020.21 1412.2 1012.83 1380.22 989.201C1348.23 965.523 1321.29 921.729 1296.72 895.606C1272.56 869.483 1232.39 855.225 1208.95 838.472C1185.51 821.718 1200.36 800.026 1209.72 785.767C1220.24 769.523 1255.78 735.049 1284.62 727.665C1313.46 720.281 1376.3 740.956 1406.72 752.77Z" stroke="var(--stroke-0, #4E4E50)" stroke-width="0.97" stroke-miterlimit="10"/>
<path id="Vector_3" d="M1418.58 818.968C1418.58 818.813 1418.49 818.676 1418.35 818.612C1396.77 808.72 1345.95 784.726 1326.49 778.332C1306.97 771.916 1294.1 779.809 1279.3 791.114C1264.49 802.419 1262.11 821.667 1292.57 832.004C1315.6 839.897 1337.06 857.618 1351.86 879.26C1366.3 900.444 1395.54 948.718 1422.49 951.672C1456.82 955.593 1505.58 917.197 1504.41 889.139C1503.25 861.176 1440.46 829.268 1418.8 819.324C1418.66 819.259 1418.58 819.123 1418.58 818.968ZM1444.92 912.818C1444.98 912.818 1445 912.896 1444.95 912.928C1426.27 925.014 1404.91 903.916 1394.42 890.158C1383.89 876.358 1356.98 846.314 1344.48 835.976C1334.36 827.625 1315.6 822.176 1312.49 816.779C1308.22 809.395 1314.83 801.044 1330.85 804.455C1346.86 807.409 1390.54 836.944 1406.52 842.393C1422.53 847.79 1451.37 863.067 1463.07 873.913C1474.7 885.16 1455.84 905.731 1444.88 912.711C1444.83 912.743 1444.86 912.818 1444.92 912.818Z" stroke="var(--stroke-0, #4E4E50)" stroke-width="0.97" stroke-miterlimit="10"/>
<path id="Vector_4" d="M1579.48 782.763C1579.45 782.763 1579.43 782.756 1579.41 782.738C1538.77 747.284 1338.34 667.016 1291.16 664.063C1243.96 661.11 1177.65 716.259 1153.85 752.21C1130.46 788.161 1106.66 837.912 1132.39 856.6C1132.39 856.6 1217.82 902.379 1248.64 936.395C1279.05 969.902 1334.48 1042.26 1375.82 1064.46C1417.17 1086.16 1483.48 1084.68 1521.35 1054.64C1559.23 1024.59 1616.55 969.902 1627.48 937.414C1637.58 905.006 1620.54 818.633 1580.18 783.027C1579.99 782.855 1579.74 782.763 1579.48 782.763ZM1605.98 913.786C1604.4 950.704 1536.52 1008.35 1474.52 1033.96C1412.89 1059.58 1359.44 1019.7 1339.92 996.534C1318.06 970.411 1272.44 923.665 1250.17 902.481C1227.55 881.297 1185.03 860.114 1163.17 845.855C1141.31 832.056 1150.3 807.918 1159.66 794.628C1169.02 781.337 1202.98 736.984 1231.46 720.281C1259.17 703.528 1296.6 685.807 1333.67 700.065C1370.74 713.865 1518.57 773.953 1549.43 792.642C1580.19 810.841 1608.22 876.642 1606.39 914.103C1606.39 914.213 1606.29 914.295 1606.18 914.295C1606.07 914.295 1605.98 914.202 1605.98 914.088V913.786Z" fill="var(--fill-0, white)"/>
<path id="Vector_5" d="M1418.58 818.968C1418.58 818.813 1418.49 818.676 1418.35 818.612C1396.77 808.72 1345.95 784.726 1326.49 778.332C1306.97 771.916 1294.1 779.809 1279.3 791.114C1264.49 802.419 1262.11 821.667 1292.57 832.004C1315.6 839.897 1337.06 857.618 1351.86 879.26C1366.3 900.444 1395.54 948.718 1422.49 951.672C1456.82 955.593 1505.58 917.197 1504.41 889.139C1503.25 861.176 1440.46 829.268 1418.8 819.324C1418.66 819.259 1418.58 819.123 1418.58 818.968ZM1444.92 912.818C1444.98 912.818 1445 912.896 1444.95 912.928C1426.27 925.014 1404.91 903.916 1394.42 890.158C1383.89 876.358 1356.98 846.314 1344.48 835.976C1334.36 827.625 1315.6 822.176 1312.49 816.779C1308.22 809.395 1314.83 801.044 1330.85 804.455C1346.86 807.409 1390.54 836.944 1406.52 842.393C1422.53 847.79 1451.37 863.067 1463.07 873.913C1474.7 885.16 1455.84 905.731 1444.88 912.711C1444.83 912.743 1444.86 912.818 1444.92 912.818Z" fill="var(--fill-0, #F3F3F3)"/>
<path id="Vector_6" d="M-572.853 782.763C-572.879 782.763 -572.901 782.756 -572.921 782.738C-613.563 747.284 -813.992 667.016 -861.174 664.063C-908.368 661.11 -974.68 716.259 -998.478 752.21C-1021.87 788.161 -1045.67 837.912 -1019.94 856.6C-1019.94 856.6 -934.505 902.379 -903.689 936.395C-873.275 969.902 -817.854 1042.26 -776.509 1064.46C-735.165 1086.16 -668.852 1084.68 -630.977 1054.64C-593.142 1024.59 -535.784 969.902 -524.853 937.414C-514.753 905.006 -531.787 818.633 -572.149 783.027C-572.344 782.855 -572.592 782.763 -572.853 782.763ZM-546.392 913.786C-547.965 950.704 -615.851 1008.35 -677.847 1033.96C-739.481 1059.58 -792.926 1019.7 -812.449 996.534C-834.311 970.411 -879.931 923.665 -902.196 902.481C-924.825 881.297 -967.339 860.114 -989.201 845.855C-1011.06 832.056 -1002.07 807.918 -992.71 794.628C-983.352 781.337 -949.389 736.984 -920.912 720.281C-893.201 703.528 -855.769 685.807 -818.701 700.065C-781.632 713.865 -633.8 773.953 -602.943 792.642C-572.179 810.841 -544.149 876.642 -545.979 914.103C-545.984 914.213 -546.075 914.295 -546.185 914.295C-546.299 914.295 -546.392 914.202 -546.392 914.088V913.786Z" stroke="var(--stroke-0, #4E4E50)" stroke-width="0.97" stroke-miterlimit="10"/>
<path id="Vector_7" d="M-622.385 938.483C-597.821 904.976 -604.436 867.039 -630.574 843.411C-656.711 819.274 -730.849 786.786 -762.432 773.495C-794.055 760.663 -838.143 748.39 -858.028 752.311C-882.593 756.742 -913.813 796.155 -918.089 804.507C-921.961 812.858 -923.131 827.167 -902.075 835.518C-880.617 843.92 -843.548 866.072 -823.259 883.793C-803.736 902.023 -780.341 949.329 -748.355 967.509C-716.368 985.688 -646.91 972.397 -622.345 938.432L-622.385 938.483ZM-622.385 938.483H-621.982M-745.612 752.77C-714.855 764.561 -644.44 798.925 -610.04 824.523C-609.912 824.619 -609.841 824.766 -609.841 824.926C-609.841 825.087 -609.765 825.238 -609.637 825.334C-575.472 851.002 -564.612 903.051 -578.621 933.543C-592.658 964.046 -658.607 1011.35 -685.511 1015.78C-712.415 1020.21 -740.126 1012.83 -772.113 989.201C-804.099 965.523 -831.044 921.729 -855.608 895.606C-879.769 869.483 -919.944 855.225 -943.379 838.472C-966.815 821.718 -951.971 800.026 -942.613 785.767C-932.085 769.523 -896.549 735.049 -867.709 727.665C-838.869 720.281 -776.025 740.956 -745.612 752.77Z" stroke="var(--stroke-0, #4E4E50)" stroke-width="0.97" stroke-miterlimit="10"/>
<path id="Vector_8" d="M-733.753 818.968C-733.753 818.813 -733.835 818.676 -733.976 818.612C-755.563 808.72 -806.384 784.726 -825.84 778.332C-845.362 771.916 -858.23 779.809 -873.033 791.114C-887.836 802.419 -890.216 821.667 -859.762 832.004C-836.73 839.897 -815.272 857.618 -800.468 879.26C-786.028 900.444 -756.784 948.718 -729.84 951.672C-695.514 955.593 -646.748 917.197 -647.918 889.139C-649.083 861.176 -711.866 829.268 -733.533 819.324C-733.674 819.259 -733.753 819.123 -733.753 818.968ZM-707.45 912.818C-707.391 912.818 -707.371 912.896 -707.421 912.928C-726.097 925.014 -747.458 903.916 -757.954 890.158C-768.482 876.358 -795.386 846.314 -807.89 835.976C-818.015 827.625 -836.771 822.176 -839.877 816.779C-844.152 809.395 -837.537 801.044 -821.524 804.455C-805.51 807.409 -761.826 836.944 -745.853 842.393C-729.84 847.79 -701 863.067 -689.302 873.913C-677.665 885.16 -696.529 905.731 -707.486 912.711C-707.536 912.743 -707.509 912.818 -707.45 912.818Z" stroke="var(--stroke-0, #4E4E50)" stroke-width="0.97" stroke-miterlimit="10"/>
<path id="Vector_9" d="M-572.853 782.763C-572.879 782.763 -572.901 782.756 -572.921 782.738C-613.563 747.284 -813.992 667.016 -861.174 664.063C-908.368 661.11 -974.68 716.259 -998.478 752.21C-1021.87 788.161 -1045.67 837.912 -1019.94 856.6C-1019.94 856.6 -934.505 902.379 -903.689 936.395C-873.275 969.902 -817.854 1042.26 -776.509 1064.46C-735.165 1086.16 -668.852 1084.68 -630.977 1054.64C-593.142 1024.59 -535.784 969.902 -524.853 937.414C-514.753 905.006 -531.787 818.633 -572.149 783.027C-572.344 782.855 -572.592 782.763 -572.853 782.763ZM-546.392 913.786C-547.965 950.704 -615.851 1008.35 -677.847 1033.96C-739.481 1059.58 -792.926 1019.7 -812.449 996.534C-834.311 970.411 -879.931 923.665 -902.196 902.481C-924.825 881.297 -967.339 860.114 -989.201 845.855C-1011.06 832.056 -1002.07 807.918 -992.71 794.628C-983.352 781.337 -949.389 736.984 -920.912 720.281C-893.201 703.528 -855.769 685.807 -818.701 700.065C-781.632 713.865 -633.8 773.953 -602.943 792.642C-572.179 810.841 -544.149 876.642 -545.979 914.103C-545.984 914.213 -546.075 914.295 -546.185 914.295C-546.299 914.295 -546.392 914.202 -546.392 914.088V913.786Z" fill="var(--fill-0, white)"/>
<path id="Vector_10" d="M-733.753 818.968C-733.753 818.813 -733.835 818.676 -733.976 818.612C-755.563 808.72 -806.384 784.726 -825.84 778.332C-845.362 771.916 -858.23 779.809 -873.033 791.114C-887.836 802.419 -890.216 821.667 -859.762 832.004C-836.73 839.897 -815.272 857.618 -800.468 879.26C-786.028 900.444 -756.784 948.718 -729.84 951.672C-695.514 955.593 -646.748 917.197 -647.918 889.139C-649.083 861.176 -711.866 829.268 -733.533 819.324C-733.674 819.259 -733.753 819.123 -733.753 818.968ZM-707.45 912.818C-707.391 912.818 -707.371 912.896 -707.421 912.928C-726.097 925.014 -747.458 903.916 -757.954 890.158C-768.482 876.358 -795.386 846.314 -807.89 835.976C-818.015 827.625 -836.771 822.176 -839.877 816.779C-844.152 809.395 -837.537 801.044 -821.524 804.455C-805.51 807.409 -761.826 836.944 -745.853 842.393C-729.84 847.79 -701 863.067 -689.302 873.913C-677.665 885.16 -696.529 905.731 -707.486 912.711C-707.536 912.743 -707.509 912.818 -707.45 912.818Z" fill="var(--fill-0, white)"/>
<g id="Group">
<path id="Vector_11" d="M316.062 106.598C316.036 106.598 316.013 106.591 315.993 106.574C275.351 71.1194 74.9223 -9.14862 27.74 -12.1014C-19.4531 -15.0549 -85.7656 40.0938 -109.564 76.0449C-132.959 111.996 -156.757 161.747 -131.023 180.435C-131.023 180.435 -45.5909 226.214 -14.7742 260.23C15.6392 293.737 71.0609 366.098 112.405 388.3C153.75 409.993 220.062 408.516 257.938 378.472C295.773 348.428 353.131 293.737 364.062 261.249C374.161 228.841 357.128 142.468 316.766 106.862C316.571 106.69 316.322 106.598 316.062 106.598ZM342.926 237.621C341.352 274.54 273.467 332.183 211.47 357.797C149.837 383.411 96.3919 343.539 76.8693 320.37C55.0071 294.246 9.3871 247.5 -12.8784 226.316C-35.5069 205.133 -78.0211 183.949 -99.8832 169.691C-121.745 155.891 -112.75 131.754 -103.392 118.463C-94.0344 105.172 -60.0714 60.8192 -31.5942 44.1167C-3.88338 27.3633 33.5484 9.64238 70.6172 23.9006C107.686 37.7005 255.517 97.7886 286.374 116.477C317.139 134.676 345.169 200.477 343.339 237.938C343.333 238.048 343.243 238.13 343.132 238.13C343.018 238.13 342.926 238.037 342.926 237.923V237.621Z" stroke="var(--stroke-0, #4E4E50)" stroke-width="0.97" stroke-miterlimit="10"/>
<path id="Vector_12" d="M261.769 261.809C286.334 228.302 279.719 190.365 253.581 166.737C227.444 142.6 153.306 110.112 121.723 96.8212C90.0994 83.9888 46.0122 71.7165 26.1265 75.6376C1.56188 80.0678 -29.6582 119.482 -33.9339 127.833C-37.8061 136.184 -38.9759 150.493 -17.9205 158.845C3.5383 167.247 40.6071 189.398 60.8962 207.119C80.4188 225.349 103.814 272.605 135.8 290.835C167.787 309.014 237.245 295.723 261.81 261.758L261.769 261.809ZM261.769 261.809H262.173M138.14 76.096C168.897 87.8871 239.312 122.251 273.711 147.849C273.84 147.945 273.911 148.092 273.911 148.253C273.911 148.413 273.987 148.564 274.115 148.66C308.28 174.328 319.14 226.377 305.131 256.87C291.094 287.372 225.144 334.679 198.24 339.109C171.336 343.539 143.625 336.156 111.639 312.528C79.6524 288.849 52.708 245.056 28.1433 218.933C3.98205 192.81 -36.233 178.551 -59.6279 161.798C-83.0631 145.045 -68.2195 123.352 -58.8615 109.093C-48.3338 92.8493 -12.8381 58.375 16.0425 50.9912C44.8828 43.6075 107.726 64.282 138.14 76.096Z" stroke="var(--stroke-0, #4E4E50)" stroke-width="0.97" stroke-miterlimit="10"/>
<path id="Vector_13" d="M165.774 145.503C165.782 145.503 165.786 145.492 165.778 145.489C143.13 135.652 88.9605 111.535 68.2779 105.122C47.5855 98.7057 33.9521 106.599 18.342 117.903C2.732 129.208 0.392436 148.457 32.3789 158.794C56.9435 166.687 79.5721 184.408 95.1821 206.05C110.792 227.233 141.609 275.508 169.683 278.461C205.945 282.382 257.454 243.987 256.284 215.929C255.121 188.04 188.802 156.226 165.781 146.193C165.562 146.097 165.512 145.829 165.661 145.641L165.768 145.506C165.769 145.504 165.771 145.503 165.774 145.503ZM194.288 239.556C194.299 239.556 194.303 239.572 194.293 239.578C174.416 251.855 151.807 230.688 140.883 216.896C129.589 203.096 101.474 173.052 88.2039 162.715C77.6762 154.364 57.7906 148.915 54.2813 143.517C49.6023 136.134 57.0243 127.782 73.4007 131.194C90.1805 134.148 136.607 163.682 153.75 169.131C170.893 174.58 201.346 189.806 213.81 200.652C226.152 211.846 206.419 232.276 195.027 239.35C194.803 239.489 194.551 239.556 194.288 239.556Z" stroke="var(--stroke-0, #4E4E50)" stroke-width="0.97" stroke-miterlimit="10"/>
<path id="Vector_14" d="M-245.375 141.633C-265.261 137.203 -298.417 99.7747 -316.77 76.1468C-335.083 52.468 -338.592 27.3633 -336.656 14.0726C-334.719 0.781935 -315.6 -20.9109 -305.073 -26.8179C-288.696 -35.6783 -267.237 -30.7389 -250.054 -20.9109C-232.911 -11.5921 -195.076 22.8822 -188.824 53.4355C-182.174 83.9129 -225.419 145.91 -245.326 141.593C-245.352 141.587 -245.375 141.607 -245.375 141.633ZM-245.375 141.633H-244.972M-266.431 -3.18992C-283.457 -11.99 -310.907 2.51699 -311.28 18.6295C-311.285 18.844 -311.357 19.0528 -311.49 19.221C-311.618 19.3828 -311.691 19.5841 -311.695 19.7905C-312.034 35.8705 -307.71 47.6714 -291.802 69.2214C-275.829 90.9143 -248.521 121.468 -236.017 111.589C-223.513 101.71 -207.137 63.3144 -214.559 46.561C-221.94 29.8076 -249.248 5.67054 -266.431 -3.18992Z" stroke="var(--stroke-0, #4E4E50)" stroke-width="0.97" stroke-miterlimit="10"/>
<path id="Vector_15" d="M-235.595 79.5075C-235.603 79.5075 -235.608 79.4985 -235.604 79.4914C-227.832 66.2052 -231.704 51.9033 -239.889 41.1121C-248.077 30.3166 -265.624 17.9425 -273.449 16.4658C-281.274 14.9891 -289.462 22.8821 -289.059 31.2334C-288.655 39.5846 -284.38 47.9867 -270.706 64.7401C-257.117 81.3899 -243.567 92.2055 -236.115 79.2429C-236.05 79.1303 -235.888 79.1103 -235.807 79.2121L-235.587 79.4903C-235.581 79.4973 -235.586 79.5075 -235.595 79.5075Z" stroke="var(--stroke-0, #4E4E50)" stroke-width="0.97" stroke-miterlimit="10"/>
<path id="Vector_16" d="M-441.247 392.73C-401.619 363.597 -359.714 310.484 -325.251 268.872C-324.302 267.726 -323.493 266.491 -322.81 265.17C-313.536 247.244 -296.862 218.278 -305.879 188.838C-319.916 145.045 -364.77 74.6194 -419.385 47.0196C-477.106 17.943 -573.065 -15.0545 -619.895 -33.2847C-673.34 -53.9591 -729.528 -47.0846 -770.873 -17.0405C-808.708 10.5593 -838.355 45.5429 -870.341 102.168C-884.378 126.255 -902.328 152.887 -902.328 175.038C-901.998 182.677 -896.8 189.052 -890.282 194.587C-888.978 195.694 -887.506 196.565 -885.947 197.268C-853.668 211.829 -808.056 238.467 -766.557 273.063C-722.873 309.524 -668.258 376.995 -623.767 412.947C-579.326 448.89 -494.283 431.133 -441.239 392.754C-441.229 392.747 -441.234 392.73 -441.247 392.73ZM-441.247 392.73H-440.843M273.467 398.637C313.095 369.504 354.999 316.391 389.463 274.779C390.412 273.633 391.221 272.398 391.904 271.077C401.178 253.151 417.852 224.185 408.835 194.745C394.798 150.952 349.944 80.5264 295.329 52.9266C237.608 23.85 141.649 -9.14754 94.8189 -27.3777C41.3737 -48.0521 -14.8144 -41.1776 -56.1589 -11.1335C-93.994 16.4663 -123.641 51.4499 -155.627 108.075C-169.664 132.162 -187.614 158.794 -187.614 180.945C-187.284 188.584 -182.087 194.959 -175.568 200.494C-174.264 201.601 -172.792 202.472 -171.233 203.175C-138.954 217.736 -93.3423 244.374 -51.843 278.97C-8.15906 315.431 46.4561 382.902 90.9467 418.854C135.388 454.797 220.431 437.04 273.475 398.661C273.485 398.653 273.48 398.637 273.467 398.637ZM273.467 398.637H273.87M990.117 405.054C1029.74 375.921 1071.65 322.807 1106.11 281.195C1107.06 280.049 1107.87 278.814 1108.55 277.493C1117.83 259.568 1134.5 230.601 1125.48 201.161C1111.45 157.368 1066.59 86.9426 1011.98 59.3428C954.258 30.2662 858.299 -2.7313 811.469 -20.9614C758.023 -41.6359 701.835 -34.7615 660.491 -4.7174C622.656 22.8824 593.009 57.866 561.022 114.491C546.985 138.578 528.633 165.21 529.036 187.361C529.366 195 534.563 201.376 541.082 206.91C542.386 208.017 543.858 208.888 545.417 209.591C577.696 224.152 623.308 250.791 664.807 285.386C708.491 321.847 763.106 389.319 807.597 425.27C852.038 461.213 937.081 443.456 990.125 405.077C990.135 405.07 990.13 405.054 990.117 405.054ZM990.117 405.054H990.52M1704.83 410.961C1744.46 381.827 1786.36 328.714 1820.83 287.102C1821.78 285.956 1822.58 284.721 1823.27 283.4C1832.54 265.475 1849.22 236.508 1840.2 207.068C1826.16 163.275 1781.31 92.8496 1726.69 65.2498C1668.97 36.1732 1573.01 3.17554 1526.18 -15.0546C1472.74 -35.729 1416.55 -28.8545 1375.21 1.18959C1337.37 28.7894 1307.72 63.773 1275.74 120.398C1261.7 144.485 1243.35 171.117 1243.75 193.268C1244.08 200.907 1249.28 207.282 1255.8 212.817C1257.1 213.924 1258.57 214.795 1260.13 215.498C1292.41 230.059 1338.02 256.698 1379.52 291.293C1423.2 327.754 1477.82 395.226 1522.31 431.177C1566.75 467.12 1651.79 449.363 1704.84 410.984C1704.85 410.977 1704.84 410.961 1704.83 410.961ZM1704.83 410.961H1705.23M1887.43 198.717C1888.93 202.949 1890.16 206.624 1891.03 209.951C1892.2 214.393 1897.41 217.377 1901.65 215.625C1920.14 207.994 1935.66 207.864 1945.75 212.421C1945.78 212.436 1945.81 212.391 1945.78 212.368C1945.76 212.349 1945.77 212.313 1945.8 212.313H1946.12C1945.45 212.313 1945.17 213.306 1945.73 213.676C1964.46 226.171 1994.9 282.473 1950.4 264.508C1903.97 245.82 1841.93 295.52 1808.01 345.78C1774.45 395.531 1686.68 482.201 1609.03 496.968C1531.39 511.736 1474.43 438.815 1418.65 380.713C1355.96 315.679 1289.17 279.82 1246.9 262.27C1245.65 261.752 1244.37 261.399 1243.06 261.053C1240.97 260.496 1238.75 259.67 1236.09 258.55C1189.66 239.862 1127.62 289.562 1093.7 339.822C1060.14 389.573 972.369 476.243 894.722 491.01C817.075 505.778 760.121 432.857 704.336 374.755C640.344 308.606 572.573 272.72 530.691 255.707C529.657 255.287 528.607 254.977 527.526 254.702C525.332 254.146 522.566 253.298 519.799 252.134C473.372 233.446 411.336 283.146 377.413 333.406C343.853 383.157 256.082 469.827 178.435 484.594C100.788 499.362 43.8341 426.441 -11.9506 368.339C-74.6342 303.304 -141.431 267.446 -183.699 249.896C-184.947 249.378 -186.231 249.025 -187.537 248.679C-189.632 248.122 -191.852 247.296 -194.511 246.176C-240.938 227.488 -302.975 277.188 -336.897 327.448C-370.457 377.199 -458.228 463.869 -535.875 478.636C-613.522 493.404 -670.476 420.483 -726.261 362.381C-812.056 273.216 -905.716 238.742 -932.62 231.358C-935.229 230.651 -937.393 229.721 -939.242 228.564C-943.02 226.199 -946.676 223.423 -950.986 222.287C-962.373 219.286 -972.539 215.96 -979.41 212.669C-1005.55 199.888 -1002.8 181.149 -1014.91 148.66C-1026.6 116.121 -982.919 170.811 -959.121 170.811C-935.323 170.811 -915.437 135.879 -897.487 103.849C-879.538 71.8696 -836.62 -17.8043 -777.326 -45.8625C-684.473 -89.7065 -607.592 -66.5369 -535.431 -35.016C-506.65 -22.5584 -473.079 -10.5808 -442.579 1.80217C-440.758 2.54147 -438.842 3.02952 -436.88 3.15697C-422.058 4.12019 -406.092 1.78302 -397.321 -8.38381C-379.371 -28.5999 -361.825 -56.6579 -348.151 -68.9811C-324.716 -89.6555 -297.409 -90.1648 -270.504 -86.7021C-243.56 -83.2903 -205.725 -62.1067 -180.757 -31.5533C-171.399 -20.1977 -158.935 5.87441 -148.004 18.1976C-137.86 29.6337 -126.708 14.7567 -119.546 8.24171C-118.516 7.30521 -117.499 6.35792 -116.59 5.30413C-100.18 -13.7175 -82.2522 -30.8004 -61.7656 -40.3629C31.0879 -84.2069 107.968 -61.0373 180.129 -29.5165C244.909 -0.949136 333.084 23.188 357.648 59.6483C372.492 82.3087 398.226 125.134 419.685 146.827C429.043 156.706 436.868 163.122 442.314 168.52C452.478 176.413 448.566 183.287 472.364 183.287C496.162 183.287 516.048 148.304 533.997 116.325C551.947 84.3456 594.864 -5.32834 654.158 -33.3865C747.012 -77.2305 823.892 -54.061 896.053 -22.5402C924.834 -10.0826 958.405 1.89519 988.905 14.2782C990.726 15.0175 992.643 15.5055 994.604 15.633C1009.43 16.5962 1025.39 14.259 1034.16 4.09219C1052.11 -16.1239 1069.66 -44.182 1083.33 -56.5052C1106.37 -77.1796 1134.08 -77.6889 1160.98 -74.2262C1187.92 -70.8144 1225.76 -49.6307 1250.73 -19.0773C1260.09 -7.7217 1272.55 18.3504 1283.48 30.6736C1293.62 42.1097 1304.78 27.2327 1311.94 20.7177C1312.97 19.7812 1313.99 18.8339 1314.89 17.7801C1331.3 -1.2415 1349.23 -18.3245 1369.72 -27.8869C1462.57 -71.731 1539.45 -48.5613 1611.61 -17.0405C1676.39 11.5269 1764.57 35.664 1789.13 72.1243C1803.98 94.7847 1829.71 137.61 1851.17 159.303C1872.59 181.454 1882.75 186.394 1887.43 198.717ZM1143.47 -48.0521C1111.5 -53.499 1098.63 -36.2491 1075.61 -0.321472C1075.6 -0.306814 1075.61 -0.287043 1075.63 -0.287043C1075.8 -0.287043 1075.9 -0.0911412 1075.81 0.0545005C1059.35 25.5935 1070.63 55.4584 1079.54 75.0777C1094.35 98.7056 1117.38 134.657 1136.09 153.854C1147.02 165.159 1155.21 172.084 1161.06 177.482C1170.06 184.408 1163.8 189.805 1187.6 189.805C1211.4 189.805 1231.29 154.873 1249.24 122.843C1252.74 116.936 1257.02 109.043 1261.7 100.182C1282.35 47.9871 1237.5 3.6339 1221.12 -12.6103C1204.7 -29.3128 1175.06 -43.1126 1143.47 -48.0521ZM-287.889 -60.8336C-319.865 -66.2805 -332.735 -49.0307 -355.753 -13.103C-355.762 -13.0884 -355.752 -13.0686 -355.734 -13.0686C-355.561 -13.0686 -355.459 -12.8726 -355.553 -12.7269C-372.01 12.812 -360.737 42.6769 -351.822 62.2962C-337.019 85.9241 -313.987 121.875 -295.271 141.073C-284.34 152.378 -276.151 159.303 -270.303 164.701C-261.308 171.626 -267.56 177.024 -243.762 177.024C-219.963 177.024 -200.078 142.091 -182.128 110.061C-178.619 104.154 -174.343 96.2614 -169.664 87.401C-149.012 35.2057 -193.866 -9.14762 -210.242 -25.3918C-226.659 -42.0943 -256.306 -55.8942 -287.889 -60.8336Z" stroke="var(--stroke-0, #4E4E50)" stroke-width="0.97" stroke-miterlimit="10"/>
<path id="Vector_17" d="M1185.63 153.955C1165.74 149.525 1132.58 112.097 1114.23 88.4695C1095.92 64.7907 1092.41 39.6861 1094.35 26.3954C1096.28 13.1047 1115.4 -8.58816 1125.93 -14.4951C1142.3 -23.3556 1163.76 -18.4161 1180.95 -8.58814C1198.09 0.730621 1235.92 35.205 1242.18 65.7583C1248.83 96.2358 1205.58 158.233 1185.67 153.915C1185.65 153.91 1185.63 153.929 1185.63 153.955ZM1185.63 153.955H1186.03M1164.53 9.08187C1147.5 0.281761 1120.05 14.7888 1119.68 30.9013C1119.68 31.1158 1119.6 31.3246 1119.47 31.4928C1119.34 31.6546 1119.27 31.8559 1119.27 32.0623C1118.93 48.1423 1123.25 59.9431 1139.16 81.4932C1155.13 103.186 1182.44 133.739 1194.94 123.86C1207.45 113.981 1223.82 75.5862 1216.4 58.8328C1209.02 42.0794 1181.67 17.9423 1164.53 9.08187Z" stroke="var(--stroke-0, #4E4E50)" stroke-width="0.97" stroke-miterlimit="10"/>
<path id="Vector_18" d="M1195.77 91.8307C1195.76 91.8307 1195.75 91.8217 1195.76 91.8146C1203.53 78.5285 1199.66 64.2265 1191.47 53.4354C1183.29 42.6399 1165.74 30.2658 1157.91 28.7891C1150.09 27.3123 1141.9 35.2052 1142.3 43.5565C1142.3 51.9077 1146.98 60.3099 1160.66 77.0633C1174.25 93.7132 1187.8 104.529 1195.25 91.5661C1195.31 91.4535 1195.48 91.4336 1195.56 91.5354L1195.78 91.8136C1195.78 91.8205 1195.78 91.8307 1195.77 91.8307Z" stroke="var(--stroke-0, #4E4E50)" stroke-width="0.97" stroke-miterlimit="10"/>
<path id="Vector_19" d="M461.151 -46.0162C478.294 -36.6975 516.129 -2.22313 522.381 28.3302C529.036 58.8326 485.715 120.907 465.83 116.476C445.944 112.046 412.788 74.6184 394.435 50.9905C376.123 27.3116 372.613 2.20699 374.549 -11.0837C376.486 -24.3744 395.605 -46.0672 406.132 -51.9741C422.495 -60.827 443.931 -55.9036 461.107 -46.0924C461.134 -46.0767 461.151 -46.0477 461.151 -46.0162ZM461.151 -46.0162H461.554M419.806 44.0651C435.668 65.6069 462.747 95.8359 475.329 86.6319C475.365 86.6053 475.418 86.6512 475.39 86.6864C475.362 86.7217 475.399 86.7724 475.434 86.7439C487.905 76.561 504.02 38.5577 496.647 21.9139C489.265 5.16053 461.917 -18.9765 444.774 -27.837C427.632 -36.6975 399.921 -21.93 399.921 -5.68581C399.517 10.5584 403.833 22.3723 419.806 44.0651Z" stroke="var(--stroke-0, #4E4E50)" stroke-width="0.97" stroke-miterlimit="10"/>
<path id="Vector_20" d="M438.12 -8.12942C438.119 -8.12942 438.118 -8.12953 438.117 -8.12975C430.332 -9.60499 422.105 -1.71263 422.509 6.63799C422.509 14.9892 427.188 23.3915 440.861 40.1449C454.535 56.8983 468.169 67.7446 475.591 54.403C483.376 41.1123 479.503 26.8032 471.315 16.0077C463.247 5.37069 446.094 -6.79881 438.107 -8.5666C437.983 -8.59397 437.905 -8.45052 437.983 -8.35123L438.135 -8.15969C438.145 -8.14745 438.136 -8.12942 438.12 -8.12942Z" stroke="var(--stroke-0, #4E4E50)" stroke-width="0.97" stroke-miterlimit="10"/>
<path id="Vector_21" d="M1032.71 113.015C1032.69 113.015 1032.66 113.007 1032.64 112.99C992.002 77.5359 791.573 -2.73212 744.391 -5.68493C697.198 -8.63841 630.885 46.5103 607.087 82.4614C583.692 118.412 559.894 168.163 585.628 186.852C585.628 186.852 671.06 232.631 701.877 266.647C732.29 300.154 787.712 372.514 829.056 394.716C870.4 416.409 936.713 414.932 974.588 384.888C1012.42 354.844 1069.78 300.154 1080.71 267.665C1090.81 235.257 1073.78 148.885 1033.42 113.278C1033.22 113.106 1032.97 113.015 1032.71 113.015ZM1059.21 244.037C1057.64 280.956 989.755 338.6 927.758 364.214C866.125 389.828 812.68 349.956 793.157 326.786C771.295 300.663 725.675 253.916 703.409 232.733C680.781 211.549 638.267 190.365 616.405 176.107C594.542 162.307 603.537 138.17 612.895 124.879C622.253 111.589 656.216 67.2355 684.693 50.5331C712.404 33.7797 749.836 16.0587 786.905 30.3169C823.974 44.1169 971.805 104.205 1002.66 122.894C1033.43 141.093 1061.46 206.893 1059.63 244.355C1059.62 244.464 1059.53 244.547 1059.42 244.547C1059.31 244.547 1059.21 244.454 1059.21 244.34V244.037Z" stroke="var(--stroke-0, #4E4E50)" stroke-width="0.97" stroke-miterlimit="10"/>
<path id="Vector_22" d="M978.016 268.684C1002.58 235.177 995.966 197.24 969.828 173.612C943.69 149.475 869.553 116.986 837.97 103.696C806.346 90.8633 762.259 78.591 742.373 82.512C717.809 86.9423 686.588 126.356 682.313 134.707C678.441 143.059 677.271 157.368 698.326 165.719C719.785 174.121 756.854 196.272 777.143 213.993C796.665 232.223 820.06 279.479 852.047 297.709C884.033 315.888 953.492 302.598 978.057 268.633L978.016 268.684ZM978.016 268.684H978.419M854.386 82.4612C885.143 94.2523 955.558 128.616 989.958 154.215C990.086 154.31 990.157 154.458 990.157 154.618C990.157 154.778 990.233 154.929 990.362 155.025C1024.53 180.694 1035.39 232.742 1021.38 263.235C1007.34 293.737 941.391 341.044 914.487 345.474C887.583 349.904 859.872 342.521 827.886 318.893C795.899 295.214 768.955 251.421 744.39 225.298C720.229 199.175 679.651 184.917 656.619 168.163C633.184 151.41 648.027 129.717 657.385 115.459C667.913 99.2145 703.449 64.7402 732.289 57.3565C761.129 49.9728 823.973 70.6473 854.386 82.4612Z" stroke="var(--stroke-0, #4E4E50)" stroke-width="0.97" stroke-miterlimit="10"/>
<path id="Vector_23" d="M882.464 151.92C882.472 151.92 882.476 151.909 882.468 151.906C859.82 142.069 805.65 117.952 784.968 111.538C764.275 105.122 750.642 113.015 735.032 124.32C719.422 135.625 717.082 154.873 749.069 165.21C773.633 173.103 796.262 190.824 811.872 212.466C827.482 233.65 858.299 281.924 886.373 284.878C922.635 288.799 974.144 250.403 972.974 222.345C971.811 194.456 905.492 162.643 882.471 152.609C882.252 152.514 882.202 152.245 882.351 152.058L882.458 151.923C882.459 151.921 882.461 151.92 882.464 151.92ZM910.13 245.973C910.142 245.973 910.146 245.989 910.136 245.995C890.259 258.271 867.65 237.104 856.726 223.313C845.431 209.513 817.317 179.469 804.047 169.131C793.519 160.78 773.633 155.332 770.124 149.934C765.445 142.55 772.867 134.199 789.243 137.611C806.023 140.564 852.45 170.099 869.593 175.548C886.736 180.996 917.189 196.222 929.653 207.069C941.995 218.262 922.263 238.693 910.87 245.767C910.646 245.906 910.394 245.973 910.13 245.973Z" stroke="var(--stroke-0, #4E4E50)" stroke-width="0.97" stroke-miterlimit="10"/>
<path id="Vector_24" d="M316.062 106.598C316.036 106.598 316.013 106.591 315.993 106.574C275.351 71.1194 74.9223 -9.14862 27.74 -12.1014C-19.4531 -15.0549 -85.7656 40.0938 -109.564 76.0449C-132.959 111.996 -156.757 161.747 -131.023 180.435C-131.023 180.435 -45.5909 226.214 -14.7742 260.23C15.6392 293.737 71.0609 366.098 112.405 388.3C153.75 409.993 220.062 408.516 257.938 378.472C295.773 348.428 353.131 293.737 364.062 261.249C374.161 228.841 357.128 142.468 316.766 106.862C316.571 106.69 316.322 106.598 316.062 106.598ZM342.926 237.621C341.352 274.54 273.467 332.183 211.47 357.797C149.837 383.411 96.3919 343.539 76.8693 320.37C55.0071 294.246 9.3871 247.5 -12.8784 226.316C-35.5069 205.133 -78.0211 183.949 -99.8832 169.691C-121.745 155.891 -112.75 131.754 -103.392 118.463C-94.0344 105.172 -60.0714 60.8192 -31.5942 44.1167C-3.88338 27.3633 33.5484 9.64238 70.6172 23.9006C107.686 37.7005 255.517 97.7886 286.374 116.477C317.139 134.676 345.169 200.477 343.339 237.938C343.333 238.048 343.243 238.13 343.132 238.13C343.018 238.13 342.926 238.037 342.926 237.923V237.621Z" fill="var(--fill-0, white)"/>
<path id="Vector_25" d="M273.911 148.253C273.911 148.092 273.84 147.945 273.711 147.849C239.312 122.251 168.897 87.8871 138.14 76.096C107.726 64.282 44.8828 43.6075 16.0425 50.9912C-12.8381 58.375 -48.3338 92.8493 -58.8615 109.093C-68.2195 123.352 -83.0631 145.045 -59.6279 161.798C-36.233 178.551 3.98205 192.81 28.1433 218.933C52.708 245.056 79.6524 288.849 111.639 312.528C143.625 336.156 171.336 343.539 198.24 339.109C225.144 334.679 291.094 287.372 305.131 256.87C319.14 226.377 308.28 174.328 274.115 148.66C273.987 148.564 273.911 148.413 273.911 148.253ZM261.81 261.758C237.245 295.723 167.787 309.014 135.8 290.835C103.814 272.605 80.4188 225.349 60.8962 207.119C40.6071 189.398 3.5383 167.247 -17.9205 158.845C-38.9759 150.493 -37.8061 136.184 -33.9339 127.833C-29.6582 119.482 1.56188 80.0678 26.1265 75.6376C46.0122 71.7165 90.0994 83.9888 121.723 96.8212C153.306 110.112 227.444 142.6 253.581 166.737C279.719 190.365 286.334 228.302 261.769 261.809L261.81 261.758Z" fill="var(--fill-0, white)"/>
<path id="Vector_26" d="M-235.595 79.5075C-235.603 79.5075 -235.608 79.4985 -235.604 79.4914C-227.832 66.2052 -231.704 51.9033 -239.889 41.1121C-248.077 30.3166 -265.624 17.9425 -273.449 16.4658C-281.274 14.9891 -289.462 22.8821 -289.059 31.2334C-288.655 39.5846 -284.38 47.9867 -270.706 64.7401C-257.117 81.3899 -243.567 92.2055 -236.115 79.2429C-236.05 79.1303 -235.888 79.1103 -235.807 79.2121L-235.587 79.4903C-235.581 79.4973 -235.586 79.5075 -235.595 79.5075Z" fill="var(--fill-0, white)"/>
<path id="Vector_27" d="M1195.77 91.8307C1195.76 91.8307 1195.75 91.8217 1195.76 91.8146C1203.53 78.5285 1199.66 64.2265 1191.47 53.4354C1183.29 42.6399 1165.74 30.2658 1157.91 28.7891C1150.09 27.3123 1141.9 35.2052 1142.3 43.5565C1142.3 51.9077 1146.98 60.3099 1160.66 77.0633C1174.25 93.7132 1187.8 104.529 1195.25 91.5661C1195.31 91.4535 1195.48 91.4336 1195.56 91.5354L1195.78 91.8136C1195.78 91.8205 1195.78 91.8307 1195.77 91.8307Z" fill="var(--fill-0, #F3F3F3)"/>
<path id="Vector_28" d="M461.151 -46.0162C461.151 -46.0477 461.134 -46.0767 461.107 -46.0924C443.931 -55.9036 422.495 -60.827 406.132 -51.9741C395.605 -46.0672 376.486 -24.3744 374.549 -11.0837C372.613 2.20699 376.123 27.3116 394.435 50.9905C412.788 74.6184 445.944 112.046 465.83 116.476C485.715 120.907 529.036 58.8326 522.381 28.3302C516.129 -2.22313 478.294 -36.6975 461.151 -46.0162ZM475.39 86.6864C475.418 86.6512 475.365 86.6053 475.329 86.6319C462.747 95.8359 435.668 65.6069 419.806 44.0651C403.833 22.3723 399.517 10.5584 399.921 -5.68581C399.921 -21.93 427.632 -36.6975 444.774 -27.837C461.917 -18.9765 489.265 5.16053 496.647 21.9139C504.02 38.5577 487.905 76.561 475.434 86.7439C475.399 86.7724 475.362 86.7217 475.39 86.6864Z" fill="var(--fill-0, white)"/>
<path id="Vector_29" d="M990.157 154.618C990.157 154.458 990.086 154.31 989.958 154.215C955.558 128.616 885.143 94.2523 854.386 82.4612C823.973 70.6473 761.129 49.9728 732.289 57.3565C703.449 64.7402 667.913 99.2145 657.385 115.459C648.027 129.717 633.184 151.41 656.619 168.163C679.651 184.917 720.229 199.175 744.39 225.298C768.955 251.421 795.899 295.214 827.886 318.893C859.872 342.521 887.583 349.904 914.487 345.474C941.391 341.044 1007.34 293.737 1021.38 263.235C1035.39 232.742 1024.53 180.694 990.362 155.025C990.233 154.929 990.157 154.778 990.157 154.618ZM978.057 268.633C953.492 302.598 884.033 315.888 852.047 297.709C820.06 279.479 796.665 232.223 777.143 213.993C756.854 196.272 719.785 174.121 698.326 165.719C677.271 157.368 678.441 143.059 682.313 134.707C686.588 126.356 717.809 86.9423 742.373 82.512C762.259 78.591 806.346 90.8633 837.97 103.696C869.553 116.986 943.69 149.475 969.828 173.612C995.966 197.24 1002.58 235.177 978.016 268.684L978.057 268.633Z" fill="var(--fill-0, #ECECEC)"/>
<path id="Vector_30" d="M-709.29 -116.683C-709.236 -116.569 -709.12 -116.503 -708.995 -116.521C-684.713 -119.957 -634.166 -120.374 -588.271 -106.664C-554.349 -96.3265 -516.473 -74.1753 -487.996 -59.8662C-459.519 -45.0988 -427.532 -26.8687 -409.179 -34.7616C-390.827 -42.6545 -351.459 -111.094 -324.918 -118.019C-298.013 -124.894 -211.775 -108.65 -179.022 -70.2543C-146.269 -31.859 -134.531 -17.0407 -119.728 -28.9056C-104.885 -40.7195 -49.9065 -88.4845 -29.6175 -95.4099C-9.32851 -102.335 2.77227 -111.654 23.4243 -111.654C26.4677 -111.654 29.0428 -112.004 31.2007 -112.592C35.025 -113.635 38.8028 -115.212 42.7661 -115.274C68.7662 -115.679 103.24 -112.874 135.397 -103.303C169.32 -92.9656 207.195 -70.8145 235.672 -56.5053C264.15 -41.7379 296.136 -23.5078 314.489 -31.4007C332.842 -39.2937 372.21 -107.733 398.751 -114.658C425.655 -121.533 511.893 -105.289 544.646 -66.8935C577.399 -28.4982 589.137 -13.6798 603.94 -25.5447C618.784 -37.3586 673.762 -85.1237 694.051 -92.0491C707.487 -96.777 717.005 -102.391 728.054 -105.453C729.044 -105.728 730.047 -105.898 731.071 -105.986C757.434 -108.252 802.137 -107.089 842.689 -95.0025C876.612 -84.6653 914.487 -62.5142 942.965 -48.2051C971.442 -33.4376 1003.43 -15.2074 1021.78 -23.1004C1040.13 -30.9933 1079.5 -99.4328 1106.04 -106.358C1132.95 -113.233 1219.19 -96.9885 1251.94 -58.5932C1284.69 -20.1978 1296.43 -5.37948 1311.23 -17.2444C1326.08 -29.0583 1381.05 -76.8233 1401.34 -83.7487C1421.63 -90.6742 1433.73 -99.9929 1454.38 -99.9929C1476.61 -99.9929 1477.01 -117.714 1447.77 -124.639C1418.53 -131.565 1386.14 -105.442 1357.66 -84.2579C1329.18 -63.5835 1308.49 -28.0907 1287.03 -49.2744C1259.32 -76.365 1249.96 -88.6882 1228.5 -101.47C1201.6 -117.205 1136.42 -134.976 1104.43 -132.023C1072.44 -129.069 1038.48 -62.5651 1016.66 -54.7231C994.796 -46.8302 956.961 -71.9857 925.741 -89.1974C892.585 -106.918 839.906 -127.134 805.983 -135.486C780.612 -141.902 744.35 -139.407 720.552 -133.5C696.754 -129.07 672.189 -109.363 649.923 -93.1184C621.446 -72.444 600.754 -36.9512 579.295 -58.1349C551.584 -85.2255 542.226 -97.5487 520.767 -110.33C493.863 -126.065 428.68 -143.837 396.694 -140.883C364.707 -137.93 330.744 -71.4255 308.923 -63.5835C287.061 -55.6906 249.225 -80.8462 218.005 -98.0579C184.849 -115.779 132.17 -135.995 98.2477 -144.346C68.9929 -151.449 24.9213 -147.149 2.50744 -138.925C0.790883 -138.295 -0.974238 -137.842 -2.77736 -137.539C-26.9151 -133.479 -52.0071 -113.675 -74.5519 -97.0394C-103.029 -76.365 -123.721 -40.8722 -145.18 -62.0558C-172.891 -89.1464 -182.249 -101.47 -203.708 -114.251C-230.612 -129.986 -295.795 -147.758 -327.781 -144.804C-359.768 -141.851 -393.731 -75.3466 -415.553 -67.5045C-437.415 -59.6116 -475.25 -84.7672 -506.47 -101.979C-539.626 -119.7 -592.305 -139.916 -626.228 -148.267C-656.041 -155.607 -701.245 -151.186 -723.15 -142.644C-728.222 -140.667 -731.689 -135.79 -730.844 -130.412C-729.85 -124.081 -725.928 -116.733 -712.806 -118.035C-711.824 -118.132 -710.814 -117.886 -710.029 -117.287L-709.375 -116.789C-709.339 -116.761 -709.309 -116.725 -709.29 -116.683Z" stroke="var(--stroke-0, #4E4E50)" stroke-width="0.97" stroke-miterlimit="10"/>
</g>
</g>
</g>
</g>
</svg>
